<svg xmlns="http://www.w3.org/2000/svg" width="52.334" height="42.308" viewBox="0 0 52.334 42.308"><defs><style>.a{fill:#146aa8;}.b{fill:#126099;}.c{fill:#4398d1;}.d{fill:#3e8cc7;}.e{fill:#fdb62f;}.f{fill:#fd7b2f;}.g{fill:#de4c3c;}.h{fill:#87ced9;}</style></defs><g transform="translate(0 -49.045)"><path class="a" d="M68.69,79.866l3.066-19.822a3.685,3.685,0,0,0-3.02-4.228h0L27.359,49.092a3.649,3.649,0,0,0-4.175,3.057l-1.47,9.27V79.751Z" transform="translate(-19.468)"/><path class="b" d="M111.152,97.958,99.416,96.049c-7.882,12.227-20.625,20.7-30.4,25.856l42.087.1,3.062-19.822a3.684,3.684,0,0,0-3.016-4.228Z" transform="translate(-61.88 -42.142)"/><path class="c" d="M3.643,159.771h41.9a3.667,3.667,0,0,1,3.643,3.689v23.98a3.667,3.667,0,0,1-3.643,3.689H3.643A3.667,3.667,0,0,1,0,187.441V163.46A3.667,3.667,0,0,1,3.643,159.771Z" transform="translate(0 -99.777)"/><path class="d" d="M136.882,159.771h-.738c-8.707,15.457-24.975,26.06-34.907,31.359h35.645a3.689,3.689,0,0,0,3.689-3.689V163.46A3.689,3.689,0,0,0,136.882,159.771Z" transform="translate(-91.388 -99.777)"/><rect class="e" width="9.223" height="7.379" transform="translate(4.612 64.881)"/><g transform="translate(4.612 67.645)"><rect class="f" width="2.767" height="1.845" transform="translate(0 0)"/><rect class="f" width="2.767" height="1.845" transform="translate(6.456 0)"/></g><circle class="e" cx="4.612" cy="4.612" r="4.612" transform="translate(35.348 77.518)"/><circle class="g" cx="4.612" cy="4.612" r="4.612" transform="translate(30.003 77.518)"/><g transform="translate(3.689 64.606)"><rect class="h" width="5.534" height="1.845" transform="translate(0 13.835)"/><rect class="h" width="5.534" height="1.845" transform="translate(9.064 13.835)"/><rect class="h" width="5.534" height="1.845" transform="translate(18.127 13.835)"/><rect class="h" width="23.98" height="1.845" transform="translate(0 19.369)"/><rect class="h" width="1.845" height="3.689" transform="translate(28.143)"/><rect class="h" width="1.845" height="3.689" transform="translate(31.775)"/><rect class="h" width="1.845" height="3.689" transform="translate(35.348)"/><rect class="h" width="1.845" height="3.689" transform="translate(39.037)"/></g></g></svg>