<svg width="24" height="24" viewBox="0 0 24 24" fill="none" xmlns="http://www.w3.org/2000/svg">
<path d="M18 3.99927C16.3287 2.74389 14.2512 2 12 2C6.47715 2 2 6.47715 2 12C2 17.5228 6.47715 22 12 22C17.5228 22 22 17.5228 22 12C22 10.0908 21.465 8.30651 20.5366 6.78898" stroke="#EC1B23" stroke-width="2" stroke-linecap="round"/>
<path d="M13.88 10.2224C13.8004 9.97138 13.655 9.75259 13.4625 9.59418C13.27 9.43577 13.0393 9.34498 12.8 9.3335H11.2C10.8817 9.3335 10.5765 9.47397 10.3515 9.72402C10.1264 9.97407 10 10.3132 10 10.6668C10 11.0205 10.1264 11.3596 10.3515 11.6096C10.5765 11.8597 10.8817 12.0002 11.2 12.0002H12.8C13.1183 12.0002 13.4235 12.1406 13.6485 12.3907C13.8736 12.6407 14 12.9799 14 13.3335C14 13.6871 13.8736 14.0263 13.6485 14.2763C13.4235 14.5264 13.1183 14.6668 12.8 14.6668H11.2C10.9607 14.6553 10.73 14.5646 10.5375 14.4061C10.345 14.2477 10.1996 14.0289 10.12 13.7779" stroke="#EC1B23" stroke-width="2" stroke-linecap="round" stroke-linejoin="round"/>
<path d="M12 8V9.33333M12 14.6667V16" stroke="#EC1B23" stroke-width="2" stroke-linecap="round" stroke-linejoin="round"/>
</svg>
