<svg xmlns="http://www.w3.org/2000/svg" width="19.708" height="17.6" viewBox="0 0 19.708 17.6"><defs><style>.a{fill:#ec1b23;stroke:#ec1b23;stroke-width:0.6px;}</style></defs><path class="a" d="M9.554,17a1.12,1.12,0,0,1-.739-.278c-.772-.675-1.516-1.309-2.173-1.869l0,0A40.41,40.41,0,0,1,1.9,10.4,7.112,7.112,0,0,1,0,5.743,5.972,5.972,0,0,1,1.516,1.664,5.138,5.138,0,0,1,5.338,0a4.806,4.806,0,0,1,3,1.036A6.142,6.142,0,0,1,9.554,2.3a6.143,6.143,0,0,1,1.214-1.267A4.806,4.806,0,0,1,13.77,0a5.138,5.138,0,0,1,3.822,1.664,5.972,5.972,0,0,1,1.516,4.079,7.111,7.111,0,0,1-1.9,4.655,40.4,40.4,0,0,1-4.744,4.453c-.658.56-1.4,1.2-2.177,1.872A1.121,1.121,0,0,1,9.554,17ZM5.338,1.119a4.031,4.031,0,0,0-3,1.3,4.858,4.858,0,0,0-1.219,3.32A5.984,5.984,0,0,0,2.757,9.684,39.765,39.765,0,0,0,7.365,14l0,0c.659.562,1.406,1.2,2.184,1.878.782-.681,1.531-1.319,2.191-1.882a39.772,39.772,0,0,0,4.608-4.315,5.985,5.985,0,0,0,1.638-3.941,4.858,4.858,0,0,0-1.219-3.32,4.031,4.031,0,0,0-3-1.3,3.712,3.712,0,0,0-2.318.8,5.431,5.431,0,0,0-1.292,1.495.707.707,0,0,1-1.214,0A5.426,5.426,0,0,0,7.655,1.922,3.712,3.712,0,0,0,5.338,1.119Zm0,0" transform="translate(0.3 0.3)"/></svg>