<svg xmlns="http://www.w3.org/2000/svg" viewBox="0 0 816.95 231.61"><defs><style>.cls-1{fill:#242021;}.cls-2{fill:#ed1b24;}</style></defs><g id="Layer_2" data-name="Layer 2"><g id="Layer_1-2" data-name="Layer 1"><path class="cls-1" d="M170.6,164.9q-10.15,0-15.14-4.41a14.09,14.09,0,0,1-5-11,30.74,30.74,0,0,1,.37-4.85,43,43,0,0,1,1.1-5l9.55-35.72h-9.4l5.14-19.11h9.41l5.44-20.14h22.34L189,84.79h18.52l-5.14,19.11H183.83l-8.82,33a9.78,9.78,0,0,0-.44,1.83,10.85,10.85,0,0,0-.15,1.68q0,4.69,6,4.69a28.44,28.44,0,0,0,5.66-.62,35.29,35.29,0,0,0,5.8-1.73l-5.14,19A37.91,37.91,0,0,1,170.6,164.9Z"/><path class="cls-1" d="M219.11,84.79h22.34l-21.17,78.79H197.94Zm7.2-28.52h23.52l-5.44,19.85H220.87Z"/><path class="cls-1" d="M278.93,165.34a41.26,41.26,0,0,1-14.84-2.57,34,34,0,0,1-11.61-7.2,32.52,32.52,0,0,1-7.58-11.17,37.84,37.84,0,0,1-2.72-14.63,44.21,44.21,0,0,1,3.75-18.15A47.26,47.26,0,0,1,270.78,87a46.53,46.53,0,0,1,29.47-2.28,35.58,35.58,0,0,1,9,3.74A30.08,30.08,0,0,1,316.05,94a40.14,40.14,0,0,1,4.93,6.69l-17.06,12a28.89,28.89,0,0,0-6.68-7.42q-3.75-2.88-10.37-2.87a17.8,17.8,0,0,0-8.52,2.21,23.94,23.94,0,0,0-7.21,6,31,31,0,0,0-5,8.77,29.09,29.09,0,0,0-1.92,10.47q0,7.68,4.42,12.17a14.78,14.78,0,0,0,11,4.5,20.94,20.94,0,0,0,9.26-2,39.22,39.22,0,0,0,8.53-5.8l11.46,14.5a54.43,54.43,0,0,1-13.08,8.82Q288.93,165.35,278.93,165.34Z"/><path class="cls-1" d="M340.82,56.27h22.34l-15,55.57,31.9-27h29.11L371.1,115.51l17.2,48.07h-25l-11.17-33.37-11.32,9.12-6.47,24.25H312Z"/><path class="cls-1" d="M420.64,132a17.14,17.14,0,0,0,4.85,11.24q4.26,4.18,13.09,4.19a25.15,25.15,0,0,0,8.52-1.47,39,39,0,0,0,9-4.85l10.29,13.82a47.81,47.81,0,0,1-12.72,7.42,46.53,46.53,0,0,1-17.56,3,45.17,45.17,0,0,1-15.31-2.42A32.38,32.38,0,0,1,409.24,156,29.53,29.53,0,0,1,402,145.06a40.24,40.24,0,0,1-2.52-14.7,46.43,46.43,0,0,1,3.31-17A47.9,47.9,0,0,1,427,87.43a43.88,43.88,0,0,1,19.18-4.11,37.57,37.57,0,0,1,13.67,2.35A29.09,29.09,0,0,1,470,92.14a27.23,27.23,0,0,1,6.25,9.7,34,34,0,0,1,2.13,12.2,40.3,40.3,0,0,1-1,8.82,55.54,55.54,0,0,1-2.94,9.12Zm35.87-14a18.1,18.1,0,0,0,.74-5.14,12,12,0,0,0-3-8.24q-3-3.37-9.92-3.38a21,21,0,0,0-13.45,4.63,27.28,27.28,0,0,0-8.6,12.13Z"/><path class="cls-1" d="M505,164.9q-10.14,0-15.14-4.41a14.09,14.09,0,0,1-5-11,30.74,30.74,0,0,1,.37-4.85,43,43,0,0,1,1.1-5l9.56-35.72H486.5l5.14-19.11h9.41l5.44-20.14h22.35L523.4,84.79h18.52l-5.15,19.11H518.25l-8.82,33a10.63,10.63,0,0,0-.44,1.83,10.85,10.85,0,0,0-.15,1.68q0,4.69,6,4.69a28.44,28.44,0,0,0,5.66-.62,35.4,35.4,0,0,0,5.81-1.73l-5.15,19A37.91,37.91,0,0,1,505,164.9Z"/><path class="cls-1" d="M561.17,56.27h22.35L554.71,163.58H532.36Z"/><path class="cls-1" d="M594.39,165.05a26.78,26.78,0,0,1-9.33-1.54,20.41,20.41,0,0,1-13.6-19.63,26.15,26.15,0,0,1,9.85-21A31,31,0,0,1,592,117.35a46.58,46.58,0,0,1,13.38-1.84,67.38,67.38,0,0,1,11.83,1A78.56,78.56,0,0,1,627.62,119l.29-1c.19-.88.39-1.79.59-2.73a16.06,16.06,0,0,0,.29-3.19,8.31,8.31,0,0,0-3.23-6.77q-3.24-2.59-11.62-2.6A50.82,50.82,0,0,0,602.7,104a60.93,60.93,0,0,0-9.78,3L589.4,89.45a80.08,80.08,0,0,1,13.52-4,77.09,77.09,0,0,1,15.73-1.53q16,0,24,6.32t7.94,17.93a34.24,34.24,0,0,1-.52,6q-.51,2.94-1.25,5.88l-11.61,43.51H615.56l2.35-9.11a33,33,0,0,1-10.58,7.86A30.49,30.49,0,0,1,594.39,165.05ZM604,149.76a17.91,17.91,0,0,0,6.69-1.25,21.11,21.11,0,0,0,5.8-3.45A23.4,23.4,0,0,0,621,140a20.76,20.76,0,0,0,2.79-6.1l.59-2.06a41.67,41.67,0,0,0-6.76-2,39,39,0,0,0-7.94-.8q-7,0-11.54,3.3a10.63,10.63,0,0,0-4.48,9,7.51,7.51,0,0,0,2.79,6A11.25,11.25,0,0,0,604,149.76Z"/><path class="cls-1" d="M679.36,56.27H701.7l-15,55.57,31.9-27h29.1l-38.07,30.72,17.2,48.07h-25l-11.17-33.37-11.32,9.12-6.47,24.25H650.54Z"/><path class="cls-1" d="M759.18,132A17.14,17.14,0,0,0,764,143.22q4.26,4.18,13.08,4.19a25.17,25.17,0,0,0,8.53-1.47,39,39,0,0,0,9-4.85l10.29,13.82a47.81,47.81,0,0,1-12.72,7.42,46.54,46.54,0,0,1-17.57,3,45.25,45.25,0,0,1-15.31-2.42A32.42,32.42,0,0,1,747.78,156a29.53,29.53,0,0,1-7.25-10.95,40.24,40.24,0,0,1-2.52-14.7,46.22,46.22,0,0,1,3.31-17,47.93,47.93,0,0,1,24.25-25.95,44,44,0,0,1,19.19-4.11,37.57,37.57,0,0,1,13.67,2.35,29.09,29.09,0,0,1,10.14,6.47,27.23,27.23,0,0,1,6.25,9.7A34,34,0,0,1,817,114a39.73,39.73,0,0,1-1,8.82A54.55,54.55,0,0,1,813,132Zm35.87-14a18.09,18.09,0,0,0,.73-5.14,12,12,0,0,0-3-8.24q-3-3.37-9.92-3.38a21,21,0,0,0-13.45,4.63A27.28,27.28,0,0,0,760.8,118Z"/><path class="cls-1" d="M43.27,118s21.19,45.83,70.36,25.66l-6,23.38s-24.24,2.89-24.88,19.49S96.66,208.2,96.66,208.2l-7.08,23.41s-38.82-4.43-56.35-38.21S35.72,124.8,43.27,118Z"/><path class="cls-2" d="M132,75.19c-21.15-27.73,7.89-48.06,12.55-51.07l4.94-19.71A151.14,151.14,0,0,0,112.14,0l.78.15-1.46,7.77-1.54-.29L111.36,0C97.46.11,81.29,2.11,65.55,8.41a110.8,110.8,0,0,0-29.5,18.51c-1,.93-2,1.89-3,2.88a189,189,0,0,0-13,14.44A103.73,103.73,0,0,0,2.62,82.45C-8.8,131.52,20.8,183.81,20.8,183.81c-9-45.07,16.76-72.33,16.76-72.33C79.48,69.4,126.62,94.6,126.62,94.6l5-18.93-.68-.32ZM21.17,57.65a103.24,103.24,0,0,0-8.23,15.78,97.05,97.05,0,0,0-5.21,17c-.73,2.9-1.09,5.86-1.56,8.81-.28,1.47-.33,3-.49,4.46l-.42,4.46A102.75,102.75,0,0,1,11.82,73,94.29,94.29,0,0,1,20,56.88,100.72,100.72,0,0,1,31.1,42.65,103,103,0,0,1,44.64,30.71a116.32,116.32,0,0,1,15.24-9.63A123.78,123.78,0,0,1,93.62,8.89a124.91,124.91,0,0,0-17,5.57,137.07,137.07,0,0,0-16.15,7.67A115.4,115.4,0,0,0,32.23,43.72,99.8,99.8,0,0,0,21.17,57.65ZM68.89,79.8a74.61,74.61,0,0,0-14,5.76A70.54,70.54,0,0,0,32,104.75a78.57,78.57,0,0,0-8,12.71,93.74,93.74,0,0,0-5.54,14,130.17,130.17,0,0,0-5.23,29.84l.27-7.62c.24-2.52.44-5.06.73-7.59a110.69,110.69,0,0,1,3.07-15c.36-1.23.68-2.46,1.08-3.68l1.31-3.6c.41-1.22.93-2.38,1.45-3.55s1-2.36,1.59-3.5a79,79,0,0,1,8.09-13,70,70,0,0,1,23.63-19.3,71.39,71.39,0,0,1,29.37-7.68A71.33,71.33,0,0,0,68.89,79.8Zm39.57-64.4,1.53.29-1.46,7.78L107,23.18ZM105.54,31l1.53.29L105.61,39l-1.54-.29ZM102.61,46.5l1.54.29-1.46,7.77-1.54-.29ZM99.69,62l1.53.29-1.46,7.78-1.53-.29ZM95.3,85.36l1.46-7.77,1.54.29-1.46,7.77Z"/><path class="cls-2" d="M439.67,213.27l-.73-4.12-11.42,0-2.91,4.12H420l18-25.08h1.4l4.58,25.12Zm-1.34-7.52-1.51-10.15-6.92,10.13Z"/><path class="cls-2" d="M448.87,213.28l6.61-24.68h4.12L454,209.74l11.73,0-1,3.55Z"/><path class="cls-2" d="M469.88,213.32l6.61-24.69h4.11L475,209.77l11.73,0-1,3.55Z"/><path class="cls-2" d="M505.53,213.38l5.68-21.14h-8.62l1-3.55,21.36,0-1,3.56-8.63,0-5.68,21.13Z"/><path class="cls-2" d="M523.19,213.4l6.61-24.68h4.12l-2.59,9.83,12.89,0,2.59-9.83h4.11l-6.6,24.69H540.2l3-11.29-12.89,0-3,11.29Z"/><path class="cls-2" d="M551.77,213.45l6.61-24.68h4.11l-6.6,24.69Z"/><path class="cls-2" d="M586.92,188.81H591l-6.71,25.1h-1.4L572,196.46l-4.56,17H563.3l6.72-25.1h1.44l10.95,17.41Z"/><path class="cls-2" d="M593.64,202.07a13.6,13.6,0,0,1,5.11-9.63,15.23,15.23,0,0,1,10.57-4,11.81,11.81,0,0,1,6,1.49,10.17,10.17,0,0,1,4,4.21L616,196.38a7.55,7.55,0,0,0-7.2-4.31,10.49,10.49,0,0,0-7.37,2.87,10.36,10.36,0,0,0-3.49,7,7.6,7.6,0,0,0,1.85,6.06,7.78,7.78,0,0,0,6,2.37,10.81,10.81,0,0,0,7.69-3.17l.85-3.18h-7.88l1-3.52,12,0-2,7.71a14.8,14.8,0,0,1-5.41,4.22,16,16,0,0,1-6.85,1.52,11.24,11.24,0,0,1-8.62-3.4A10.16,10.16,0,0,1,593.64,202.07Z"/><path class="cls-2" d="M621.52,208l3.31-1.9q2.31,4.35,6.54,4.35a5.26,5.26,0,0,0,3.21-.93A3.26,3.26,0,0,0,636,207a2.66,2.66,0,0,0-.6-2,8,8,0,0,0-2.34-1.76l-2.6-1.43c-3.06-1.73-4.48-3.87-4.26-6.44a6.76,6.76,0,0,1,2.81-5,9.86,9.86,0,0,1,6.16-2,8.18,8.18,0,0,1,7.91,4.73l-3.31,1.9a5.81,5.81,0,0,0-5.1-3,4.94,4.94,0,0,0-3,.84,3,3,0,0,0-1.26,2.26,2.55,2.55,0,0,0,.5,1.85,7.57,7.57,0,0,0,2.19,1.67l2.63,1.46q4.83,2.67,4.5,6.49a7.32,7.32,0,0,1-2.9,5.27A9.88,9.88,0,0,1,631,214a10.16,10.16,0,0,1-5.61-1.56A10.56,10.56,0,0,1,621.52,208Z"/><path class="cls-2" d="M661.16,213.63l5.68-21.13-8.62,0,1-3.55,21.36,0-1,3.55-8.63,0-5.68,21.14Z"/><path class="cls-2" d="M678.82,213.66,685.43,189h4.12l-6.61,24.68Z"/><path class="cls-2" d="M692.11,202.23a13.6,13.6,0,0,1,5.11-9.63,15.24,15.24,0,0,1,10.57-4,11.81,11.81,0,0,1,6.27,1.63,10,10,0,0,1,4,4.63l-3.55,2a7.47,7.47,0,0,0-7.26-4.61,10.45,10.45,0,0,0-7.31,2.87,10.34,10.34,0,0,0-3.51,7,7.49,7.49,0,0,0,1.88,6,7.66,7.66,0,0,0,5.91,2.37,11.24,11.24,0,0,0,8.41-3.88l2.68,2.25a15.75,15.75,0,0,1-11.71,5.26,11.24,11.24,0,0,1-8.62-3.4A10.16,10.16,0,0,1,692.11,202.23Z"/><path class="cls-2" d="M725.77,189h4.12l-6.61,24.68h-4.11Zm20.12,0L731.94,201l8.51,12.78h-4.74l-8.78-13.15,13.52-11.54Z"/><path class="cls-2" d="M745.38,213.77l6.6-24.69,16.86,0-1,3.55-12.73,0L753.43,199l9.56,0-.92,3.44-9.55,0-2.06,7.82,13.16,0-.92,3.55Z"/><path class="cls-2" d="M774.58,213.81l5.68-21.13h-8.62l1-3.56,21.36,0-1,3.55h-8.62l-5.69,21.13Z"/></g></g></svg>