<svg xmlns="http://www.w3.org/2000/svg" width="46" height="46" viewBox="0 0 46 46">
  <g id="Group_3957" data-name="Group 3957" transform="translate(-1059 -1127)">
    <g id="Group_3621" data-name="Group 3621" transform="translate(1059 1127)">
      <rect id="Rectangle_690" data-name="Rectangle 690" width="46" height="46" rx="6" fill="#ec1b23"/>
    </g>
    <g id="share-3" transform="translate(1069.994 1140)">
      <g id="Group_3623" data-name="Group 3623" transform="translate(2.006)">
        <path id="Path_2083" data-name="Path 2083" d="M18.058,12.608a3.591,3.591,0,0,0-2.823,1.385L9.1,10.853a3.591,3.591,0,0,0,.138-.935A3.562,3.562,0,0,0,9.07,8.9l6.112-3.125a3.6,3.6,0,1,0-.736-2.166,3.575,3.575,0,0,0,.139.938L8.447,7.691A3.611,3.611,0,1,0,8.5,12.081l6.109,3.125a3.57,3.57,0,0,0-.165,1.017,3.615,3.615,0,1,0,3.614-3.615Z" transform="translate(-2.006)" fill="#fff"/>
      </g>
    </g>
  </g>
</svg>
