<svg xmlns="http://www.w3.org/2000/svg" width="24.309" height="29.136" viewBox="0 0 24.309 29.136">
  <g id="cCfQNU.tif" transform="translate(-1194.633 -812)">
    <g id="Group_1149" data-name="Group 1149" transform="translate(1194.633 812)">
      <path id="Path_1987" data-name="Path 1987" d="M1211.648,1028.757c.1,0,.18-.01.257-.011.286,0,.572,0,.858,0a1.166,1.166,0,0,0,1.314-1.326q0-5.889,0-11.778c0-.083-.01-.167-.015-.251H1199.5v.27q0,5.865,0,11.73a3.255,3.255,0,0,0,.015.357,1.084,1.084,0,0,0,1,.978c.19.015.381.018.571.021.269,0,.537,0,.839,0v.3c0,1.287,0,2.575,0,3.862a1.869,1.869,0,0,0,1.433,1.869,1.849,1.849,0,0,0,2.207-1.785c.009-1.327,0-2.654,0-3.982v-.256H1208v.271c0,1.327-.008,2.654,0,3.981a1.839,1.839,0,0,0,2.193,1.771,1.878,1.878,0,0,0,1.446-1.861c.006-1.287,0-2.575,0-3.862Zm-17.01-7.31h0q0,.917,0,1.835c0,.842-.017,1.684.011,2.525a1.826,1.826,0,0,0,2.178,1.679,1.881,1.881,0,0,0,1.451-1.832q0-4.182,0-8.363c0-.056,0-.111,0-.167a1.817,1.817,0,0,0-3.633.058C1194.632,1018.6,1194.638,1020.026,1194.638,1021.448Zm24.3.025c0-1.391,0-2.782,0-4.173a1.893,1.893,0,0,0-1.159-1.788,1.831,1.831,0,0,0-2.477,1.669c-.008,1.765,0,3.529,0,5.294,0,1.1-.011,2.194.006,3.291a1.834,1.834,0,0,0,2.167,1.725,1.868,1.868,0,0,0,1.465-1.844C1218.944,1024.255,1218.939,1022.864,1218.939,1021.472Z" transform="translate(-1194.633 -1005.686)" fill="#ec1b23"/>
      <path id="Path_1988" data-name="Path 1988" d="M1298.591,812a2.642,2.642,0,0,1,.417.294c.512.532,1.011,1.076,1.5,1.6a7.191,7.191,0,0,1,6.537.141c.116-.133.258-.313.417-.476q.651-.664,1.315-1.315a.578.578,0,0,1,.631-.167.587.587,0,0,1,.416.5.608.608,0,0,1-.216.529c-.512.5-1.02,1-1.546,1.519a7.113,7.113,0,0,1,3.047,5.84h-14.589a7.465,7.465,0,0,1,2.93-5.837c-.487-.48-.963-.948-1.437-1.417a1.009,1.009,0,0,1-.175-1.037c.041-.078.152-.118.231-.176Zm2.775,6.042v-1.2h-1.18v1.2Zm6.086-1.205h-1.185v1.2h1.185Z" transform="translate(-1291.658 -812)" fill="#ec1b23"/>
      <path id="Path_1989" data-name="Path 1989" d="M1308.8,1028.833v.3c0,1.287,0,2.575,0,3.862a1.878,1.878,0,0,1-1.446,1.861,1.839,1.839,0,0,1-2.193-1.771c-.01-1.327,0-2.654,0-3.982v-.27h-2.432v.255c0,1.327.007,2.655,0,3.982a1.849,1.849,0,0,1-2.207,1.785,1.869,1.869,0,0,1-1.433-1.869c-.005-1.287,0-2.575,0-3.862v-.3c-.3,0-.57,0-.839,0-.191,0-.381-.005-.571-.02a1.084,1.084,0,0,1-1-.978,3.256,3.256,0,0,1-.015-.357q0-5.865,0-11.73v-.27h14.564c.005.084.015.168.015.251q0,5.889,0,11.778a1.166,1.166,0,0,1-1.314,1.326c-.286,0-.572,0-.858,0C1308.982,1028.822,1308.9,1028.828,1308.8,1028.833Z" transform="translate(-1291.786 -1005.761)" fill="#ec1b23"/>
      <path id="Path_1990" data-name="Path 1990" d="M1194.638,1021.514c0-1.422-.006-2.843,0-4.265a1.817,1.817,0,0,1,3.633-.058c0,.055,0,.111,0,.167q0,4.182,0,8.363a1.881,1.881,0,0,1-1.451,1.832,1.826,1.826,0,0,1-2.178-1.679c-.028-.841-.01-1.684-.011-2.525q0-.917,0-1.835Z" transform="translate(-1194.633 -1005.753)" fill="#ec1b23"/>
      <path id="Path_1991" data-name="Path 1991" d="M1631.509,1021.472c0,1.391,0,2.782,0,4.173a1.868,1.868,0,0,1-1.465,1.844,1.834,1.834,0,0,1-2.167-1.725c-.017-1.1-.005-2.194-.005-3.291,0-1.765-.005-3.529,0-5.294a1.831,1.831,0,0,1,2.477-1.669,1.892,1.892,0,0,1,1.159,1.788C1631.512,1018.69,1631.509,1020.081,1631.509,1021.472Z" transform="translate(-1607.202 -1005.686)" fill="#ec1b23"/>
    </g>
  </g>
</svg>
