<svg xmlns="http://www.w3.org/2000/svg" width="22.107" height="21.316" viewBox="0 0 22.107 21.316">
  <g id="fav" transform="translate(-648 -286)">
    <g id="Group_1189" data-name="Group 1189" transform="translate(648 286)">
      <path id="Path_2028" data-name="Path 2028" d="M659.053,307.316a.786.786,0,0,1-.481-.163C658.14,306.82,648,298.944,648,292.316a6.316,6.316,0,1,1,12.632,0,.789.789,0,0,1-1.579,0,4.737,4.737,0,0,0-9.474,0c0,5.1,7.482,11.568,9.474,13.2,1.991-1.631,9.474-8.1,9.474-13.2a4.741,4.741,0,0,0-6.757-4.287.789.789,0,1,1-.673-1.427,6.319,6.319,0,0,1,9.01,5.714c0,6.628-10.14,14.5-10.572,14.837A.786.786,0,0,1,659.053,307.316Z" transform="translate(-648 -286)" fill="#fff"/>
    </g>
  </g>
</svg>
