<svg xmlns="http://www.w3.org/2000/svg" width="70" height="60" viewBox="0 0 70 60"><defs><style>.a{fill:#f2f3f8;}.b{fill:#747a95;}</style></defs><g transform="translate(-1257 -1140)"><g transform="translate(1187 1140)"><path class="a" d="M0,0H64a6,6,0,0,1,6,6V54a6,6,0,0,1-6,6H0a0,0,0,0,1,0,0V0A0,0,0,0,1,0,0Z" transform="translate(70)"/></g><g transform="translate(1276 1155.377)"><path class="b" d="M7.475,38.935H35.767a1.063,1.063,0,0,0,1.075-1.075V13.868a1.063,1.063,0,0,0-1.075-1.075H30.444v-.918a1.075,1.075,0,1,0-2.15,0v.918H15.131v-.918a1.075,1.075,0,1,0-2.15,0v.918H7.475A1.063,1.063,0,0,0,6.4,13.868V37.886a1.075,1.075,0,0,0,1.075,1.049ZM8.55,14.943h4.431v.577a1.075,1.075,0,0,0,2.15,0v-.577H28.294v.577a1.075,1.075,0,1,0,2.15,0v-.577h4.274v2.779H8.55V14.943Zm0,4.929H34.692V36.811H8.55V19.872Z" transform="translate(-6.4 -10.8)"/><path class="b" d="M43.245,84H32.406a1.526,1.526,0,0,0,0,3.051H43.245a1.526,1.526,0,0,0,0-3.051Z" transform="translate(-22.647 -65.125)"/><path class="b" d="M43.259,84H32.408a1.526,1.526,0,0,0,0,3.051H43.259a1.526,1.526,0,0,0,0-3.051Z" transform="translate(-22.662 -70.481)"/></g></g></svg>