<svg xmlns="http://www.w3.org/2000/svg" xmlns:xlink="http://www.w3.org/1999/xlink" width="17.544" height="16.735" viewBox="0 0 17.544 16.735">
  <defs>
    <clipPath id="clip-path">
      <path id="Path_5583" data-name="Path 5583" d="M0,0H8.773V13.217l-8.76,3.19Z" transform="translate(1523.959 759.718)" fill="#391010"/>
    </clipPath>
  </defs>
  <g id="Group_6332" data-name="Group 6332" transform="translate(-736.956 -2213)">
    <g id="star" transform="translate(736.959 2213)">
      <g id="Path_2208" data-name="Path 2208" transform="translate(-49.548 -15.692)" fill="none" stroke-linecap="round" stroke-linejoin="round">
        <path d="M66.675,21.734l-5.682-.527-2.257-5.241a.455.455,0,0,0-.836,0l-2.257,5.241-5.682.527a.455.455,0,0,0-.258.8L53.99,26.3l-1.255,5.566a.455.455,0,0,0,.677.492l4.906-2.913,4.906,2.913a.455.455,0,0,0,.677-.492L62.646,26.3l4.287-3.766A.455.455,0,0,0,66.675,21.734Z" stroke="none"/>
        <path d="M 58.31821823120117 17.52398300170898 L 56.56163787841797 21.60287857055664 C 56.4168701171875 21.93904876708984 56.09999847412109 22.16926765441895 55.73554992675781 22.20307922363281 L 51.31345367431641 22.61324310302734 L 54.64991760253906 25.54427909851074 C 54.92490005493164 25.78584861755371 55.04593658447266 26.15834808349609 54.96545791625977 26.51541900634766 L 53.9890251159668 30.84788131713867 L 57.80765914916992 28.58042907714844 C 58.12237930297852 28.39354705810547 58.51405715942383 28.39354705810547 58.82877731323242 28.58042907714844 L 62.64741516113281 30.84787940979004 L 61.67093658447266 26.51542854309082 C 61.59045791625977 26.15835762023926 61.71149826049805 25.78584861755371 61.98648834228516 25.54427909851074 L 65.32296752929688 22.61325454711914 L 60.90089797973633 22.2031192779541 C 60.53643798828125 22.16930770874023 60.21956634521484 21.93908882141113 60.07479858398438 21.60291862487793 L 58.31821823120117 17.52398300170898 M 58.31820297241211 15.69149780273438 C 58.48777389526367 15.69149780273438 58.65735244750977 15.78323745727539 58.73637008666992 15.96671676635742 L 60.99324798583984 21.20738792419434 L 66.6748046875 21.73433876037598 C 67.07260131835938 21.77120780944824 67.23338317871094 22.26603889465332 66.93324279785156 22.52971839904785 L 62.64646911621094 26.29555892944336 L 63.90104675292969 31.86189842224121 C 63.98884582519531 32.25167846679688 63.56797409057617 32.5574951171875 63.22443771362305 32.35350799560547 L 58.31821823120117 29.44026947021484 L 53.41200637817383 32.35350799560547 C 53.06850433349609 32.55744934082031 52.64754867553711 32.25168228149414 52.73540878295898 31.86190795898438 L 53.98992919921875 26.29555892944336 L 49.70318603515625 22.52971839904785 C 49.40304565429688 22.26603889465332 49.56380462646484 21.77120780944824 49.96164703369141 21.73433876037598 L 55.6431884765625 21.20734786987305 L 57.90006637573242 15.96671676635742 C 57.97906494140625 15.78323745727539 58.14863204956055 15.69149780273438 58.31820297241211 15.69149780273438 Z" stroke="none" fill="#ffb500"/>
      </g>
    </g>
    <g id="Mask_Group_340" data-name="Mask Group 340" transform="translate(-787.003 1453.609)" clip-path="url(#clip-path)">
      <g id="star-2" data-name="star" transform="translate(1523.959 759.718)">
        <path id="Path_4326" data-name="Path 4326" d="M66.675,21.734l-5.681-.527-2.257-5.241a.455.455,0,0,0-.836,0l-2.257,5.241-5.681.527a.455.455,0,0,0-.258.8L53.99,26.3l-1.255,5.566a.455.455,0,0,0,.677.492l4.906-2.913,4.906,2.913a.455.455,0,0,0,.677-.492L62.646,26.3l4.287-3.766A.455.455,0,0,0,66.675,21.734Z" transform="translate(-49.548 -15.691)" fill="#ffb500"/>
      </g>
    </g>
  </g>
</svg>
