<svg xmlns="http://www.w3.org/2000/svg" width="62.383" height="58.119" viewBox="0 0 62.383 58.119">
  <g id="coffee-cup-2" transform="translate(0.507 0.5)">
    <path id="Path_2020" data-name="Path 2020" d="M53.8,194.591a7.517,7.517,0,0,0,5.43-2.3,1.2,1.2,0,1,0-1.719-1.671,5.139,5.139,0,0,1-3.711,1.577H49.224a43.054,43.054,0,0,0,3-10.365H53.8a5.137,5.137,0,0,1,3.711,1.577,1.2,1.2,0,0,0,1.719-1.671,7.517,7.517,0,0,0-5.43-2.3H52.548q.191-1.728.264-3.5a1.2,1.2,0,0,0-1.2-1.246H7.894a1.2,1.2,0,0,0-1.2,1.246,48.525,48.525,0,0,0,.823,7.211,1.2,1.2,0,1,0,2.354-.452,45.864,45.864,0,0,1-.716-5.608H50.35q-.11,1.675-.333,3.3a1.178,1.178,0,0,0-.02.142,40.112,40.112,0,0,1-3.65,12.177,1.216,1.216,0,0,0-.159.317,28.555,28.555,0,0,1-4.52,6.566H17.839a29.339,29.339,0,0,1-5.2-8.021,1.2,1.2,0,1,0-2.187.983,33.1,33.1,0,0,0,4.228,7.038H1.2a1.2,1.2,0,0,0-1.159,1.5c.964,3.668,4.087,7,9.031,9.632a1.2,1.2,0,0,0,.564.14h40.24a1.2,1.2,0,0,0,.564-.14c4.944-2.633,8.067-5.964,9.031-9.632a1.2,1.2,0,0,0-1.159-1.5H44.827a31.866,31.866,0,0,0,3.243-5Zm-4.225,13.874H9.936c-3.412-1.863-5.839-4.117-7.009-6.481H56.581C55.41,204.347,52.983,206.6,49.571,208.465Zm0,0" transform="translate(0.001 -153.743)" fill="#ff7176" stroke="#ff7176" stroke-width="1" fill-rule="evenodd"/>
    <path id="Path_2021" data-name="Path 2021" d="M146.059,17.066a1.2,1.2,0,1,0,2.4,0,4.874,4.874,0,0,1,.917-2.01,6.438,6.438,0,0,0,1.28-3.279,6.438,6.438,0,0,0-1.28-3.279,4.874,4.874,0,0,1-.917-2.01,4.874,4.874,0,0,1,.917-2.01,6.438,6.438,0,0,0,1.28-3.279,1.2,1.2,0,1,0-2.4,0,4.876,4.876,0,0,1-.917,2.011,6.432,6.432,0,0,0-1.28,3.278,6.435,6.435,0,0,0,1.28,3.279,4.872,4.872,0,0,1,.917,2.01,4.876,4.876,0,0,1-.917,2.011A6.432,6.432,0,0,0,146.059,17.066Zm0,0" transform="translate(-128.55)" fill="#ff7176" stroke="#ff7176" stroke-width="1" fill-rule="evenodd"/>
    <path id="Path_2022" data-name="Path 2022" d="M229.043,17.066a1.2,1.2,0,1,0,2.4,0,4.874,4.874,0,0,1,.917-2.01,6.435,6.435,0,0,0,1.28-3.279,6.435,6.435,0,0,0-1.28-3.279,4.874,4.874,0,0,1-.917-2.01,4.874,4.874,0,0,1,.917-2.01,6.435,6.435,0,0,0,1.28-3.279,1.2,1.2,0,1,0-2.4,0,4.878,4.878,0,0,1-.917,2.011,6.436,6.436,0,0,0-1.28,3.278,6.439,6.439,0,0,0,1.28,3.279,4.874,4.874,0,0,1,.917,2.01,4.878,4.878,0,0,1-.917,2.011A6.436,6.436,0,0,0,229.043,17.066Zm0,0" transform="translate(-201.586)" fill="#ff7176" stroke="#ff7176" stroke-width="1" fill-rule="evenodd"/>
    <path id="Path_2023" data-name="Path 2023" d="M312.027,17.066a1.2,1.2,0,1,0,2.4,0,4.874,4.874,0,0,1,.917-2.01,6.433,6.433,0,0,0,1.28-3.279,6.435,6.435,0,0,0-1.28-3.279,4.874,4.874,0,0,1-.917-2.01,4.874,4.874,0,0,1,.917-2.01,6.433,6.433,0,0,0,1.28-3.279,1.2,1.2,0,1,0-2.4,0,4.878,4.878,0,0,1-.917,2.011,6.436,6.436,0,0,0-1.28,3.278,6.437,6.437,0,0,0,1.28,3.279,4.874,4.874,0,0,1,.917,2.01,4.878,4.878,0,0,1-.917,2.011A6.436,6.436,0,0,0,312.027,17.066Zm0,0" transform="translate(-274.623)" fill="#ff7176" stroke="#ff7176" stroke-width="1" fill-rule="evenodd"/>
    <path id="Path_2024" data-name="Path 2024" d="M74.616,273.371a1.2,1.2,0,1,0-1.2,1.2A1.2,1.2,0,0,0,74.616,273.371Zm0,0" transform="translate(-63.561 -239.545)" fill="#ff7176" stroke="#ff7176" stroke-width="1" fill-rule="evenodd"/>
    <path id="Path_2025" data-name="Path 2025" d="M493.2,267.52a1.2,1.2,0,1,0,1.2,1.2A1.2,1.2,0,0,0,493.2,267.52Zm0,0" transform="translate(-433.021 -235.45)" fill="#ff7176" stroke="#ff7176" stroke-width="1" fill-rule="evenodd"/>
  </g>
</svg>
