<svg xmlns="http://www.w3.org/2000/svg" width="24.911" height="30.794" viewBox="0 0 24.911 30.794">
  <g id="qnGTs9.tif" transform="translate(-2009.521 -549)">
    <g id="Group_1148" data-name="Group 1148" transform="translate(2009.521 549)">
      <path id="Path_1985" data-name="Path 1985" d="M2017.97,696.113h-.782a4.387,4.387,0,0,1-2.525-1.459,19.361,19.361,0,0,1-4.545-8.323,15.008,15.008,0,0,1-.384-6.634,8.149,8.149,0,0,1,3.729-5.743,6.392,6.392,0,0,1,5.495-.807c.733.234,1.451.518,2.167.8a2.72,2.72,0,0,0,2.1.006c.538-.217,1.085-.411,1.627-.62a7.428,7.428,0,0,1,7.1.751,6.018,6.018,0,0,1,1.7,1.726c-.2.155-.383.294-.562.438a6.8,6.8,0,0,0-1.315,9.591,7.617,7.617,0,0,0,2.475,1.968c.152.079.218.146.152.344a18.286,18.286,0,0,1-3.869,6.478,3.773,3.773,0,0,1-3.768,1.349,14.466,14.466,0,0,1-2.033-.713,5.415,5.415,0,0,0-3.533-.233C2020.113,695.35,2019.047,695.75,2017.97,696.113Z" transform="translate(-2009.521 -665.319)" fill="#ec1b23"/>
      <path id="Path_1986" data-name="Path 1986" d="M2222.021,549a7.076,7.076,0,0,1-.354,2.661,6.508,6.508,0,0,1-4.1,4.213,8.459,8.459,0,0,1-1.413.24c-.253.04-.323-.087-.333-.326a6.207,6.207,0,0,1,1.307-3.973,6.784,6.784,0,0,1,4.544-2.769.511.511,0,0,0,.108-.046Z" transform="translate(-2203.407 -549)" fill="#ec1b23"/>
    </g>
  </g>
</svg>
