<svg id="Group_6029" data-name="Group 6029" xmlns="http://www.w3.org/2000/svg" width="25.629" height="19.035" viewBox="0 0 25.629 19.035">
  <path id="Path_2253" data-name="Path 2253" d="M165.072,73.233a.459.459,0,0,0-.335-.141H146.654a.482.482,0,0,0-.476.476v2.855a.482.482,0,0,0,.476.476h18.083a.482.482,0,0,0,.476-.476V73.568A.458.458,0,0,0,165.072,73.233Z" transform="translate(-139.584 -73.092)" fill="#4c5157"/>
  <path id="Path_2254" data-name="Path 2254" d="M164.737,219.271H146.654a.482.482,0,0,0-.476.476V222.6a.483.483,0,0,0,.476.476h18.083a.482.482,0,0,0,.476-.476v-2.855a.482.482,0,0,0-.476-.476Z" transform="translate(-139.584 -211.657)" fill="#4c5157"/>
  <path id="Path_2255" data-name="Path 2255" d="M164.737,365.447H146.654a.483.483,0,0,0-.476.476v2.855a.482.482,0,0,0,.476.476h18.083a.482.482,0,0,0,.476-.476v-2.855a.483.483,0,0,0-.476-.476Z" transform="translate(-139.584 -350.219)" fill="#4c5157"/>
  <path id="Path_2256" data-name="Path 2256" d="M149.932,73.233c-.019-.094-.041-.141-.067-.141h-3.593q-.038,0-.066.141a1.74,1.74,0,0,0-.028.335v2.855a1.741,1.741,0,0,0,.028.335q.028.141.066.141h3.593c.026,0,.048-.047.067-.141a1.739,1.739,0,0,0,.028-.335V73.568A1.742,1.742,0,0,0,149.932,73.233Z" transform="translate(-146.178 -73.092)" fill="#4c5157"/>
  <path id="Path_2257" data-name="Path 2257" d="M149.866,219.271h-3.593c-.026,0-.048.047-.066.141a1.738,1.738,0,0,0-.028.335V222.6a1.738,1.738,0,0,0,.028.334c.019.094.041.141.066.141h3.593c.026,0,.048-.047.067-.141a1.737,1.737,0,0,0,.028-.334v-2.855a1.737,1.737,0,0,0-.028-.335Q149.9,219.271,149.866,219.271Z" transform="translate(-146.178 -211.657)" fill="#4c5157"/>
  <path id="Path_2258" data-name="Path 2258" d="M149.866,365.447h-3.593q-.038,0-.066.141a1.739,1.739,0,0,0-.028.334v2.855a1.741,1.741,0,0,0,.028.335c.019.094.041.141.066.141h3.593c.026,0,.048-.047.067-.141a1.74,1.74,0,0,0,.028-.335v-2.855a1.736,1.736,0,0,0-.028-.334C149.914,365.494,149.892,365.447,149.866,365.447Z" transform="translate(-146.178 -350.219)" fill="#4c5157"/>
</svg>
