<svg xmlns="http://www.w3.org/2000/svg" width="70" height="60" viewBox="0 0 70 60"><defs><style>.a{fill:#ec1b23;}.b{fill:#fff;}</style></defs><g transform="translate(-1187 -1140)"><g transform="translate(1187 1140)"><path class="a" d="M6,0H70a0,0,0,0,1,0,0V60a0,0,0,0,1,0,0H6a6,6,0,0,1-6-6V6A6,6,0,0,1,6,0Z"/></g><g transform="translate(1208.001 1159.607)"><path class="b" d="M166.334,73.242a.489.489,0,0,0-.357-.15H146.686a.514.514,0,0,0-.508.507v3.046a.514.514,0,0,0,.508.507h19.291a.514.514,0,0,0,.508-.507V73.6A.488.488,0,0,0,166.334,73.242Z" transform="translate(-139.144 -73.092)"/><path class="b" d="M165.977,219.271H146.686a.515.515,0,0,0-.508.508v3.046a.515.515,0,0,0,.508.508h19.291a.515.515,0,0,0,.508-.508v-3.046a.515.515,0,0,0-.508-.508Z" transform="translate(-139.144 -211.148)"/><path class="b" d="M165.977,365.447H146.686a.515.515,0,0,0-.508.508V369a.514.514,0,0,0,.508.507h19.291a.514.514,0,0,0,.508-.507v-3.046a.515.515,0,0,0-.508-.508Z" transform="translate(-139.144 -349.202)"/><path class="b" d="M150.183,73.242c-.02-.1-.044-.15-.071-.15h-3.833q-.041,0-.071.15a1.856,1.856,0,0,0-.03.357v3.046a1.857,1.857,0,0,0,.03.357q.03.15.071.15h3.833c.027,0,.051-.05.071-.15a1.855,1.855,0,0,0,.03-.357V73.6A1.858,1.858,0,0,0,150.183,73.242Z" transform="translate(-146.178 -73.092)"/><path class="b" d="M150.112,219.271h-3.833c-.027,0-.051.05-.071.151a1.854,1.854,0,0,0-.03.357v3.046a1.854,1.854,0,0,0,.03.357c.02.1.044.151.071.151h3.833c.027,0,.051-.05.071-.151a1.853,1.853,0,0,0,.03-.357v-3.046a1.853,1.853,0,0,0-.03-.357Q150.153,219.271,150.112,219.271Z" transform="translate(-146.178 -211.148)"/><path class="b" d="M150.112,365.447h-3.833q-.041,0-.071.151a1.854,1.854,0,0,0-.03.357V369a1.857,1.857,0,0,0,.03.357c.02.1.044.15.071.15h3.833c.027,0,.051-.05.071-.15a1.856,1.856,0,0,0,.03-.357v-3.046a1.852,1.852,0,0,0-.03-.357C150.163,365.5,150.14,365.447,150.112,365.447Z" transform="translate(-146.178 -349.202)"/></g></g></svg>