<svg id="Group_3993" data-name="Group 3993" xmlns="http://www.w3.org/2000/svg" width="24.084" height="23.224" viewBox="0 0 24.084 23.224">
  <g id="Group_1189" data-name="Group 1189" transform="translate(0 0)">
    <path id="Path_2028" data-name="Path 2028" d="M660.042,309.224a.856.856,0,0,1-.524-.178C659.047,308.684,648,300.1,648,292.881a6.881,6.881,0,0,1,13.762,0,.86.86,0,0,1-1.72,0,5.161,5.161,0,1,0-10.322,0c0,5.562,8.151,12.6,10.322,14.381,2.169-1.777,10.322-8.824,10.322-14.381a5.165,5.165,0,0,0-7.362-4.67.86.86,0,1,1-.734-1.555,6.884,6.884,0,0,1,9.816,6.226c0,7.222-11.048,15.8-11.518,16.164A.857.857,0,0,1,660.042,309.224Z" transform="translate(-648 -286)" fill="#fff"/>
  </g>
</svg>
