<svg xmlns="http://www.w3.org/2000/svg" width="24.08" height="24" viewBox="0 0 24.08 24">
  <path id="Path_1955" data-name="Path 1955" d="M-856.94,430.377a1.694,1.694,0,0,0-.545-1.227c-.248-.243-.506-.477-.751-.722-.648-.647-1.324-1.265-1.968-1.916-.183-.185-.38-.357-.566-.538-.924-.9-1.842-1.8-2.782-2.688a.286.286,0,0,1-.059-.407,6.934,6.934,0,0,0,.5-1.024,9.392,9.392,0,0,0,.549-5.346,9.106,9.106,0,0,0-.986-2.762,9.364,9.364,0,0,0-2.261-2.731,9,9,0,0,0-2.8-1.577,6.388,6.388,0,0,0-1.547-.374c-.34-.03-.682-.028-1.021-.066h-1.164c-.075.042-.157.015-.235.019a7.131,7.131,0,0,0-1.118.091,9.155,9.155,0,0,0-4.964,2.834,9.272,9.272,0,0,0-2.058,3.632,5.249,5.249,0,0,0-.239,1.241c-.015.284-.014.569-.055.851v1.164a.725.725,0,0,1,.019.275,7.709,7.709,0,0,0,.107,1.2,9.036,9.036,0,0,0,1.3,3.088,9.531,9.531,0,0,0,1.642,1.882,9.1,9.1,0,0,0,2.131,1.414,9.2,9.2,0,0,0,3.314.879,9.556,9.556,0,0,0,2.846-.2,8.762,8.762,0,0,0,2.41-.915.292.292,0,0,1,.411.055c.129.145.291.257.428.393.974.964,1.967,1.909,2.945,2.868.807.791,1.633,1.562,2.423,2.371.168.172.357.322.534.485a1.762,1.762,0,0,0,1.125.38h.562c.027-.026.062-.018.095-.02a1.9,1.9,0,0,0,1.757-1.653.7.7,0,0,1,.035-.254v-.6C-856.946,430.444-856.939,430.41-856.94,430.377Zm-14.8-6.6a5.554,5.554,0,0,1-5.535-5.541,5.55,5.55,0,0,1,5.538-5.517,5.566,5.566,0,0,1,5.534,5.53A5.568,5.568,0,0,1-871.738,423.78Z" transform="translate(881 -409)" fill="#ec1b23"/>
</svg>
