<svg xmlns="http://www.w3.org/2000/svg" width="21.898" height="21.485" viewBox="0 0 21.898 21.485">
  <g id="share_white" transform="translate(-492.809 -2883.414)">
    <path id="Path_2000" data-name="Path 2000" d="M88.346,22.7l-4.218-4.219a.677.677,0,0,0-.5-.209.766.766,0,0,0-.274.055.657.657,0,0,0-.429.648v2.109H81.172a17.95,17.95,0,0,0-2.159.121,11.645,11.645,0,0,0-1.752.335,7.132,7.132,0,0,0-1.368.533,5.851,5.851,0,0,0-1.038.676,4.284,4.284,0,0,0-.753.813,5.045,5.045,0,0,0-.516.9,5.174,5.174,0,0,0-.308.967,7.579,7.579,0,0,0-.154.989q-.038.461-.038,1a5.26,5.26,0,0,0,.192,1.341,8.743,8.743,0,0,0,.423,1.252q.231.527.544,1.093t.434.752q.121.186.231.341a.344.344,0,0,0,.286.143.6.6,0,0,0,.132-.022.339.339,0,0,0,.22-.373q-.494-3.691.813-5.2Q77.623,25.3,81.172,25.3H82.93v2.109a.657.657,0,0,0,.428.648.763.763,0,0,0,.274.055.654.654,0,0,0,.5-.209l4.219-4.219a.69.69,0,0,0,0-.989Z" transform="translate(425.445 2866.191)" fill="none" stroke="#fff" stroke-width="1.2"/>
    <path id="Path_2004" data-name="Path 2004" d="M21.186,73.823a.578.578,0,0,0-.508.629v2.659A1.737,1.737,0,0,1,19.156,79H2.538a1.737,1.737,0,0,1-1.523-1.888V62.119a1.737,1.737,0,0,1,1.523-1.888H6.049a.644.644,0,0,0,0-1.259H2.538c-1.4,0-2.537,1.41-2.538,3.146V77.111c0,1.737,1.137,3.144,2.538,3.146H19.156c1.4,0,2.537-1.41,2.538-3.146V74.452a.578.578,0,0,0-.508-.629Zm0,0" transform="translate(492.908 2824.542)" fill="#fff" stroke="#fff" stroke-width="0.2"/>
  </g>
</svg>
