<svg xmlns="http://www.w3.org/2000/svg" width="71" height="23.186" viewBox="0 0 71 23.186">
  <g id="Group_1109" data-name="Group 1109" transform="translate(-758.445 -1095.516)">
    <path id="Union_3" data-name="Union 3" d="M3.486,17.09a.492.492,0,0,1-.2-.488l.942-5.593L.154,7.06a.493.493,0,0,1-.129-.51.5.5,0,0,1,.4-.34l5.615-.835L8.536.281a.5.5,0,0,1,.894,0l2.527,5.08,5.615.8a.5.5,0,0,1,.4.34.488.488,0,0,1-.133.514L13.793,10.98l.972,5.56a.39.39,0,0,1,.015.115.5.5,0,0,1-.5.5.511.511,0,0,1-.229-.055L9.024,14.471,4.011,17.127a.473.473,0,0,1-.233.059A.493.493,0,0,1,3.486,17.09Z" transform="translate(758.445 1101.516)" fill="#d8dae3"/>
    <path id="Union_1" data-name="Union 1" d="M4.648,22.787a.656.656,0,0,1-.266-.65l1.256-7.458L.2,9.413a.658.658,0,0,1-.172-.68A.669.669,0,0,1,.569,8.28L8.057,7.167,11.382.374a.664.664,0,0,1,1.192,0l3.369,6.773L23.43,8.206a.669.669,0,0,1,.537.453.651.651,0,0,1-.177.685l-5.4,5.3,1.3,7.413a.52.52,0,0,1,.02.153.669.669,0,0,1-.665.665.681.681,0,0,1-.305-.074l-6.7-3.5L5.347,22.836a.631.631,0,0,1-.31.079A.657.657,0,0,1,4.648,22.787Z" transform="translate(782 1095.516)" fill="#f9b90f"/>
    <path id="Union_2" data-name="Union 2" d="M3.486,17.09a.492.492,0,0,1-.2-.488l.942-5.593L.154,7.06a.493.493,0,0,1-.129-.51.5.5,0,0,1,.4-.34l5.615-.835L8.536.281a.5.5,0,0,1,.894,0l2.527,5.08,5.615.8a.5.5,0,0,1,.4.34.488.488,0,0,1-.133.514L13.793,10.98l.972,5.56a.39.39,0,0,1,.015.115.5.5,0,0,1-.5.5.511.511,0,0,1-.229-.055L9.024,14.471,4.011,17.127a.473.473,0,0,1-.233.059A.493.493,0,0,1,3.486,17.09Z" transform="translate(811.445 1101.516)" fill="#d8dae3"/>
  </g>
</svg>
