<svg xmlns="http://www.w3.org/2000/svg" width="17.541" height="16.727" viewBox="0 0 17.541 16.727"><defs><style>.a{fill:#ffb500;}</style></defs><g transform="translate(0 0)"><path class="a" d="M66.675,21.734l-5.682-.527-2.257-5.241a.455.455,0,0,0-.836,0l-2.257,5.241-5.682.527a.455.455,0,0,0-.258.8L53.99,26.3l-1.255,5.566a.455.455,0,0,0,.677.492l4.906-2.913,4.906,2.913a.455.455,0,0,0,.677-.492L62.646,26.3l4.287-3.766A.455.455,0,0,0,66.675,21.734Z" transform="translate(-49.548 -15.692)"/></g></svg>