<svg xmlns="http://www.w3.org/2000/svg" width="62.406" height="57.515" viewBox="0 0 62.406 57.515">
  <g id="Group_1170" data-name="Group 1170" transform="translate(0.5 0.5)">
    <g id="Group_1170-2" data-name="Group 1170">
      <path id="Path_2007" data-name="Path 2007" d="M791.282,275.41a1.97,1.97,0,1,0,1.971,1.97A1.973,1.973,0,0,0,791.282,275.41Z" transform="translate(-747.55 -233.794)" fill="#ff7176" stroke="rgba(0,0,0,0)" stroke-width="1"/>
      <path id="Path_2008" data-name="Path 2008" d="M791.282,270.83a1.97,1.97,0,1,0,1.971,1.969A1.972,1.972,0,0,0,791.282,270.83Z" transform="translate(-747.55 -237.736)" fill="#ff7176" stroke="rgba(0,0,0,0)" stroke-width="1"/>
      <path id="Path_2009" data-name="Path 2009" d="M828.274,294.074a1.976,1.976,0,0,0-1.576-1.931,4.118,4.118,0,0,1,0-8.07,1.976,1.976,0,0,0,1.576-1.931v-6.209A9.285,9.285,0,0,0,819,266.657H776.143a16.264,16.264,0,0,0-1.955.21,10.169,10.169,0,0,0-3.249,1.038,3.913,3.913,0,0,1,1.721-1.516,11.528,11.528,0,0,1,2.317-.765l38.075-8.533a4.757,4.757,0,0,1,5.346,2.715A1.971,1.971,0,1,0,822,258.211a8.689,8.689,0,0,0-9.793-4.968l-38.1,8.537a9.275,9.275,0,0,0-7.247,9.05v11.311a1.977,1.977,0,0,0,1.58,1.931,4.119,4.119,0,0,1,0,8.07,1.978,1.978,0,0,0-1.576,1.931v6.209a9.287,9.287,0,0,0,9.276,9.276H819a9.286,9.286,0,0,0,9.274-9.276Zm-3.939,6.209A5.34,5.34,0,0,1,819,305.618h-6.431v-.465a1.971,1.971,0,0,0-3.941,0v.465H776.143a5.341,5.341,0,0,1-5.336-5.335v-4.769l.266-.125a8.058,8.058,0,0,0,0-14.562l-.266-.127v-4.769a5.342,5.342,0,0,1,5.336-5.337h32.486v.465a1.971,1.971,0,0,0,3.941,0V270.6H819a5.342,5.342,0,0,1,5.335,5.337V280.7l-.266.127a8.06,8.06,0,0,0,0,14.562l.266.125Z" transform="translate(-766.867 -253.044)" fill="#ff7176" stroke="rgba(0,0,0,0)" stroke-width="1"/>
      <path id="Path_2010" data-name="Path 2010" d="M791.282,266.249a1.97,1.97,0,1,0,1.971,1.97A1.973,1.973,0,0,0,791.282,266.249Z" transform="translate(-747.55 -241.679)" fill="#ff7176" stroke="rgba(0,0,0,0)" stroke-width="1"/>
    </g>
    <path id="Path_2011" data-name="Path 2011" d="M784.181,282.074l-4.393,2.311a.736.736,0,0,1-1.068-.776l.839-4.894a.738.738,0,0,0-.212-.651l-3.554-3.465a.736.736,0,0,1,.407-1.256l4.912-.713a.739.739,0,0,0,.555-.4l2.2-4.451a.737.737,0,0,1,1.321,0l2.2,4.451a.736.736,0,0,0,.553.4l4.914.713a.736.736,0,0,1,.407,1.256l-3.556,3.465a.737.737,0,0,0-.21.651l.839,4.894a.737.737,0,0,1-1.068.776l-4.395-2.311A.742.742,0,0,0,784.181,282.074Z" transform="translate(-759.378 -240.717)" fill="#ff7176" stroke="#ff7176" stroke-miterlimit="10" stroke-width="1.5"/>
  </g>
</svg>
