<svg xmlns="http://www.w3.org/2000/svg" width="58.885" height="58.845" viewBox="0 0 58.885 58.845">
  <path id="user" d="M48.541,8.369A28.434,28.434,0,0,0,1.687,38.127a1.157,1.157,0,0,0,2.178-.785,26.12,26.12,0,1,1,43.5,9.117l-.166.177c-.1.1-.2.209-.3.311a26.151,26.151,0,0,1-36.941,0c-.054-.054-.107-.109-.159-.165,0-.107-.005-.212-.005-.316q0-.35.013-.7c0-.077.009-.154.013-.231.008-.154.015-.307.026-.46.007-.091.017-.182.025-.272.012-.138.024-.276.039-.413.011-.1.024-.193.037-.289.016-.13.032-.261.051-.39.015-.1.032-.2.048-.295.021-.126.041-.253.064-.378.018-.1.039-.2.059-.3.025-.123.049-.247.077-.369.022-.1.047-.2.071-.3.029-.121.058-.241.089-.361.026-.1.054-.2.082-.3.033-.118.066-.236.1-.354.03-.1.061-.2.092-.294.037-.116.074-.232.113-.347.033-.1.068-.193.1-.29.041-.114.082-.228.126-.342.037-.1.075-.191.113-.286.045-.112.09-.224.137-.335.04-.095.081-.188.123-.282.049-.11.1-.22.149-.329q.065-.139.133-.277.079-.162.161-.323.07-.136.142-.271.085-.16.173-.318.074-.133.151-.265.091-.157.185-.312.079-.13.16-.259.1-.153.2-.3.083-.127.168-.253c.068-.1.138-.2.208-.3.058-.082.117-.165.177-.246.072-.1.145-.2.219-.291.061-.08.122-.16.185-.239.076-.1.153-.191.231-.285.063-.077.127-.154.192-.231.08-.094.161-.186.243-.278.066-.074.132-.149.2-.222.084-.091.169-.181.255-.271.068-.072.136-.144.206-.214.088-.089.177-.176.267-.264.07-.068.14-.138.211-.205.092-.087.187-.172.28-.258.072-.065.143-.131.215-.195.1-.085.2-.168.3-.252.073-.061.144-.123.218-.183.1-.084.207-.165.312-.247.073-.057.145-.115.218-.171.11-.084.223-.164.335-.245.071-.051.14-.1.212-.154.124-.087.251-.171.377-.255.062-.041.123-.084.186-.125.165-.107.332-.211.5-.313l.078-.049q.293-.175.593-.341c.068-.038.139-.073.208-.11.133-.071.265-.143.4-.21.087-.044.175-.084.263-.127.11-.053.22-.107.332-.159a11.263,11.263,0,0,0,15.6,0A18.847,18.847,0,0,1,45.5,38.973a1.157,1.157,0,1,0,2.118-.932,20.864,20.864,0,0,0-9.841-10.32,11.291,11.291,0,0,0-9.344-17.65,1.157,1.157,0,1,0,0,2.315,8.978,8.978,0,0,1,6.671,15h0a8.956,8.956,0,0,1-13.341,0h0a8.969,8.969,0,0,1,.348-12.4,1.157,1.157,0,0,0-1.628-1.646,11.28,11.28,0,0,0-1.4,14.376l-.034.018c-.09.045-.178.093-.268.139-.137.071-.275.142-.41.215-.1.052-.189.107-.284.16-.126.072-.253.143-.377.217-.1.057-.192.117-.287.176-.12.074-.239.147-.357.223-.1.062-.191.126-.286.189-.114.076-.229.153-.341.231-.095.066-.188.133-.282.2-.11.079-.22.159-.328.24-.093.07-.184.14-.276.211s-.211.165-.316.25-.18.147-.269.221-.2.172-.3.26-.174.152-.26.23-.2.18-.295.271-.168.157-.251.237-.191.187-.285.282-.161.161-.24.243c-.094.1-.185.2-.277.295-.077.083-.154.165-.229.249-.092.1-.181.206-.27.309-.072.083-.144.166-.215.25-.091.109-.179.219-.267.33-.066.082-.133.163-.2.246-.093.12-.183.241-.273.363-.057.076-.115.151-.171.229-.114.158-.225.319-.334.48-.029.042-.059.084-.088.126q-.2.306-.4.618c-.045.072-.086.145-.13.218-.084.139-.167.277-.248.418-.05.088-.1.177-.146.266-.07.127-.141.254-.209.383-.05.1-.1.192-.146.288-.063.124-.126.248-.186.374-.048.1-.094.2-.14.3-.057.124-.114.248-.169.373-.045.1-.088.207-.132.311-.052.125-.1.25-.154.375-.042.106-.082.212-.122.318-.047.126-.094.252-.139.38-.038.108-.075.216-.112.325q-.065.191-.125.384-.052.164-.1.329-.058.195-.112.391-.046.165-.089.332c-.034.132-.067.265-.1.4-.026.111-.053.222-.077.333-.03.135-.057.27-.084.406-.022.111-.045.222-.065.334-.025.138-.048.278-.071.417-.018.11-.036.22-.052.33-.021.144-.039.289-.057.433-.013.107-.028.214-.04.322-.017.152-.029.3-.043.457-.009.1-.019.2-.027.305-.012.17-.02.341-.029.513,0,.085-.01.17-.014.255q-.014.385-.014.774c0,.279.009.544.021.836a1.183,1.183,0,0,0,.026.2c0,.005,0,.01,0,.015a1.141,1.141,0,0,0,.058.182l.007.017a1.151,1.151,0,0,0,.088.166L7.7,47.9a1.177,1.177,0,0,0,.115.145l.008.011.153.163c.115.123.231.247.351.367a28.468,28.468,0,0,0,40.214,0c.12-.12.236-.243.351-.367l.153-.163a28.432,28.432,0,0,0-.5-39.685Z" transform="translate(1.02 0.946)" fill="#ff7176" stroke="#ff7176" stroke-width="2"/>
</svg>
