<svg xmlns="http://www.w3.org/2000/svg" width="57.947" height="57.949" viewBox="0 0 57.947 57.949">
  <g id="Group_1169" data-name="Group 1169" transform="translate(0.5 0.5)">
    <g id="Group_1168" data-name="Group 1168">
      <g id="Group_1167" data-name="Group 1167">
        <g id="Group_1166" data-name="Group 1166">
          <path id="Path_2005" data-name="Path 2005" d="M803.514,248.61a2.225,2.225,0,0,0,2.225-2.225v-23.58a8.908,8.908,0,0,0-8.9-8.9h-2.893v-2.225a2.225,2.225,0,1,0-4.45,0v2.225h-10.12v-2.225a2.225,2.225,0,1,0-4.45,0v2.225h-10.01v-2.225a2.225,2.225,0,1,0-4.45,0v2.225h-2.78a8.908,8.908,0,0,0-8.9,8.9v34.7a8.908,8.908,0,0,0,8.9,8.9h39.152a8.908,8.908,0,0,0,8.9-8.9,2.225,2.225,0,0,0-4.45,0,4.454,4.454,0,0,1-4.448,4.45H757.69a4.454,4.454,0,0,1-4.45-4.45v-34.7a4.454,4.454,0,0,1,4.45-4.448h2.78v2.225a2.225,2.225,0,0,0,4.45,0v-2.225h10.01v2.225a2.225,2.225,0,0,0,4.45,0v-2.225H789.5v2.225a2.225,2.225,0,0,0,4.45,0v-2.225h2.893a4.453,4.453,0,0,1,4.448,4.448v23.58A2.225,2.225,0,0,0,803.514,248.61Z" transform="translate(-748.792 -209.458)" fill="#ff7176" stroke="rgba(0,0,0,0)" stroke-width="1"/>
        </g>
      </g>
    </g>
    <path id="Path_2006" data-name="Path 2006" d="M767.631,236.736l-4.584,2.411a.768.768,0,0,1-1.114-.81l.875-5.106a.769.769,0,0,0-.221-.68l-3.708-3.615a.768.768,0,0,1,.425-1.31l5.125-.744a.771.771,0,0,0,.579-.421l2.293-4.644a.767.767,0,0,1,1.376,0l2.293,4.644a.768.768,0,0,0,.578.421l5.125.744a.768.768,0,0,1,.425,1.31l-3.71,3.615a.768.768,0,0,0-.219.68l.875,5.106a.769.769,0,0,1-1.114.81l-4.586-2.411A.774.774,0,0,0,767.631,236.736Z" transform="translate(-739.516 -198.225)" fill="#ff7176" stroke="#ff7176" stroke-miterlimit="10" stroke-width="2"/>
  </g>
</svg>
