<svg xmlns="http://www.w3.org/2000/svg" width="22.779" height="30.272" viewBox="0 0 22.779 30.272"><defs><style>.a{fill:#ec1b23;stroke:#ec1b23;stroke-width:0.3px;}</style></defs><g transform="translate(0.15 0.15)"><g transform="translate(0)"><path class="a" d="M86.3,6.427,80.05.183A.624.624,0,0,0,79.608,0H66.5A2.5,2.5,0,0,0,64,2.5V27.475a2.5,2.5,0,0,0,2.5,2.5H83.982a2.5,2.5,0,0,0,2.5-2.5V6.869A.624.624,0,0,0,86.3,6.427ZM85.23,27.475a1.25,1.25,0,0,1-1.249,1.249H66.5a1.25,1.25,0,0,1-1.249-1.249V2.5A1.25,1.25,0,0,1,66.5,1.249H79.35L85.23,7.127Z" transform="translate(-64)"/><path class="a" d="M128,193.873v11.24a1.875,1.875,0,0,0,1.873,1.873h11.24a1.875,1.875,0,0,0,1.873-1.873v-11.24A1.875,1.875,0,0,0,141.113,192h-11.24A1.875,1.875,0,0,0,128,193.873Zm4.371,11.864h-2.5a.625.625,0,0,1-.624-.624v-2.5h3.122v3.122Zm5,0H133.62v-3.122h3.747Zm4.371-.624a.625.625,0,0,1-.624.624h-2.5v-3.747a.624.624,0,0,0-.624-.624h-8.742V197.62h12.488v7.493Zm-3.122-11.864h2.5a.625.625,0,0,1,.624.624v2.5h-3.122v-3.122Zm-5,0h3.747v3.122H133.62Zm-1.249,3.122h-3.122v-2.5a.625.625,0,0,1,.624-.624h2.5v3.122Z" transform="translate(-124.253 -180.76)"/></g></g></svg>