<svg id="austallia" xmlns="http://www.w3.org/2000/svg" width="640" height="480" viewBox="0 0 640 480">
  <path id="Path_20838" data-name="Path 20838" d="M0,0H640V480H0Z" fill="#006"/>
  <path id="Path_20839" data-name="Path 20839" d="M0,0V27.95L307.037,250h38.647V222.05L38.647,0ZM345.684,0V27.95L38.647,250H0V222.05L307.037,0Z" fill="#fff"/>
  <path id="Path_20840" data-name="Path 20840" d="M144.035,0V250h57.614V0H144.034ZM0,83.333v83.333H345.684V83.333Z" fill="#fff"/>
  <path id="Path_20841" data-name="Path 20841" d="M0,100v50H345.684V100ZM155.558,0V250h34.568V0H155.558ZM0,250l115.228-83.334h25.765L25.765,250ZM0,0,115.228,83.333H89.463L0,18.633ZM204.69,83.333,319.92,0h25.764L230.456,83.333ZM345.685,250,230.457,166.666h25.765l89.464,64.7V250Z" fill="#c00"/>
  <path id="Path_20842" data-name="Path 20842" d="M299.762,392.523l-43.653,3.8,6.013,43.406L231.935,407.96l-30.186,31.764,6.014-43.406-43.653-3.8,37.68-22.364-24.244-36.495,40.97,15.514,13.42-41.713,13.42,41.712,40.97-15.515-24.242,36.494m224.444,62.372-10.537-15.854,17.81,6.742,5.824-18.125,5.825,18.126,17.807-6.742L512.72,432.529l16.37,9.718-18.965,1.65,2.616,18.85-13.116-13.793-13.117,13.794,2.616-18.85-18.964-1.65m16.368-291.815-10.537-15.856,17.81,6.742,5.824-18.122,5.825,18.12,17.807-6.74L512.72,150.432l16.37,9.717-18.965,1.65,2.616,18.85-13.116-13.793L486.508,180.65l2.616-18.85-18.964-1.65M380.742,265.033,370.205,249.18l17.808,6.742,5.825-18.125,5.825,18.125,17.808-6.742-10.536,15.853,16.37,9.72L404.34,276.4l2.615,18.85-13.117-13.8-13.117,13.8,2.617-18.85-18.964-1.65m216.212-37.929L570.028,220.97l17.822,6.742,5.782-18.125,5.854,18.125,17.772-6.742L606.75,236.824l16.362,9.718-18.97,1.65,2.608,18.85-13.118-13.793-13.117,13.793,2.61-18.85-18.936-1.65m-22.251,73.394-10.367,6.425,2.914-11.84-9.316-7.863,12.165-.9,4.6-11.29,4.606,11.29,12.165.9-9.317,7.863,2.912,11.84" fill="#fff" fill-rule="evenodd"/>
</svg>
