<svg xmlns="http://www.w3.org/2000/svg" width="679.266" height="480" viewBox="0 0 679.266 480">
  <g id="canada" transform="translate(93.75)">
    <path id="Path_20967" data-name="Path 20967" d="M76.066,0H415.7V480H76.066Z" fill="#fff"/>
    <path id="Path_20968" data-name="Path 20968" d="M-93.75,0H76.067V480H-93.75ZM415.7,0H585.516V480H415.7ZM126.853,231.947l-13.188,4.507L175.03,290.31c4.641,13.841-1.613,17.921-5.6,25.181l66.619-8.456-1.734,67.042,13.8-.4L245.107,307.2l66.684,7.9c-4.127-8.716-7.8-13.343-3.982-27.279L369.135,236.8,358.4,232.912c-8.775-6.771,3.791-32.61,5.687-48.917,0,0-35.808,12.314-38.154,5.871l-9.119-17.517-32.575,35.784c-3.559.853-5.075-.562-5.91-3.57l15.05-74.781-23.831,13.4c-1.995.853-3.99.117-5.3-2.208L241.324,94.984l-23.634,47.766c-1.781,1.712-3.565,1.91-5.046.746l-22.691-12.729,13.622,74.2c-1.084,2.944-3.679,3.773-6.731,2.179L165.7,171.763c-4.073,6.527-6.834,17.19-12.218,19.58-5.385,2.238-23.419-4.522-35.506-7.16,4.129,14.9,17.04,39.658,8.869,47.772Z" fill="#bf0a30"/>
  </g>
</svg>
