<svg xmlns="http://www.w3.org/2000/svg" xmlns:xlink="http://www.w3.org/1999/xlink" width="640.003" height="480" viewBox="0 0 640.003 480">
  <defs>
    <clipPath id="clip-path">
      <path id="Path_20966" data-name="Path 20966" d="M0,0H640V480H0Z" fill="rgba(0,0,0,0.67)"/>
    </clipPath>
  </defs>
  <g id="british" clip-path="url(#clip-path)">
    <path id="Path_20843" data-name="Path 20843" d="M0,0H960V480H0Z" fill="#fff" fill-rule="evenodd"/>
    <path id="Path_20844" data-name="Path 20844" d="M960,417.412c-10.757,6.472-20,21.6-48.576,21.6-57.138,0-71.426-31.842-114.281-31.842-28.569,0-42.855,31.842-71.425,31.842-57.143,0-71.429-31.842-114.281-31.842-28.572,0-42.858,31.842-71.429,31.842-57.143,0-71.429-31.842-114.281-31.842-28.572,0-42.858,31.842-71.429,31.842-57.142,0-71.429-31.842-114.281-31.842-28.573,0-42.858,31.842-71.429,31.842-57.142,0-71.43-31.842-114.291-31.842-28.571,0-37.143,22.69-54.286,22.69V470.85c17.143,0,25.714-22.687,54.286-22.687,42.858,0,57.145,31.837,114.281,31.837,28.571,0,42.856-31.842,71.429-31.842,42.856,0,57.142,31.842,114.281,31.842,28.571,0,42.857-31.842,71.429-31.842C468.574,448.158,482.859,480,540,480c28.571,0,42.857-31.842,71.429-31.842,42.857,0,57.143,31.842,114.281,31.842,28.571,0,42.857-31.842,71.425-31.842,42.858,0,57.146,31.842,114.281,31.842,28.577,0,37.819-9.023,48.576-15.495v-47.1Zm0-79.612c-10.757,6.472-20,21.6-48.576,21.6-57.138,0-71.426-31.842-114.281-31.842-28.569,0-42.855,31.842-71.425,31.842-57.143,0-71.429-31.842-114.281-31.842-28.572,0-42.858,31.842-71.429,31.842-57.143,0-71.429-31.842-114.281-31.842-28.572,0-42.858,31.842-71.429,31.842-57.142,0-71.429-31.842-114.281-31.842-28.573,0-42.858,31.842-71.429,31.842-57.142,0-71.43-31.842-114.291-31.842-28.571,0-37.143,22.69-54.286,22.69v40.994c17.143.009,25.714-22.688,54.286-22.688,42.857,0,57.143,31.842,114.291,31.842,28.571,0,42.856-31.842,71.429-31.842,42.856,0,57.143,31.842,114.281,31.842,28.571,0,42.857-31.842,71.429-31.842,42.857,0,57.142,31.842,114.281,31.842,28.571,0,42.857-31.842,71.429-31.842,42.857,0,57.143,31.842,114.281,31.842,28.571,0,42.857-31.842,71.425-31.842,42.858,0,57.146,31.842,114.281,31.842,28.577,0,37.819-9.023,48.576-15.495V337.8Zm0-79.6c-10.757,6.472-20,21.6-48.576,21.6-57.138,0-71.426-31.842-114.281-31.842-28.569,0-42.855,31.842-71.425,31.842-57.143,0-71.429-31.842-114.281-31.842-28.572,0-42.858,31.842-71.429,31.842-57.143,0-71.429-31.842-114.281-31.842-28.572,0-42.858,31.842-71.429,31.842-57.142,0-71.429-31.842-114.281-31.842-28.573,0-42.858,31.842-71.429,31.842-57.142,0-71.43-31.842-114.291-31.842-28.571,0-37.143,22.69-54.286,22.69v40.994c17.143,0,25.714-22.687,54.286-22.687,42.857,0,57.143,31.842,114.291,31.842,28.571,0,42.856-31.842,71.429-31.842,42.856,0,57.143,31.842,114.281,31.842,28.571,0,42.857-31.842,71.429-31.842,42.857,0,57.142,31.842,114.281,31.842,28.571,0,42.857-31.842,71.429-31.842,42.857,0,57.143,31.842,114.281,31.842,28.571,0,42.857-31.842,71.425-31.842,42.858,0,57.146,31.842,114.281,31.842,28.577,0,37.819-9.023,48.576-15.5V258.2Zm0-79.6c-10.757,6.472-20,21.6-48.576,21.6-57.138,0-71.426-31.842-114.281-31.842-28.569,0-42.855,31.842-71.425,31.842-57.143,0-71.429-31.842-114.281-31.842-28.572,0-42.858,31.842-71.429,31.842-57.143,0-71.429-31.842-114.281-31.842-28.572,0-42.858,31.842-71.429,31.842-57.142,0-71.429-31.842-114.281-31.842-28.573,0-42.858,31.842-71.429,31.842-57.142,0-71.43-31.842-114.291-31.842-28.571,0-37.143,22.69-54.286,22.69v40.994c17.143,0,25.714-22.687,54.286-22.687,42.857,0,57.143,31.842,114.291,31.842,28.571,0,42.856-31.842,71.429-31.842,42.856,0,57.143,31.842,114.281,31.842,28.571,0,42.857-31.842,71.429-31.842,42.857,0,57.142,31.842,114.281,31.842,28.571,0,42.857-31.842,71.429-31.842,42.857,0,57.143,31.842,114.281,31.842,28.571,0,42.857-31.842,71.425-31.842,42.858,0,57.146,31.842,114.281,31.842,28.577,0,37.819-9.023,48.576-15.495V178.6Zm0-79.6c-10.757,6.472-20,21.6-48.576,21.6-57.138,0-71.426-31.842-114.281-31.842-28.569,0-42.855,31.842-71.425,31.842-57.143,0-71.429-31.842-114.281-31.842-28.572,0-42.858,31.842-71.429,31.842-57.143,0-71.429-31.842-114.281-31.842-28.572,0-42.858,31.842-71.429,31.842-57.142,0-71.429-31.842-114.281-31.842-28.573,0-42.858,31.842-71.429,31.842-57.142,0-71.43-31.842-114.291-31.842-28.585,0-37.157,22.688-54.3,22.688v40.994c17.143,0,25.714-22.69,54.286-22.69,42.857,0,57.143,31.842,114.291,31.842,28.571,0,42.856-31.842,71.429-31.842,42.856,0,57.142,31.842,114.281,31.842,28.571,0,42.857-31.842,71.429-31.842,42.857,0,57.142,31.842,114.281,31.842,28.571,0,42.857-31.842,71.429-31.842,42.857,0,57.143,31.842,114.281,31.842,28.571,0,42.857-31.842,71.425-31.842,42.858,0,57.146,31.842,114.281,31.842,28.577,0,37.819-9.023,48.576-15.495v-47.1Zm0-79.608c-10.757,6.472-20,21.6-48.576,21.6C854.286,40.978,840,9.136,797.143,9.136c-28.569,0-42.855,31.842-71.425,31.842-57.143,0-71.429-31.842-114.281-31.842-28.572,0-42.858,31.842-71.429,31.842-57.143,0-71.429-31.842-114.281-31.842-28.572,0-42.858,31.842-71.429,31.842-57.142,0-71.429-31.842-114.281-31.842-28.573,0-42.858,31.842-71.429,31.842-57.142,0-71.43-31.842-114.291-31.842-28.585,0-37.157,22.69-54.3,22.69V72.82c17.143,0,25.714-22.69,54.286-22.69,42.857,0,57.143,31.842,114.291,31.842,28.571,0,42.856-31.842,71.429-31.842,42.856,0,57.142,31.842,114.281,31.842,28.571,0,42.857-31.842,71.429-31.842,42.857,0,57.142,31.842,114.281,31.842,28.571,0,42.857-31.842,71.429-31.842,42.857,0,57.143,31.842,114.281,31.842,28.571,0,42.857-31.842,71.425-31.842,42.858,0,57.146,31.842,114.281,31.842,28.577,0,37.819-9.023,48.576-15.5v-47.1Z" fill="#000063" fill-rule="evenodd"/>
    <path id="Path_20845" data-name="Path 20845" d="M0,.059H244.978V148.1H0Z" fill="#000063" fill-rule="evenodd"/>
    <g id="Group_7351" data-name="Group 7351">
      <path id="Path_20846" data-name="Path 20846" d="M0,.059V16.61L217.591,148.1H244.98V131.546L27.389.06H0Zm244.98,0V16.61L27.389,148.1H0V131.544L217.591.06H244.98Z" fill="#fff"/>
      <path id="Path_20847" data-name="Path 20847" d="M102.075.059V148.1H142.9V.059ZM0,49.4V98.75H244.98V49.4Z" fill="#fff"/>
      <path id="Path_20848" data-name="Path 20848" d="M0,59.273V88.881H244.98V59.274H0ZM110.241.059V148.1h24.5V.059ZM0,148.1,81.66,98.75H99.919L18.259,148.1ZM0,.059,81.66,49.4H63.4L0,11.093ZM145.061,49.4,226.721.059H244.98L163.32,49.4H145.061Zm99.919,98.691L163.32,98.75h18.259l63.4,38.312V148.1Z" fill="#c00"/>
    </g>
    <path id="Path_20849" data-name="Path 20849" d="M157.695-138.411l-3.429,325.674c0,17.141,15.5,17.141,17.141,0l-3.428-325.674H157.694Z" transform="translate(198.406 250.721)" fill="#a24300" stroke="#fff" stroke-width="2.068" fill-rule="evenodd"/>
    <path id="Path_20850" data-name="Path 20850" d="M391.592,233.341,380.806,221.5l-2.662,11.957-4.685-17.315-4.382,8.718L368.3,206.43l-4.382,8.718-.776-18.435-4.382,8.718-2.495-21.674-4.382,8.718L349.391,170.8l-4.382,8.718-2.495-21.674-1.248-10.837,2.191-4.36,5.629,2.12,9.067,8.6,18.134,17.194-11.258-4.238,18.134,17.194-11.258-4.238,18.134,17.194-11.258-4.238L395.2,206.188,383.94,201.95l16.415,13.955L389.1,211.667,401.6,226.742l-12.977-7.477,2.966,14.076Z" fill="#006d00" stroke="#fff" stroke-width="7.734" fill-rule="evenodd"/>
    <path id="Path_20851" data-name="Path 20851" d="M391.592,233.341l-48.134-90.692m32.829,27.911L350.334,155.6l-5.326,23.914" fill="none" stroke="#000" stroke-width="1.25"/>
    <path id="Path_20852" data-name="Path 20852" d="M383.163,183.516,357.21,168.562l-5.325,23.914" fill="none" stroke="#000" stroke-width="1.25"/>
    <path id="Path_20853" data-name="Path 20853" d="M390.039,196.471l-25.954-14.954-5.325,23.914" fill="none" stroke="#000" stroke-width="1.25"/>
    <path id="Path_20854" data-name="Path 20854" d="M395.2,206.188l-24.235-11.715-7.044,20.675" fill="none" stroke="#000" stroke-width="1.25"/>
    <path id="Path_20855" data-name="Path 20855" d="M400.353,215.9,376.119,204.19l-7.044,20.675" fill="none" stroke="#000" stroke-width="1.25"/>
    <path id="Path_20856" data-name="Path 20856" d="M401.6,226.741l-22.044-16.074-1.415,22.794" fill="none" stroke="#000" stroke-width="1.25"/>
    <path id="Path_20857" data-name="Path 20857" d="M265.22,78.753l17.608,6.714-5.12-13.315L293.1,87.32l-1.453-10.884L304.1,94.613,302.649,83.73,315.1,101.907,313.65,91.024l16.12,20.609-1.453-10.884,16.12,20.609-1.453-10.884,16.12,20.609,8.06,10.3.727,5.442-6.608.579-13.941-4.283-27.882-8.567,13.214-1.159-27.882-8.567,13.214-1.159-27.882-8.567,13.214-1.159-24.215-6.135,13.214-1.159-24.215-6.135,13.214-1.159-21.275-9.146,16.881,1.273L265.22,78.753Z" fill="#006d00" stroke="#fff" stroke-width="7.734" fill-rule="evenodd"/>
    <path id="Path_20858" data-name="Path 20858" d="M265.22,78.753,367.893,146.83m-48.43-12.272,33.761,2.546-10.239-26.631" fill="none" stroke="#000" stroke-width="1.25"/>
    <path id="Path_20859" data-name="Path 20859" d="M304.8,124.832l33.762,2.545-10.24-26.63" fill="none" stroke="#000" stroke-width="1.25"/>
    <path id="Path_20860" data-name="Path 20860" d="M290.129,115.108l33.762,2.545-10.24-26.63" fill="none" stroke="#000" stroke-width="1.25"/>
    <path id="Path_20861" data-name="Path 20861" d="M279.129,107.814l30.1.114-6.573-24.2" fill="none" stroke="#000" stroke-width="1.25"/>
    <path id="Path_20862" data-name="Path 20862" d="M268.128,100.52l30.1.114-6.573-24.2" fill="none" stroke="#000" stroke-width="1.25"/>
    <path id="Path_20863" data-name="Path 20863" d="M260.067,90.217l30.822,5.556-13.18-23.62" fill="none" stroke="#000" stroke-width="1.25"/>
    <path id="Path_20864" data-name="Path 20864" d="M469.886,101.5l-14.669,10.73,16.186,1.8-22.578,5.355,12.047,3.588-24.463,1.774,12.047,3.588-24.463,1.774,12.047,3.588-28.6,3.561,12.047,3.588-28.6,3.561,12.047,3.588-28.6,3.561-14.3,1.781-6.025-1.794,2.254-5.369,10.531-8.942,21.061-17.885-4.507,10.736L404.406,112.2,399.9,122.932l21.061-17.885-4.507,10.736,16.922-16.1-4.507,10.736,16.922-16.1-4.507,10.736,18.808-12.517-8.645,12.523,18.439-3.568Z" fill="#006d00" stroke="#fff" stroke-width="7.734" fill-rule="evenodd"/>
    <path id="Path_20865" data-name="Path 20865" d="M469.886,101.5,354.006,151.54m33.846-32.195-17.291,25.046,32.372,3.6" fill="none" stroke="#000" stroke-width="1.25"/>
    <path id="Path_20866" data-name="Path 20866" d="M404.407,112.2l-17.291,25.047,32.372,3.6" fill="none" stroke="#000" stroke-width="1.25"/>
    <path id="Path_20867" data-name="Path 20867" d="M420.96,105.048,403.669,130.1l32.372,3.6" fill="none" stroke="#000" stroke-width="1.25"/>
    <path id="Path_20868" data-name="Path 20868" d="M433.376,99.687l-13.152,23.26,28.233,5.388" fill="none" stroke="#000" stroke-width="1.25"/>
    <path id="Path_20869" data-name="Path 20869" d="M445.791,94.325,432.64,117.585l28.233,5.388" fill="none" stroke="#000" stroke-width="1.25"/>
    <path id="Path_20870" data-name="Path 20870" d="M460.092,92.544l-19.176,21.466,30.487.02" fill="none" stroke="#000" stroke-width="1.25"/>
    <g id="Group_7352" data-name="Group 7352">
      <path id="Path_20871" data-name="Path 20871" d="M467.523,209.85l-18.254-5.291,6.528,12.853L438.84,203.528l2.615,10.722L427.1,197.137l2.615,10.722-14.352-17.114,2.615,10.722-18.265-19.244,2.615,10.722L384.067,173.7l2.615,10.722-18.265-19.244-9.133-9.622-1.308-5.362,6.518-1.1,14.342,3.161,28.683,6.322-13.034,2.2,28.683,6.322-13.034,2.2,28.683,6.322-13.034,2.2,24.771,4.191-13.034,2.2,24.771,4.191-13.034,2.2,22.166,7.422-16.946.07,13.044,11.753Z" fill="#006d00" stroke="#fff" stroke-width="7.734" fill-rule="evenodd"/>
      <path id="Path_20872" data-name="Path 20872" d="M467.523,209.85,357.977,150.2m49.542,8.384-33.892.139,13.055,25.706" fill="none" stroke="#000" stroke-width="1.25"/>
      <path id="Path_20873" data-name="Path 20873" d="M423.169,167.1l-33.893.14,13.055,25.706" fill="none" stroke="#000" stroke-width="1.25"/>
      <path id="Path_20874" data-name="Path 20874" d="M438.817,175.623l-33.893.14,13.055,25.706" fill="none" stroke="#000" stroke-width="1.25"/>
      <path id="Path_20875" data-name="Path 20875" d="M450.554,182.014l-29.98,2.27,9.143,23.575" fill="none" stroke="#000" stroke-width="1.25"/>
      <path id="Path_20876" data-name="Path 20876" d="M462.291,188.406l-29.98,2.27,9.143,23.575" fill="none" stroke="#000" stroke-width="1.25"/>
      <path id="Path_20877" data-name="Path 20877" d="M471.424,198.027l-31.288-3.091,15.66,22.475" fill="none" stroke="#000" stroke-width="1.25"/>
    </g>
    <g id="Group_7353" data-name="Group 7353">
      <path id="Path_20878" data-name="Path 20878" d="M277.316,216.193l9.162-12.807L272.505,205.4l17.263-9.8-11.037-.5,19.845-7.039-11.037-.5,19.845-7.04-11.037-.5,22.782-9.551-11.037-.5,22.782-9.551-11.037-.5,22.782-9.551,11.391-4.776,5.519.248-.354,5.272-6.227,10.3L340.5,182.019l.708-10.543-12.453,20.591.708-10.543-12.453,20.591.708-10.543L308.2,209.649l.708-10.543-9.516,18.079.708-10.543L288,221.961l3.644-13.055-14.327,7.287Z" fill="#006d00" stroke="#fff" stroke-width="7.734" fill-rule="evenodd"/>
      <path id="Path_20879" data-name="Path 20879" d="M277.316,216.193l82.214-70.332M340.5,182.018l7.289-26.109-27.947,4.031" fill="none" stroke="#000" stroke-width="1.25"/>
      <path id="Path_20880" data-name="Path 20880" d="M328.751,192.066l7.288-26.11-27.946,4.032" fill="none" stroke="#000" stroke-width="1.25"/>
      <path id="Path_20881" data-name="Path 20881" d="M317.007,202.112,324.3,176l-27.946,4.032" fill="none" stroke="#000" stroke-width="1.25"/>
      <path id="Path_20882" data-name="Path 20882" d="M308.2,209.648l4.352-23.6-25.01,1.52" fill="none" stroke="#000" stroke-width="1.25"/>
      <path id="Path_20883" data-name="Path 20883" d="M299.39,217.183l4.352-23.6-25.01,1.52" fill="none" stroke="#000" stroke-width="1.25"/>
      <path id="Path_20884" data-name="Path 20884" d="M288,221.96l9.87-23.35L272.506,205.4" fill="none" stroke="#000" stroke-width="1.25"/>
    </g>
    <g id="Group_7354" data-name="Group 7354">
      <path id="Path_20885" data-name="Path 20885" d="M443.443,47.366,425.73,59.223,422.825,46.51l-10.453,17.58L410.5,55.628,401.958,73.66l-1.2-8.3-6.625,18.483-3.788-8.913L383.7,97.416,379.912,88.5l-6.645,22.488-3.788-8.912-6.645,22.488-3.323,11.244,1.894,4.457,7.111-2.332,12.327-9.119L405.5,110.579l-14.221,4.663L415.931,97l-14.221,4.663,24.655-18.238-14.221,4.663,24.635-14.233-16.81,4.052,26.549-13.781-16.136,4.211L449.84,52.885l-16.83,8.056,10.433-13.575Z" fill="#006d00" stroke="#fff" stroke-width="7.734" fill-rule="evenodd"/>
      <path id="Path_20886" data-name="Path 20886" d="M436.553,53.76,410.961,75.787,361.4,140.27" fill="none" stroke="#000" stroke-width="1.25"/>
      <path id="Path_20887" data-name="Path 20887" d="M400.085,113.312l-28.247,13.38-2.38-20.608" fill="none" stroke="#000" stroke-width="1.25"/>
      <path id="Path_20888" data-name="Path 20888" d="M410.951,99.838l-28.679,13.279-2.38-20.608" fill="none" stroke="#000" stroke-width="1.25"/>
      <path id="Path_20889" data-name="Path 20889" d="M421.167,86.213,392.7,99.543,390.54,78.986" fill="none" stroke="#000" stroke-width="1.25"/>
      <path id="Path_20890" data-name="Path 20890" d="M429.639,76.182l-26.5,9.783L400.063,69.2" fill="none" stroke="#000" stroke-width="1.25"/>
      <path id="Path_20891" data-name="Path 20891" d="M439.4,66.461l-28.443,9.325-1.106-16.3" fill="none" stroke="#000" stroke-width="1.25"/>
      <path id="Path_20892" data-name="Path 20892" d="M443.189,57.27l-26.3,13.456,5.079-20.408" fill="none" stroke="#000" stroke-width="1.25"/>
    </g>
    <g id="Group_7355" data-name="Group 7355">
      <path id="Path_20893" data-name="Path 20893" d="M347.456,25.141l7.91,18.056,10.2-9.543-1.758,19.683,6.737-6.378-3.665,19.21,6.065-6.544-5.572,18.738,8.644-5.9-7.987,22.163,8.644-5.9-7.987,22.163,8.644-5.9-7.987,22.163-3.993,11.082-4.322,2.953-4.651-5.177L351.4,122.689,341.44,96.078l9.3,10.353L340.783,79.82l9.3,10.353-9.958-26.611,9.3,10.353L337.054,50.729l11.88,10.992-14.28-23.658,11.209,10.826-7.215-21.907L348.113,41.4l-.657-16.258Z" fill="#006d00" stroke="#fff" stroke-width="7.734" fill-rule="evenodd"/>
      <path id="Path_20894" data-name="Path 20894" d="M349.451,33.685l8.457,30.263,3.121,77.226" fill="none" stroke="#000" stroke-width="1.25"/>
      <path id="Path_20895" data-name="Path 20895" d="M344.4,100.836l15.973,24.078L374.916,108.4" fill="none" stroke="#000" stroke-width="1.25"/>
      <path id="Path_20896" data-name="Path 20896" d="M343.31,84.47l16.4,24.184,14.545-16.513" fill="none" stroke="#000" stroke-width="1.25"/>
      <path id="Path_20897" data-name="Path 20897" d="M342.869,68.267,359.056,92.4l14.33-16.567" fill="none" stroke="#000" stroke-width="1.25"/>
      <path id="Path_20898" data-name="Path 20898" d="M341.733,55.912,358.4,76.138l12.8-12.922" fill="none" stroke="#000" stroke-width="1.25"/>
      <path id="Path_20899" data-name="Path 20899" d="M339.305,43.241l18.6,20.705,10.841-13.408" fill="none" stroke="#000" stroke-width="1.25"/>
      <path id="Path_20900" data-name="Path 20900" d="M341.657,33.7l14.265,23.269,8.061-19.687" fill="none" stroke="#000" stroke-width="1.25"/>
    </g>
    <g id="Group_7356" data-name="Group 7356">
      <path id="Path_20901" data-name="Path 20901" d="M241.307,158.038l23.133-16.019-11.585-5.972,20.265,3.461-6.959-9.176,19.691,7.356-6.959-9.176,19.692,7.356-6.959-9.176,23.745,8.048-6.959-9.176,23.171,11.944-6.959-9.176,23.745,8.049,11.586,5.972,3.48,4.588-4.627,3.2-12.733,1.819-20.547,8.473,3.762-7.345-25.465,3.639,9.253-6.407-26.039,7.535,9.253-6.408L274.3,159.679l9.827-10.3L261.572,161.5l9.827-10.3L252.893,164.01l10.4-14.2-21.986,8.227Z" fill="#006d00" stroke="#fff" stroke-width="7.734" fill-rule="evenodd"/>
      <path id="Path_20902" data-name="Path 20902" d="M248.628,153.736,272.545,143.4l12.733-1.819,10.628-.182,18.316,1.131,16.513.72,32.7,3.69" fill="none" stroke="#000" stroke-width="1.25"/>
      <path id="Path_20903" data-name="Path 20903" d="M328.712,156.988l18.273-11.232-18.622-14.62" fill="none" stroke="#000" stroke-width="1.25"/>
      <path id="Path_20904" data-name="Path 20904" d="M308.185,155.313l22.55-12.06-18.622-14.62" fill="none" stroke="#000" stroke-width="1.25"/>
      <path id="Path_20905" data-name="Path 20905" d="M293.571,154.982l20.649-12.449-18.778-13.565M266.2,158.294l19.079-16.711L269.9,133.134" fill="none" stroke="#000" stroke-width="1.25"/>
      <path id="Path_20906" data-name="Path 20906" d="M257.721,159.423,272.544,143.4l-11.818-4.389m18.2,17.462,18.837-15.064-15.113-10.233" fill="none" stroke="#000" stroke-width="1.25"/>
    </g>
    <g id="Group_7358" data-name="Group 7358">
      <path id="Path_20907" data-name="Path 20907" d="M69.336,138.3l-.218-27.008L61.294,98.686c-1.956-6.2-.993-9.2,2.173-9.4s6.3,1.6,10.868,1.8,3.7-7,10.433-6.8,18.476,3.8,28.474,4.4,15.214-3.2,26.734-3.6,14.563,5,15.215,5,3.912-2.2,7.172-2.6,4.347,1.2,4.347,1.2-.218,6.8-1.739,10.8-6.956,10.6-7.172,10.6-1.957,29.411-1.957,29.611-86.506-.8-86.506-1.4Z" transform="translate(249.712 195.178)" fill="#c00" stroke="#000" stroke-width="0.164" fill-rule="evenodd"/>
      <g id="Group_7357" data-name="Group 7357">
        <path id="Path_20908" data-name="Path 20908" d="M68.06-68.914s-8.705,6.141-8.94,20.883c-.135,8.478,4.4,14.618,15.745,14.618,15.881,0,38.567-6.265,38.567-6.265v-2.088A133.007,133.007,0,0,1,74.866-35.5c-9.075,0-13.612-6.14-13.612-12.4,0-10.441,9.075-21.008,9.075-21.008V-85.619H68.06v16.706Z" transform="translate(476.585 236.944) rotate(180)" fill="#fff100" stroke="#000" stroke-width="0.164" fill-rule="evenodd"/>
        <path id="Path_20909" data-name="Path 20909" d="M61.254-64.736a2.184,2.184,0,0,0-2.269-2.088,2.184,2.184,0,0,0-2.269,2.088,2.184,2.184,0,0,0,2.269,2.088A2.184,2.184,0,0,0,61.254-64.736Z" transform="translate(474.533 236.743) rotate(180)" fill="#fff" stroke="#000" stroke-width="0.164" fill-rule="evenodd"/>
        <path id="Path_20910" data-name="Path 20910" d="M61.254-64.736a2.184,2.184,0,0,0-2.269-2.088,2.184,2.184,0,0,0-2.269,2.088,2.184,2.184,0,0,0,2.269,2.088A2.184,2.184,0,0,0,61.254-64.736Z" transform="translate(476.801 231.967) rotate(180)" fill="#fff" stroke="#000" stroke-width="0.164" fill-rule="evenodd"/>
        <path id="Path_20911" data-name="Path 20911" d="M61.254-64.736a2.184,2.184,0,0,0-2.269-2.088,2.184,2.184,0,0,0-2.269,2.088,2.184,2.184,0,0,0,2.269,2.088A2.184,2.184,0,0,0,61.254-64.736Z" transform="translate(477.983 227.103) rotate(180)" fill="#fff" stroke="#000" stroke-width="0.164" fill-rule="evenodd"/>
        <path id="Path_20912" data-name="Path 20912" d="M61.254-64.736a2.184,2.184,0,0,0-2.269-2.088,2.184,2.184,0,0,0-2.269,2.088,2.184,2.184,0,0,0,2.269,2.088A2.184,2.184,0,0,0,61.254-64.736Z" transform="translate(478.853 221.901) rotate(180)" fill="#fff" stroke="#000" stroke-width="0.164" fill-rule="evenodd"/>
        <path id="Path_20913" data-name="Path 20913" d="M61.254-64.736a2.184,2.184,0,0,0-2.269-2.088,2.184,2.184,0,0,0-2.269,2.088,2.184,2.184,0,0,0,2.269,2.088A2.184,2.184,0,0,0,61.254-64.736Z" transform="translate(478.636 216.261) rotate(180)" fill="#fff" stroke="#000" stroke-width="0.164" fill-rule="evenodd"/>
        <path id="Path_20914" data-name="Path 20914" d="M61.254-64.736a2.184,2.184,0,0,0-2.269-2.088,2.184,2.184,0,0,0-2.269,2.088,2.184,2.184,0,0,0,2.269,2.088A2.184,2.184,0,0,0,61.254-64.736Z" transform="translate(471.272 240.945) rotate(180)" fill="#fff" stroke="#000" stroke-width="0.164" fill-rule="evenodd"/>
        <path id="Path_20915" data-name="Path 20915" d="M61.254-64.736a2.184,2.184,0,0,0-2.269-2.088,2.184,2.184,0,0,0-2.269,2.088,2.184,2.184,0,0,0,2.269,2.088A2.184,2.184,0,0,0,61.254-64.736Z" transform="translate(476.707 210.934) rotate(180)" fill="#fff" stroke="#000" stroke-width="0.164" fill-rule="evenodd"/>
        <path id="Path_20916" data-name="Path 20916" d="M61.254-64.736a2.184,2.184,0,0,0-2.269-2.088,2.184,2.184,0,0,0-2.269,2.088,2.184,2.184,0,0,0,2.269,2.088A2.184,2.184,0,0,0,61.254-64.736Z" transform="translate(472.577 206.733) rotate(180)" fill="#fff" stroke="#000" stroke-width="0.164" fill-rule="evenodd"/>
        <path id="Path_20917" data-name="Path 20917" d="M61.254-64.736a2.184,2.184,0,0,0-2.269-2.088,2.184,2.184,0,0,0-2.269,2.088,2.184,2.184,0,0,0,2.269,2.088A2.184,2.184,0,0,0,61.254-64.736Z" transform="translate(466.926 203.932) rotate(180)" fill="#fff" stroke="#000" stroke-width="0.164" fill-rule="evenodd"/>
        <path id="Path_20918" data-name="Path 20918" d="M61.254-64.736a2.184,2.184,0,0,0-2.269-2.088,2.184,2.184,0,0,0-2.269,2.088,2.184,2.184,0,0,0,2.269,2.088A2.184,2.184,0,0,0,61.254-64.736Z" transform="translate(461.274 203.531) rotate(180)" fill="#fff" stroke="#000" stroke-width="0.164" fill-rule="evenodd"/>
        <path id="Path_20919" data-name="Path 20919" d="M61.254-64.736a2.184,2.184,0,0,0-2.269-2.088,2.184,2.184,0,0,0-2.269,2.088,2.184,2.184,0,0,0,2.269,2.088A2.184,2.184,0,0,0,61.254-64.736Z" transform="translate(455.189 203.732) rotate(180)" fill="#fff" stroke="#000" stroke-width="0.164" fill-rule="evenodd"/>
        <path id="Path_20920" data-name="Path 20920" d="M61.254-64.736a2.184,2.184,0,0,0-2.269-2.088,2.184,2.184,0,0,0-2.269,2.088,2.184,2.184,0,0,0,2.269,2.088A2.184,2.184,0,0,0,61.254-64.736Z" transform="translate(449.103 204.533) rotate(180)" fill="#fff" stroke="#000" stroke-width="0.164" fill-rule="evenodd"/>
        <path id="Path_20921" data-name="Path 20921" d="M61.254-64.736a2.184,2.184,0,0,0-2.269-2.088,2.184,2.184,0,0,0-2.269,2.088,2.184,2.184,0,0,0,2.269,2.088A2.184,2.184,0,0,0,61.254-64.736Z" transform="translate(443.016 205.333) rotate(180)" fill="#fff" stroke="#000" stroke-width="0.164" fill-rule="evenodd"/>
        <path id="Path_20922" data-name="Path 20922" d="M61.254-64.736a2.184,2.184,0,0,0-2.269-2.088,2.184,2.184,0,0,0-2.269,2.088,2.184,2.184,0,0,0,2.269,2.088A2.184,2.184,0,0,0,61.254-64.736Z" transform="translate(436.496 206.333) rotate(180)" fill="#fff" stroke="#000" stroke-width="0.164" fill-rule="evenodd"/>
        <path id="Path_20923" data-name="Path 20923" d="M61.254-64.736a2.184,2.184,0,0,0-2.269-2.088,2.184,2.184,0,0,0-2.269,2.088,2.184,2.184,0,0,0,2.269,2.088A2.184,2.184,0,0,0,61.254-64.736Z" transform="translate(430.845 207.734) rotate(180)" fill="#fff" stroke="#000" stroke-width="0.164" fill-rule="evenodd"/>
      </g>
      <path id="Path_20924" data-name="Path 20924" d="M61.254,64.736a2.277,2.277,0,1,1-2.269-2.088A2.184,2.184,0,0,1,61.254,64.736Z" transform="translate(251.764 236.743)" fill="#fff" stroke="#000" stroke-width="0.164" fill-rule="evenodd"/>
      <path id="Path_20925" data-name="Path 20925" d="M61.254,64.736a2.277,2.277,0,1,1-2.269-2.088A2.184,2.184,0,0,1,61.254,64.736Z" transform="translate(249.495 231.967)" fill="#fff" stroke="#000" stroke-width="0.164" fill-rule="evenodd"/>
      <path id="Path_20926" data-name="Path 20926" d="M61.254,64.736a2.277,2.277,0,1,1-2.269-2.088A2.184,2.184,0,0,1,61.254,64.736Z" transform="translate(248.313 227.103)" fill="#fff" stroke="#000" stroke-width="0.164" fill-rule="evenodd"/>
      <path id="Path_20927" data-name="Path 20927" d="M61.254,64.736a2.277,2.277,0,1,1-2.269-2.088A2.184,2.184,0,0,1,61.254,64.736Z" transform="translate(247.444 221.901)" fill="#fff" stroke="#000" stroke-width="0.164" fill-rule="evenodd"/>
      <path id="Path_20928" data-name="Path 20928" d="M61.254,64.736a2.277,2.277,0,1,1-2.269-2.088A2.184,2.184,0,0,1,61.254,64.736Z" transform="translate(247.661 216.261)" fill="#fff" stroke="#000" stroke-width="0.164" fill-rule="evenodd"/>
      <path id="Path_20929" data-name="Path 20929" d="M61.254,64.736a2.277,2.277,0,1,1-2.269-2.088A2.184,2.184,0,0,1,61.254,64.736Z" transform="translate(249.591 210.934)" fill="#fff" stroke="#000" stroke-width="0.164" fill-rule="evenodd"/>
      <path id="Path_20930" data-name="Path 20930" d="M61.254,64.736a2.277,2.277,0,1,1-2.269-2.088A2.184,2.184,0,0,1,61.254,64.736Z" transform="translate(253.72 206.733)" fill="#fff" stroke="#000" stroke-width="0.164" fill-rule="evenodd"/>
      <path id="Path_20931" data-name="Path 20931" d="M61.254,64.736a2.277,2.277,0,1,1-2.269-2.088A2.184,2.184,0,0,1,61.254,64.736Z" transform="translate(259.371 203.932)" fill="#fff" stroke="#000" stroke-width="0.164" fill-rule="evenodd"/>
      <path id="Path_20932" data-name="Path 20932" d="M61.254,64.736a2.277,2.277,0,1,1-2.269-2.088A2.184,2.184,0,0,1,61.254,64.736Z" transform="translate(265.022 203.531)" fill="#fff" stroke="#000" stroke-width="0.164" fill-rule="evenodd"/>
      <path id="Path_20933" data-name="Path 20933" d="M61.254,64.736a2.277,2.277,0,1,1-2.269-2.088A2.184,2.184,0,0,1,61.254,64.736Z" transform="translate(271.107 203.732)" fill="#fff" stroke="#000" stroke-width="0.164" fill-rule="evenodd"/>
      <path id="Path_20934" data-name="Path 20934" d="M61.254,64.736a2.277,2.277,0,1,1-2.269-2.088A2.184,2.184,0,0,1,61.254,64.736Z" transform="translate(277.194 204.533)" fill="#fff" stroke="#000" stroke-width="0.164" fill-rule="evenodd"/>
      <path id="Path_20935" data-name="Path 20935" d="M61.254,64.736a2.277,2.277,0,1,1-2.269-2.088A2.184,2.184,0,0,1,61.254,64.736Z" transform="translate(283.281 205.332)" fill="#fff" stroke="#000" stroke-width="0.164" fill-rule="evenodd"/>
      <path id="Path_20936" data-name="Path 20936" d="M61.254,64.736a2.277,2.277,0,1,1-2.269-2.088A2.184,2.184,0,0,1,61.254,64.736Z" transform="translate(289.8 206.333)" fill="#fff" stroke="#000" stroke-width="0.164" fill-rule="evenodd"/>
      <path id="Path_20937" data-name="Path 20937" d="M61.254,64.736a2.277,2.277,0,1,1-2.269-2.088A2.184,2.184,0,0,1,61.254,64.736Z" transform="translate(295.452 207.734)" fill="#fff" stroke="#000" stroke-width="0.164" fill-rule="evenodd"/>
      <path id="Path_20938" data-name="Path 20938" d="M61.254,64.736a2.277,2.277,0,1,1-2.269-2.088A2.184,2.184,0,0,1,61.254,64.736Z" transform="translate(255.024 240.945)" fill="#fff" stroke="#000" stroke-width="0.164" fill-rule="evenodd"/>
      <path id="Path_20939" data-name="Path 20939" d="M68.06,68.914s-8.705-6.141-8.94-20.883c-.135-8.478,4.4-14.618,15.745-14.618,15.881,0,38.567,6.265,38.567,6.265v2.088A133.007,133.007,0,0,0,74.866,35.5c-9.075,0-13.612,6.14-13.612,12.4,0,10.441,9.075,21.008,9.075,21.008V85.619H68.06V68.913Z" transform="translate(249.712 236.944)" fill="#fff100" stroke="#000" stroke-width="0.164" fill-rule="evenodd"/>
      <path id="Path_20940" data-name="Path 20940" d="M52.937,23.868a3.091,3.091,0,0,1,3.025-1.591,3.261,3.261,0,0,1,3.025,3.182v3.182H60.5V25.459a3.34,3.34,0,0,1,3.025-3.182,3.258,3.258,0,0,1,3.025,1.591s0-4.774-3.025-4.774A3.258,3.258,0,0,0,60.5,20.685a18.147,18.147,0,0,0,.756-4.774,6.233,6.233,0,0,0-1.512-3.978c0,.3-1.513,1.591-1.513,3.978a18.148,18.148,0,0,0,.756,4.774,3.258,3.258,0,0,0-3.025-1.591C52.937,19.094,52.937,23.868,52.937,23.868Z" transform="translate(280.718 289.747)" fill="#fff100" stroke="#000" stroke-width="0.131" fill-rule="evenodd"/>
      <path id="Path_20941" data-name="Path 20941" d="M52.937,23.868a3.091,3.091,0,0,1,3.025-1.591,3.261,3.261,0,0,1,3.025,3.182v3.182H60.5V25.459a3.34,3.34,0,0,1,3.025-3.182,3.258,3.258,0,0,1,3.025,1.591s0-4.774-3.025-4.774A3.258,3.258,0,0,0,60.5,20.685a18.147,18.147,0,0,0,.756-4.774,6.233,6.233,0,0,0-1.512-3.978c0,.3-1.513,1.591-1.513,3.978a18.148,18.148,0,0,0,.756,4.774,3.258,3.258,0,0,0-3.025-1.591C52.937,19.094,52.937,23.868,52.937,23.868Z" transform="translate(326.091 289.747)" fill="#fff100" stroke="#000" stroke-width="0.131" fill-rule="evenodd"/>
      <path id="Path_20942" data-name="Path 20942" d="M68.06,98.15V79.355S72.6,85.62,79.4,85.62c5.569,0,11.343-8.353,11.343-8.353s5.316,6.265,11.343,6.265c5.381,0,11.335-8.083,11.335-8.083s5.533,8.083,11.352,8.083,11.343-6.265,11.343-6.265,5.928,8.353,13.612,8.353c6.806,0,9.075-6.265,9.075-6.265V98.15H68.061Z" transform="translate(249.712 236.944)" fill="#fff100" stroke="#000" stroke-width="0.164" fill-rule="evenodd"/>
      <path id="Path_20943" data-name="Path 20943" d="M90.746,98.15V83.531s13.612,4.177,13.612,14.618Z" transform="translate(227.025 236.944)" fill="#fff100" stroke="#000" stroke-width="0.164" fill-rule="evenodd"/>
      <path id="Path_20944" data-name="Path 20944" d="M90.746-98.15v14.618s13.612-4.177,13.612-14.618Z" transform="translate(499.263 236.944) rotate(180)" fill="#fff100" stroke="#000" stroke-width="0.164" fill-rule="evenodd"/>
      <path id="Path_20945" data-name="Path 20945" d="M77.134,98.15c0-10.441,13.621-17.044,13.621-17.044s13.6,6.6,13.6,17.044H77.134Z" transform="translate(249.712 236.944)" fill="#fff100" stroke="#000" stroke-width="0.164" fill-rule="evenodd"/>
      <path id="Path_20946" data-name="Path 20946" d="M77.134,98.15c0-10.441,13.621-17.044,13.621-17.044s13.6,6.6,13.6,17.044H77.134Z" transform="translate(295.086 236.944)" fill="#fff100" stroke="#000" stroke-width="0.164" fill-rule="evenodd"/>
      <path id="Path_20947" data-name="Path 20947" d="M74.866,99.9c0-10.441,15.889-18.795,15.889-18.795s15.872,8.353,15.872,18.795Z" transform="translate(272.398 235.193)" fill="#fff100" stroke="#000" stroke-width="0.164" fill-rule="evenodd"/>
      <path id="Path_20948" data-name="Path 20948" d="M161.5,77.266c-4.486-2.088-21.02-4.177-47.641-4.177s-44.326,2.088-48.812,4.177-4.486,6.265,0,8.353S87.243,89.8,113.863,89.8s43.154-2.088,47.641-4.177,4.486-6.265,0-8.353Z" transform="translate(249.279 257.827)" fill="#fff" stroke="#000" stroke-width="0.163" fill-rule="evenodd"/>
      <path id="Path_20949" data-name="Path 20949" d="M408.522,343.446c0,4.177-37.74,4.177-45.374,4.177-8.247,0-45.373,1.132-45.373-4.177,0-4.177,37.432-4.177,45.373-4.177S408.522,340.118,408.522,343.446Z" fill="gray" fill-rule="evenodd"/>
      <path id="Path_20950" data-name="Path 20950" d="M322.31,328.446a2.277,2.277,0,1,1-2.269-2.472A2.377,2.377,0,0,1,322.31,328.446Zm86.209,0a2.277,2.277,0,1,1-2.269-2.472A2.376,2.376,0,0,1,408.518,328.446Z" fill="#c00" fill-rule="evenodd"/>
      <path id="Path_20951" data-name="Path 20951" d="M367.683,327.124c0,1.365-2.032,2.471-4.538,2.471s-4.538-1.106-4.538-2.471,2.032-2.471,4.538-2.471S367.683,325.759,367.683,327.124Z" fill-rule="evenodd"/>
      <path id="Path_20952" data-name="Path 20952" d="M389.447,327.124c0,1.365-1.523,2.471-3.4,2.471s-3.4-1.106-3.4-2.471,1.524-2.471,3.4-2.471S389.447,325.759,389.447,327.124Zm-46.719,0c0,1.365-1.524,2.471-3.4,2.471s-3.4-1.106-3.4-2.471,1.523-2.471,3.4-2.471S342.727,325.759,342.727,327.124Z" fill="#006300" fill-rule="evenodd"/>
      <path id="Path_20953" data-name="Path 20953" d="M92.043,33.414s2.593-3.58,5.186-3.58h2.592v2.387c0,3.58-3.889,4.774-3.889,4.774H106.3s-3.889-1.193-3.889-4.774V29.834h2.592c2.592,0,5.186,3.58,5.186,3.58V23.867s-2.593,3.58-5.186,3.58h-2.592V25.061c0-3.58,3.889-4.774,3.889-4.774H95.932s3.889,1.193,3.889,4.774v2.387H97.229c-2.592,0-5.186-3.58-5.186-3.58Z" transform="translate(262.031 279.306)" fill="#fff100" stroke="#000" stroke-width="0.154" fill-rule="evenodd"/>
      <path id="Path_20954" data-name="Path 20954" d="M50.565,32.371h2.593s-1.945-1.044-1.945-4.177V26.105h1.3c1.3,0,2.593,3.133,2.593,3.133V20.884s-1.3,3.133-2.593,3.133h-1.3V21.929c0-3.133,1.945-4.177,1.945-4.177H50.565V32.371Z" transform="translate(267.216 288.107)" fill="#fff100" stroke="#000" stroke-width="0.154" fill-rule="evenodd"/>
      <path id="Path_20955" data-name="Path 20955" d="M50.565-32.371h2.593s-1.945,1.044-1.945,4.177v2.088h1.3c1.3,0,2.593-3.133,2.593-3.133v8.354s-1.3-3.133-2.593-3.133h-1.3v2.088c0,3.133,1.945,4.177,1.945,4.177H50.565V-32.371Z" transform="translate(459.08 288.107) rotate(180)" fill="#fff100" stroke="#000" stroke-width="0.154" fill-rule="evenodd"/>
      <path id="Path_20956" data-name="Path 20956" d="M115.7,71a2.277,2.277,0,1,1-2.269-2.088A2.184,2.184,0,0,1,115.7,71Z" transform="translate(249.712 236.944)" fill="#fff" stroke="#000" stroke-width="0.164" fill-rule="evenodd"/>
      <path id="Path_20957" data-name="Path 20957" d="M92.043,33.414s2.593-3.58,5.186-3.58h2.592v2.387c0,3.58-3.889,4.774-3.889,4.774H106.3s-3.889-1.193-3.889-4.774V29.834h2.592c2.592,0,5.186,3.58,5.186,3.58V23.867s-2.593,3.58-5.186,3.58h-2.592V25.061c0-3.58,3.889-4.774,3.889-4.774H95.932s3.889,1.193,3.889,4.774v2.387H97.229c-2.592,0-5.186-3.58-5.186-3.58Z" transform="translate(262.031 235.453)" fill="#fff100" stroke="#000" stroke-width="0.154" fill-rule="evenodd"/>
      <path id="Path_20958" data-name="Path 20958" d="M115.7,71a2.277,2.277,0,1,1-2.269-2.088A2.184,2.184,0,0,1,115.7,71Z" transform="translate(249.93 193.44)" fill="#fff" stroke="#000" stroke-width="0.164" fill-rule="evenodd"/>
      <path id="Path_20959" data-name="Path 20959" d="M108.9,77.266h9.075v6.265H108.9Z" transform="translate(249.712 195.178)" fill="#fff100" stroke="#000" stroke-width="0.164" fill-rule="evenodd"/>
      <path id="Path_20960" data-name="Path 20960" d="M108.9,80.542h9.075v23.873H108.9Z" transform="translate(249.712 195.178)" fill="#fff100" stroke="#000" stroke-width="0.164" fill-rule="evenodd"/>
      <path id="Path_20961" data-name="Path 20961" d="M61.254,64.736a2.277,2.277,0,1,1-2.269-2.088A2.184,2.184,0,0,1,61.254,64.736Z" transform="translate(304.161 230.678)" fill="#fff" stroke="#000" stroke-width="0.164" fill-rule="evenodd"/>
      <path id="Path_20962" data-name="Path 20962" d="M61.254,64.736a2.277,2.277,0,1,1-2.269-2.088A2.184,2.184,0,0,1,61.254,64.736Z" transform="translate(304.161 225.277)" fill="#fff" stroke="#000" stroke-width="0.164" fill-rule="evenodd"/>
      <path id="Path_20963" data-name="Path 20963" d="M61.254,64.736a2.277,2.277,0,1,1-2.269-2.088A2.184,2.184,0,0,1,61.254,64.736Z" transform="translate(304.161 220.238)" fill="#fff" stroke="#000" stroke-width="0.164" fill-rule="evenodd"/>
      <path id="Path_20964" data-name="Path 20964" d="M61.254,64.736a2.277,2.277,0,1,1-2.269-2.088A2.184,2.184,0,0,1,61.254,64.736Z" transform="translate(304.161 215.036)" fill="#fff" stroke="#000" stroke-width="0.164" fill-rule="evenodd"/>
      <path id="Path_20965" data-name="Path 20965" d="M367.964,335.139c0,.938-2.064,1.7-4.611,1.7s-4.611-.759-4.611-1.7,2.064-1.7,4.611-1.7,4.611.759,4.611,1.7Zm41.784,4.145c-.255.642-2.5.7-5.016.119s-4.348-1.566-4.093-2.208,2.5-.7,5.016-.12S410,338.641,409.748,339.284Zm-17.464-2.816c-.1.827-2.287,1.35-4.881,1.169s-4.617-1-4.516-1.825,2.287-1.35,4.881-1.169S392.386,335.641,392.285,336.468Zm-76.753,2.816c.255.642,2.5.7,5.016.119s4.348-1.566,4.093-2.208-2.5-.7-5.016-.12S315.277,338.641,315.532,339.284Zm18.338-3.217c.1.827,2.287,1.35,4.881,1.169s4.617-1,4.516-1.825-2.287-1.35-4.882-1.169-4.616,1-4.515,1.825Z" fill-rule="evenodd"/>
    </g>
  </g>
</svg>
