<svg id="gibraltar" xmlns="http://www.w3.org/2000/svg" width="640" height="480" viewBox="0 0 640 480">
  <path id="Path_20979" data-name="Path 20979" d="M0,0H640V480H0Z" fill="#da000c"/>
  <path id="Path_20980" data-name="Path 20980" d="M0,0H640V321.563H0Z" fill="#fff"/>
  <g id="Group_7363" data-name="Group 7363" transform="translate(-160)">
    <g id="a">
      <path id="Path_20981" data-name="Path 20981" d="M368.569,218.068h120v82.487h-120Z"/>
      <path id="Path_20982" data-name="Path 20982" d="M430.913,288.5H357.656l-16.238,10.688v11.325h89.494m-30.656-69.4a19.426,19.426,0,0,1,19.159,19.631v27.712h13.768v-105H357.658v105H381.1V260.745c0-10.416,8.466-19.631,19.163-19.631Z" fill="#da000c" stroke="#000" stroke-linecap="square" stroke-width="1.875"/>
      <path id="Path_20983" data-name="Path 20983" d="M383.49,112.429h34.731V176.1H383.494Z"/>
      <path id="Path_20984" data-name="Path 20984" d="M418.125,166.23H387.731V155.449H365.449V166.23H350.333V155.449h-9.024V175.02h76.817m-67.793-.071H415.9v8.509H350.332ZM376.35,89.3v66.15h11.381V137.288c0-6.806,4.806-12.375,11.527-12.716.216-.011.424,0,.643,0a12.713,12.713,0,0,1,12.716,12.712v18.165h10.841V89.3Zm-4.106-8.964v8.962h54.844V80.332Zm-7.031-17.167V80.332h65.8V63.163H420.879v8.732H408.632V63.163H389.938v8.732H377.694V63.163ZM341.419,299.182H431.25m58.125-5.158H428.554l-18.337,8.846v13.185h79.159" fill="#da000c" stroke="#000" stroke-linecap="square" stroke-width="1.875"/>
      <path id="Path_20985" data-name="Path 20985" d="M410.194,302.85H491.25" fill="#da000c" stroke="#000" stroke-width="1.875"/>
    </g>
    <g id="Group_7359" data-name="Group 7359" transform="translate(960) rotate(180)">
      <path id="Path_20986" data-name="Path 20986" d="M368.569-218.068h120v-82.487h-120Z"/>
      <path id="Path_20987" data-name="Path 20987" d="M430.913-288.5H357.656l-16.238-10.687v-11.325h89.494m-30.656,69.4a19.426,19.426,0,0,0,19.159-19.631v-27.712h13.768v105H357.658v-105H381.1v27.712c0,10.416,8.466,19.631,19.163,19.631Z" fill="#da000c" stroke="#000" stroke-linecap="square" stroke-width="1.875"/>
      <path id="Path_20988" data-name="Path 20988" d="M383.49-112.429h34.731V-176.1H383.494Z"/>
      <path id="Path_20989" data-name="Path 20989" d="M418.125-166.23H387.731v10.781H365.449V-166.23H350.333v10.781h-9.024V-175.02h76.817m-67.793.071H415.9v-8.509H350.332ZM376.35-89.3v-66.15h11.381v18.159c0,6.806,4.806,12.375,11.527,12.716.216.011.424,0,.643,0a12.713,12.713,0,0,0,12.716-12.712v-18.165h10.841V-89.3Zm-4.106,8.964v-8.962h54.844v8.962Zm-7.031,17.167V-80.332h65.8v17.169H420.879v-8.732H408.632v8.732H389.938v-8.732H377.694v8.732ZM341.419-299.182H431.25m58.125,5.158H428.554l-18.337-8.846v-13.185h79.159" fill="#da000c" stroke="#000" stroke-linecap="square" stroke-width="1.875"/>
      <path id="Path_20990" data-name="Path 20990" d="M410.194-302.85H491.25" fill="#da000c" stroke="#000" stroke-width="1.875"/>
    </g>
    <g id="Group_7361" data-name="Group 7361">
      <g id="Group_7360" data-name="Group 7360">
        <path id="Path_20991" data-name="Path 20991" d="M512.432,281.306c-4.976,1.658-9.474,4.444-14.006,7.039a135.817,135.817,0,0,0-16.693,11.438,22.461,22.461,0,0,0-5.044,4.26c-1.922,1.646-3.87,3.853-3.5,6.587.094,1.2,1.637-1.418,2.651-1.545a8.231,8.231,0,0,1,5.891-.881c2.381-2.512,5.456-4.194,8.109-6.388A147.882,147.882,0,0,1,507.7,290.636a49.314,49.314,0,0,1,6.609-3l-1.875-6.328Z" fill="#f8d80e" stroke="#000" stroke-linecap="round" stroke-width="1.44"/>
        <path id="Path_20992" data-name="Path 20992" d="M488.25,295.106v7.337m4.532-10.534v7.281m4.53-10.1v7.234m4.532-10.02v7.462" fill="#f8d80e" stroke="#000" stroke-linecap="round" stroke-width="1.875"/>
        <path id="Path_20993" data-name="Path 20993" d="M447.919,281.543l-2.224,6.212a162.44,162.44,0,0,1,29.619,15.112c3.173,2.156,6.5,4.247,8.994,7.209a1.881,1.881,0,0,1-2.464,2.333c-1.372-.469-2.724-1-4.174-.009-2.076.943-3.949,4.013-.8,5.044,4.342,2.918,11.406,1.65,13.492-3.457,1.087-2.625,1.159-5.991-.952-8.145-3.868-4.432-8.994-7.515-13.913-10.635a167.317,167.317,0,0,0-27.576-13.665Z" fill="#f8d80e" stroke="#000" stroke-linecap="round" stroke-width="1.44"/>
        <path id="Path_20994" data-name="Path 20994" d="M476.344,296.316l-.587,6.262m5.8-3.066-1.616,6.131m7.189-1.871-3.39,4.757m5.1,6.808-4.894-2.625m6.418-2.531-5.616.525m-1.628,7.6-.384-4.937m-1.673-.705-4.637,3.416m-17.659-29.327V292.6m11.786.36v6.626m-5.893-9.722v6.225" fill="#f8d80e" stroke="#000" stroke-linecap="round" stroke-width="1.875"/>
      </g>
      <path id="Path_20995" data-name="Path 20995" d="M442.087,426.681v15.056h9.435v-7.556h12.832v7.556h10.136V426.681Zm0,20.741V462.54h32.4V447.422H464.355v7.556H451.522v-7.556Z" fill="#f8d80e" stroke="#000" stroke-width="1.875"/>
      <path id="Path_20996" data-name="Path 20996" d="M474.473,363.094h9.356V472.061h-9.356Z" fill="#f8d80e" stroke="#000" stroke-width="1.875"/>
      <path id="Path_20997" data-name="Path 20997" d="M474.473,372.525h9.356v93.862h-9.356Z" fill="#f8d80e" stroke="#000" stroke-width="1.875"/>
      <path id="Path_20998" data-name="Path 20998" d="M479.151,336.386l19.922,11.6-19.922,11.543-19.922-11.543Zm-26.663,7.444h-5.212v8.318h5.212l26.663,15.469,26.662-15.469h5.213v-8.319h-5.213l-26.662-15.469Z" fill="#f8d80e" stroke="#000" stroke-width="1.92"/>
      <path id="Path_20999" data-name="Path 20999" d="M478.77,308.025a9.365,9.365,0,0,0-7.676,9.628c.019,7.009-.034,14.017.026,21.026a9.395,9.395,0,0,0,17.784,3.388l-3.221-1.931a5.671,5.671,0,0,1-10.841-2.539c.019-6.962-.038-13.927.028-20.888a5.342,5.342,0,0,1,5.715-4.875c1.174-.337,2.788,1.267,3.516-.118,1.093-1.556-.778-2.769-1.819-3.632-1.149-.159-2.349-.015-3.514-.06Zm10.837,7.326c-.741,1.4-2.278,2.231-3.514,2.962V332.4l3.75,2.169c-.015-6.007.03-12.015-.019-18.019-.062-.371-.019-.937-.216-1.2Z" fill="#f8d80e" stroke="#000" stroke-width="1.92"/>
    </g>
    <g id="Group_7362" data-name="Group 7362">
      <path id="Path_21000" data-name="Path 21000" d="M451.506,71.906H506.5v99.855H451.506Z"/>
      <path id="Path_21001" data-name="Path 21001" d="M447.656,71.953v83.556h17.462V130.721c0-5.715,3.66-13.65,14.882-13.65s14.884,7.935,14.884,13.65v24.788h17.46V71.951Zm29.649,9.375H482.7v28.594h-5.391Zm-15.469,5.625h5.449v20.916h-5.451Zm30.878,0h5.452v20.916h-5.451ZM441.739,59.944V71.837h76.522v-11.9Zm-7.207-13.83V59.942h90.938V46.112H514.042v7.616H501.152V46.112h-14.7v7.616H473.557V46.112H458.85v7.616H445.957V46.112ZM417.656,183.458v8.614H542.344v-8.614Z" fill="#da000c" stroke="#000" stroke-width="1.875"/>
      <path id="Path_21002" data-name="Path 21002" d="M412.556,155.449v28.009H547.444V155.449H534.667V166.23H517.676V155.449H494.884V166.23H465.118V155.449H442.324V166.23H425.332V155.449Z" fill="#da000c" stroke="#000" stroke-width="1.875"/>
      <path id="Path_21003" data-name="Path 21003" d="M428.79,192.071V293.964h24.081V255.821c0-17.966,12-26.424,27.131-26.424,14.55,0,27.131,8.456,27.131,26.426v38.143h24.079V192.073Z" fill="#da000c" stroke="#000" stroke-linejoin="round" stroke-width="1.875"/>
    </g>
  </g>
</svg>
