<svg id="lesotho" xmlns="http://www.w3.org/2000/svg" width="640" height="480" viewBox="0 0 640 480">
  <path id="Path_21016" data-name="Path 21016" d="M0,0H640V480H0Z" fill="#fff"/>
  <path id="Path_21017" data-name="Path 21017" d="M0,336H640V480H0Z" fill="#009543"/>
  <path id="Path_21018" data-name="Path 21018" d="M0,0H640V144H0Z" fill="#00209f"/>
  <path id="Path_21019" data-name="Path 21019" d="M319.622,152.91c-2.736.06-5.4,3.088-5.4,3.088l.236,32.375-10.22,10.707h8.272l-.07,18.563-48.945,65.909-7.235-2.5-12.648,26.977s31.28,19.585,76.682,19.051c49.828-.592,76.9-19.955,76.9-19.955l-13.069-26.63-6.4,2.783L328.15,217.71l-.068-19.116h8.272l-11.26-10.576.068-32.255s-2.8-2.912-5.54-2.853Z" stroke="#000" stroke-width="1.601"/>
  <path id="Path_21020" data-name="Path 21020" d="M336.688,230.416H302.843s-12.285-25.883-10.293-43.978c2.028-18.425,12.557-27.14,26.557-27.3,16.552-.184,25.227,8.112,27.848,26.559,2.6,18.278-10.269,44.713-10.269,44.713Z" fill="none" stroke="#000" stroke-width="8"/>
  <path id="Path_21021" data-name="Path 21021" d="M260.46,292.112c-.553.736-4.61,8.851-4.61,8.851l7.008-1.475-2.4-7.376Zm4.058,10.512-7.376,2.4,8.852,3.5-1.476-5.9Zm3.319-10.328,3.69,10.88,9.036-2.58-2.4-5.166-10.328-3.136Zm5.718,14.754,1.29,4.425,11.989,2.952-4.8-10.144-8.483,2.767Zm13.277-9.221,4.243,10.144,9.037-3.5-2.952-4.427-10.326-2.213Zm5.9,13.832,1.476,3.872,14.016,2.029-5.9-9.221-9.59,3.32ZM306.2,300.779l5.165,9.037,13.092-4.8-1.475-3.5-16.782-.736Zm7.561,12.357,2.767,4.8,16.229-.553-6.087-9.037-12.909,4.8Zm17.152-11.987,4.426,7.56,10.328-4.98-2.768-4.057-11.986,1.477Zm16.967,5.715-10.328,5.165,2.766,4.425,13.832-2.212-6.272-7.376Zm3.32-7.93,5.347,6.64,8.669-6.824-2.952-3.136-11.064,3.32Zm15.859,3.5-8.3,6.272,2.215,3.872,11.434-2.95Zm11.435-13.094,2.027,2.952-5.716,8.483-5.9-7.561,9.59-3.872Zm3.872,7.378,3.5,7.008-7.008,2.4-.553-3.32Z" fill="#fff"/>
</svg>
