<svg id="malawi" xmlns="http://www.w3.org/2000/svg" width="639.998" height="480" viewBox="0 0 639.998 480">
  <path id="Path_21028" data-name="Path 21028" d="M0,0H640V480H0Z" fill="#f41408" fill-rule="evenodd"/>
  <path id="Path_21029" data-name="Path 21029" d="M0,320H640V480H0Z" fill="#21873b" fill-rule="evenodd"/>
  <path id="Path_21030" data-name="Path 21030" d="M0,0H640V160H0Z" fill-rule="evenodd"/>
  <path id="Path_21031" data-name="Path 21031" d="M220.479,141.06c22.308-49.262,84.5-72.826,138.83-52.6q41.04,15.282,57.987,52.56l-196.81.037Zm-25.97,6.365c-23.45-1.577-48.376-6.456-52.443-7.8s-4.223-3.585-3.722-5.3,3.1-3.667,6.127-2.94c5.682,1.363,28.788,6.9,50.034,16.044Zm124.63-85.911c-4.208-20.98-5.27-44.078-4.86-47.985s2.765-4.608,4.724-4.6a4.878,4.878,0,0,1,4.68,4.638c-.027,5.33-.132,27-4.544,47.948Zm11.54.487c-2.21-21.23-1.086-44.326-.308-48.186s3.19-4.376,5.141-4.216a4.775,4.775,0,0,1,4.224,4.984c-.53,5.308-2.682,26.893-9.057,47.418Zm10.46,1.285c-.276-21.322,2.94-44.256,4.066-48.046s3.576-4.123,5.506-3.818a4.686,4.686,0,0,1,3.757,5.283C353.458,21.955,349.355,43.306,341.139,63.286Zm11.01,2.233c1.793-21.262,7.222-43.85,8.711-47.536s3.963-3.821,5.855-3.364a4.594,4.594,0,0,1,3.23,5.562c-1.514,5.15-7.673,26.09-17.8,45.338ZM363,68.653c3.867-21.034,11.486-43.1,13.33-46.647s4.321-3.488,6.161-2.88a4.517,4.517,0,0,1,2.674,5.8c-2.01,5.007-10.2,25.37-22.16,43.726Zm10.11,3.831c5.836-20.657,15.507-42.048,17.679-45.443s4.634-3.14,6.41-2.39a4.449,4.449,0,0,1,2.117,5.985c-2.478,4.833-12.552,24.486-26.206,41.848Zm9.95,4.723c7.808-20.113,19.507-40.655,22-43.863s4.92-2.76,6.617-1.873a4.4,4.4,0,0,1,1.53,6.13c-2.935,4.618-14.868,23.4-30.146,39.607Zm9.41,5.468c9.712-19.42,23.341-38.958,26.131-41.958s5.166-2.36,6.771-1.343a4.359,4.359,0,0,1,.936,6.228c-3.367,4.368-17.06,22.132-33.838,37.074Zm8.86,6.2c11.544-18.577,27-36.963,30.07-39.73s5.374-1.943,6.875-.8a4.338,4.338,0,0,1,.332,6.278C434.831,58.706,419.48,75.318,401.329,88.875Zm8.25,6.89c13.292-17.59,30.464-34.68,33.787-37.192s5.54-1.51,6.926-.254a4.334,4.334,0,0,1-.275,6.281c-4.154,3.77-21.049,19.1-40.439,31.166Zm7.58,7.545c14.943-16.466,33.7-32.123,37.255-34.362s5.665-1.062,6.924.3a4.347,4.347,0,0,1-.881,6.235C455.953,78.906,437.642,92.834,417.159,103.31Zm6.52,7.735c16.41-15.274,36.549-29.451,40.3-31.413s5.743-.629,6.872.823a4.373,4.373,0,0,1-1.454,6.146C464.591,89.672,445.056,102.161,423.679,111.045Zm5.9,8.388c17.791-13.944,39.193-26.508,43.113-28.172s5.782-.18,6.77,1.353a4.415,4.415,0,0,1-2.03,6.01c-5.075,2.688-25.715,13.615-47.853,20.808Zm5.47,9.557c19.138-12.39,41.731-23.1,45.8-24.43s5.775.3,6.6,1.915a4.477,4.477,0,0,1-2.633,5.814C479.493,114.539,457.826,123.686,435.049,128.99Zm4.18,9.231c20.24-10.856,43.763-19.771,47.946-20.778s5.725.753,6.4,2.422a4.547,4.547,0,0,1-3.173,5.588c-5.522,1.827-27.974,9.255-51.17,12.768Zm3.36,9.785c21.216-9.2,45.514-16.2,49.779-16.867s5.63,1.208,6.136,2.924-.676,4.578-3.7,5.313c-5.678,1.378-28.765,6.984-52.21,8.63ZM307.849,61.912c-6.33-20.538-9.744-43.448-9.733-47.373s2.283-4.82,4.234-4.976a4.985,4.985,0,0,1,5.132,4.225c.518,5.309,2.624,26.9.367,48.123Zm-11.1,1.3C288.466,43.255,282.86,20.7,282.493,16.792s1.81-4.982,3.739-5.293a5.09,5.09,0,0,1,5.52,3.8c1.026,5.248,5.2,26.587,5,47.91Zm-11.03,2.2c-10.19-19.218-17.97-41.235-18.72-45.1s1.32-5.107,3.21-5.57a5.187,5.187,0,0,1,5.868,3.346c1.532,5.146,7.766,26.07,9.633,47.325Zm-10.4,2.946c-11.95-18.365-21.76-39.7-22.86-43.5s.836-5.19,2.677-5.8a5.275,5.275,0,0,1,6.16,2.883c2.009,5.008,10.179,25.376,14.03,46.412Zm-10.16,3.772c-13.65-17.369-25.44-37.867-26.9-41.562s.343-5.237,2.12-5.985a5.352,5.352,0,0,1,6.409,2.4c2.475,4.834,12.539,24.492,18.362,45.152Zm-10.27,4.8c-15.313-16.183-29.09-35.636-30.91-39.2S223.8,32.495,225.5,31.6a5.424,5.424,0,0,1,6.622,1.86c2.944,4.613,14.92,23.369,22.773,43.47Zm-9.35,5.372c-16.8-14.924-32.37-33.226-34.53-36.63s-.677-5.21.927-6.229a5.471,5.471,0,0,1,6.774,1.336c3.372,4.364,17.089,22.113,26.826,41.524Zm-8.76,5.976c-18.139-13.57-35.382-30.6-37.847-33.825s-1.165-5.139.337-6.278a5.5,5.5,0,0,1,6.875.806C209.915,53.073,225.252,69.695,236.779,88.282Zm-8.51,6.948c-19.4-12.053-38.25-27.621-41.02-30.634s-1.665-5.024-.281-6.28a5.515,5.515,0,0,1,6.926.247c4.158,3.766,21.068,19.083,34.377,36.663Zm-7.35,7.128c-20.447-10.533-40.668-24.614-43.709-27.406s-2.124-4.88-.86-6.237a5.512,5.512,0,0,1,6.924-.28c4.492,3.438,22.758,17.416,37.645,33.922Zm-7.04,8.142c-21.4-8.842-42.92-21.237-46.223-23.772s-2.594-4.69-1.469-6.143a5.487,5.487,0,0,1,6.87-.837c4.811,3.062,24.376,15.511,40.822,30.753Zm-6.31,8.824c-22.191-7.056-44.858-17.638-48.4-19.893s-3.05-4.457-2.074-6a5.443,5.443,0,0,1,6.759-1.4c5.1,2.655,25.819,13.453,43.716,27.287Zm-5.24,8.968c-22.785-5.275-46.383-14.025-50.128-15.992s-3.467-4.2-2.643-5.811a5.385,5.385,0,0,1,6.6-1.925c5.331,2.243,27.014,11.362,46.17,23.728Zm-4.2,8.986c-23.192-3.524-47.516-10.45-51.43-12.126s-3.843-3.922-3.17-5.59,3.454-3.395,6.4-2.419C155.447,118.973,177.9,126.411,198.129,137.278Z" fill="#f31509" fill-rule="evenodd"/>
  <path id="Path_21032" data-name="Path 21032" d="M194.509,147.425c-23.45-1.577-48.376-6.456-52.443-7.8s-4.223-3.585-3.722-5.3,3.1-3.667,6.127-2.94c5.682,1.363,28.788,6.9,50.034,16.044Z" fill="#f31509" fill-rule="evenodd"/>
  <path id="Path_21033" data-name="Path 21033" d="M129.386,141.522h381.23v12.562H129.386Z" fill-rule="evenodd"/>
</svg>
