<svg xmlns="http://www.w3.org/2000/svg" xmlns:xlink="http://www.w3.org/1999/xlink" width="640" height="480" viewBox="0 0 640 480">
  <defs>
    <clipPath id="clip-path">
      <path id="Path_21041" data-name="Path 21041" d="M0,0H640V480H0Z" fill="rgba(0,0,0,0.67)"/>
    </clipPath>
  </defs>
  <g id="namibia" clip-path="url(#clip-path)">
    <path id="Path_21034" data-name="Path 21034" d="M0,0H640V480H0Z" fill="#fff" fill-rule="evenodd"/>
    <path id="Path_21035" data-name="Path 21035" d="M-26.374.224l.8,345.543L512.535,0-26.378.222Z" fill="#3662a2" fill-rule="evenodd"/>
    <path id="Path_21036" data-name="Path 21036" d="M666.37,479.56l-1.262-359.3L122.315,479.832l544.059-.266Z" fill="#38a100" fill-rule="evenodd"/>
    <path id="Path_21037" data-name="Path 21037" d="M-26.028,371.822-25.57,480l117.421-.15L665.375,95.344l-.646-94.05L548.7.224-26.031,371.82Z" fill="#c70000" fill-rule="evenodd"/>
    <path id="Path_21038" data-name="Path 21038" d="M219.556,171.927l-21.733-13.122-12.575,22.1-12.235-22.246-21.93,12.883.536-25.406-25.413.2,13.167-21.759-22.082-12.531,22.27-12.278L126.724,77.862l25.405.487-.15-25.41,21.734,13.125,12.575-22.106L198.523,66.2l21.93-12.88-.536,25.407,25.41-.2-13.165,21.76,22.08,12.532L231.972,125.1l12.84,21.906-25.4-.488Z" fill="#ffe700" fill-rule="evenodd"/>
    <path id="Path_21039" data-name="Path 21039" d="M232.384,112.437a46.615,46.615,0,1,1-46.613-46.253A46.434,46.434,0,0,1,232.384,112.437Z" fill="#3662a2" fill-rule="evenodd"/>
    <path id="Path_21040" data-name="Path 21040" d="M222.267,112.437a36.5,36.5,0,1,1-36.5-36.5A36.5,36.5,0,0,1,222.267,112.437Z" fill="#ffe700" fill-rule="evenodd"/>
  </g>
</svg>
