<svg xmlns="http://www.w3.org/2000/svg" width="640.004" height="480.003" viewBox="0 0 640.004 480.003">
  <g id="new" transform="translate(0 0.003)">
    <path id="Path_21042" data-name="Path 21042" d="M0,0H640V480H0Z" fill="#00006a" fill-rule="evenodd"/>
    <path id="Path_21043" data-name="Path 21043" d="M0,0l318.986,304.34h65.432L72.318.145Z" fill="#fff" fill-rule="evenodd"/>
    <path id="Path_21044" data-name="Path 21044" d="M360.515,304.324,48.2,0,23.894.37,337.517,304.33h23Z" fill="red" fill-rule="evenodd"/>
    <path id="Path_21045" data-name="Path 21045" d="M384.424,0,65.437,304.342H0L312.105.145,384.424,0Z" fill="#fff" fill-rule="evenodd"/>
    <path id="Path_21046" data-name="Path 21046" d="M360.447,0,48.253,304.33l-24.3.012L337.457,0h22.989Z" fill="red" fill-rule="evenodd"/>
    <path id="Path_21047" data-name="Path 21047" d="M161.455,0H222.96V304.336H161.455Z" fill="#fff" fill-rule="evenodd"/>
    <path id="Path_21048" data-name="Path 21048" d="M0,121.736h384.4V182.6H0Z" fill="#fff" fill-rule="evenodd"/>
    <path id="Path_21049" data-name="Path 21049" d="M174.915,0h34.6V304.336h-34.6Z" fill="red" fill-rule="evenodd"/>
    <path id="Path_21050" data-name="Path 21050" d="M0,136.959h384.4v30.433H0Z" fill="red" fill-rule="evenodd"/>
    <path id="Path_21051" data-name="Path 21051" d="M520.008,179.327l-19.577-14.469-20.3,13.424,7.642-23.186L468.8,139.839l24.3.139,8.567-22.854,7.384,23.27,24.26,1.134-19.728,14.243Z" fill="#fff" fill-rule="evenodd"/>
    <path id="Path_21052" data-name="Path 21052" d="M512.157,167.613l-11.58-8.375-11.837,8.007,4.35-13.66-11.237-8.844,14.273-.067,4.893-13.472,4.469,13.62,14.254.516-11.494,8.485Z" fill="red" fill-rule="evenodd"/>
    <path id="Path_21053" data-name="Path 21053" d="M444.878,304.045,425.3,289.576,405,303l7.643-23.186-18.973-15.257,24.3.139,8.566-22.854,7.385,23.271,24.26,1.133-19.728,14.243Z" fill="#fff" fill-rule="evenodd"/>
    <path id="Path_21054" data-name="Path 21054" d="M437.026,292.331l-11.58-8.375-11.836,8.007,4.35-13.66-11.238-8.843L421,269.392l4.892-13.472,4.47,13.62,14.254.516-11.494,8.485Z" fill="red" fill-rule="evenodd"/>
    <path id="Path_21055" data-name="Path 21055" d="M598.633,291.753l-19.576-14.469-20.3,13.424,7.642-23.186L547.43,252.266l24.295.138,8.567-22.853,7.384,23.27,24.26,1.133L592.209,268.2Z" fill="#fff" fill-rule="evenodd"/>
    <path id="Path_21056" data-name="Path 21056" d="M590.782,280.04l-11.58-8.376-11.836,8.007,4.35-13.66-11.238-8.843,14.274-.067,4.892-13.472,4.469,13.619,14.254.516-11.494,8.486Z" fill="red" fill-rule="evenodd"/>
    <g id="Group_7366" data-name="Group 7366">
      <path id="Path_21057" data-name="Path 21057" d="M518.261,469.17,498.684,454.7l-20.3,13.423,7.642-23.185-18.973-15.257,24.3.138,8.566-22.853,7.385,23.27,24.26,1.134-19.728,14.243Z" fill="#fff" fill-rule="evenodd"/>
      <path id="Path_21058" data-name="Path 21058" d="M510.41,457.457l-11.581-8.375-11.836,8.007,4.35-13.66-11.238-8.844,14.274-.067,4.893-13.472,4.468,13.62,14.255.516L506.5,443.667Z" fill="red" fill-rule="evenodd"/>
    </g>
  </g>
</svg>
