<svg id="rwanda" xmlns="http://www.w3.org/2000/svg" width="640" height="480" viewBox="0 0 640 480">
  <path id="Path_21059" data-name="Path 21059" d="M0,0H640V480H0Z" fill="#20603d"/>
  <path id="Path_21060" data-name="Path 21060" d="M0,0H640V360H0Z" fill="#fad201"/>
  <path id="Path_21061" data-name="Path 21061" d="M0,0H640V240H0Z" fill="#00a1de"/>
  <g id="Group_7368" data-name="Group 7368" transform="translate(511 125.4)">
    <g id="b">
      <path id="a" d="M77.4,0,23.795,3.133l50.968,16.9L22.173,9.184,67.031,38.7,19.04,14.61,54.73,54.73,14.61,19.041,38.7,67.032,9.185,22.173l10.848,52.59L3.133,23.795,0,77.4-.667-.667Z" fill="#e5be01"/>
      <path id="Path_21062" data-name="Path 21062" d="M77.4,0,23.795-3.133l50.968-16.9L22.173-9.184,67.031-38.7,19.04-14.61,54.73-54.73,14.61-19.041,38.7-67.032,9.185-22.173l10.848-52.59L3.133-23.795,0-77.4-.667.667Z" fill="#e5be01"/>
    </g>
    <g id="Group_7367" data-name="Group 7367" transform="rotate(180)">
      <path id="a-2" data-name="a" d="M77.4,0,23.795-3.133l50.968-16.9L22.173-9.184,67.031-38.7,19.04-14.61,54.73-54.73,14.61-19.041,38.7-67.032,9.185-22.173l10.848-52.59L3.133-23.795,0-77.4-.667.667Z" fill="#e5be01"/>
      <path id="Path_21063" data-name="Path 21063" d="M77.4,0,23.795,3.133l50.968,16.9L22.173,9.184,67.031,38.7,19.04,14.61,54.73,54.73,14.61,19.041,38.7,67.032,9.185,22.173l10.848,52.59L3.133,23.795,0,77.4-.667-.667Z" fill="#e5be01"/>
    </g>
    <circle id="Ellipse_642" data-name="Ellipse 642" cx="22.867" cy="22.867" r="22.867" transform="translate(-22.867 -22.867)" fill="#e5be01" stroke="#00a1de" stroke-width="2.267"/>
  </g>
</svg>
