<svg xmlns="http://www.w3.org/2000/svg" xmlns:xlink="http://www.w3.org/1999/xlink" width="640.003" height="480" viewBox="0 0 640.003 480">
  <defs>
    <clipPath id="clip-path">
      <path id="Path_21114" data-name="Path 21114" d="M-80,0H560V480H-80Z" fill="rgba(0,0,0,0.67)"/>
    </clipPath>
  </defs>
  <g id="uganda" transform="translate(80)" clip-path="url(#clip-path)">
    <path id="Path_21093" data-name="Path 21093" d="M-120,320.025H600v79.988H-120Z" fill="#ffe700" fill-rule="evenodd"/>
    <path id="Path_21094" data-name="Path 21094" d="M-120,240H600v79.988H-120Z" fill-rule="evenodd"/>
    <path id="Path_21095" data-name="Path 21095" d="M-120,160.012H600V240H-120Z" fill="#de3908" fill-rule="evenodd"/>
    <path id="Path_21096" data-name="Path 21096" d="M-120,80.023H600v79.988H-120Z" fill="#ffe700" fill-rule="evenodd"/>
    <path id="Path_21097" data-name="Path 21097" d="M-120,0H600V79.988H-120Z" fill-rule="evenodd"/>
    <path id="Path_21098" data-name="Path 21098" d="M314.728,240A74.728,74.728,0,1,1,240,165.269,74.728,74.728,0,0,1,314.728,240Z" fill="#fffdff" stroke="#000" stroke-width="0.924" fill-rule="evenodd"/>
    <path id="Path_21099" data-name="Path 21099" d="M226.815,182.709l-4.852-8.935c1.872-1.872,5.021-3.319,10.043-3.319,0,.34-.511,9.788-.511,9.788l-4.68,2.467Z" fill="#de3108" stroke="#000" stroke-width="0.924" fill-rule="evenodd"/>
    <path id="Path_21100" data-name="Path 21100" d="M231.493,180.332l.682-9.872s10.042-.6,15.489,5.957c.084-.084-5.363,7.659-5.363,7.659l-10.808-3.744Z" fill="#ffe700" stroke="#000" stroke-width="0.924" fill-rule="evenodd"/>
    <path id="Path_21101" data-name="Path 21101" d="M242.475,183.99l4.936-7.659c3.319,3.49,4.681,5.958,5.192,9.7.084.084-7.83,1.957-7.83,1.871s-2.212-3.83-2.3-3.915Z" fill="#de3108" stroke="#000" stroke-width="0.924" fill-rule="evenodd"/>
    <path id="Path_21102" data-name="Path 21102" d="M229.284,310.456s9.277-10.639,27.319-8.34c-2.723-4.425-11.489-3.915-11.489-3.915s-2.723-20.681-.6-21.7,11.149.086,11.149.086c1.191,0,3.234-3.234,1.618-5.277s-6.383-9.872-4.426-11.4,12.6.851,12.6.851l-30.042-38.467s-3.064-14.468,3.064-21.447c7.4-6.128,6.638-12.766,6.383-12.682-1.022-6.723-11.234-11.574-18.128-5.362-4.085,4.936-1.361,8.681-1.361,8.681s-10.724,2.893-11.15,4.765,12.085-.339,12.085-.339l-1.191,8.6s-24.341,22.127-5.7,41.276a3.924,3.924,0,0,0,.6-.851s6.553,8.085,13.446,9.872c6.469,6.639,5.873,5.618,5.873,5.618s1.276,10.468.084,12.511c-1.616-.511-18.127-1.106-20.6-.171-2.212.682-10.723.256-8.6,14.128,1.616-3.744,3.064-7.064,3.064-7.064s-.256,5.021,1.787,6.809a15.711,15.711,0,0,1,1.957-8.851s.426,5.787,1.7,6.637,1.277-9.362,8.341-8.511a79.5,79.5,0,0,0,12.17.6s2.383,20,1.617,21.872c-5.107-1.191-17.277.511-18.043,3.575,7.148-.426,10.469.426,10.469.426s-5.787,5.107-4,8.085Z" stroke="#000" stroke-linecap="round" stroke-linejoin="round" stroke-width="0.866" fill-rule="evenodd"/>
    <path id="Path_21103" data-name="Path 21103" d="M232.149,201.327s-17.711,19.522-10.07,34.46c.407-2.083.23-3.392.485-3.307-.426-.255,2.2,1.8,2,1.4a12.8,12.8,0,0,0-.8-3.394l2.4.6-1.4-2.6,3.395.4s-1.2-3.2-.8-3.2,2.795.2,2.795.2c-5.036-9.038-.285-16.545,2-24.562Z" fill="#9ca69c" stroke="#9ca69c" stroke-linecap="round" stroke-linejoin="round" stroke-width="0.866" fill-rule="evenodd"/>
    <path id="Path_21104" data-name="Path 21104" d="M238.3,184.582s.938,6.724-2.723,8.681c-.6.426-2.893,1.191-2.553,2.554.426,1.872,1.447,1.531,2.894,1.191C239.75,196.327,244.176,188.156,238.3,184.582Z" fill="#9ca69c" stroke="#9ca69c" stroke-width="0.924" fill-rule="evenodd"/>
    <path id="Path_21105" data-name="Path 21105" d="M231.754,190.372a1.447,1.447,0,1,1-1.447-1.447A1.447,1.447,0,0,1,231.754,190.372Z" fill="#fff" fill-rule="evenodd"/>
    <path id="Path_21106" data-name="Path 21106" d="M226.048,195.986c-.937.766-5.872,5.873-1.022,7.744,5.022-1.361,3.66-2.3,4.766-3.4.028-2.3-2.5-2.894-3.744-4.341Z" fill="#de3108" stroke="#000" stroke-width="0.924" fill-rule="evenodd"/>
    <path id="Path_21107" data-name="Path 21107" d="M236.769,244.247c-.255,1.106-1.361,5.192.171,8.341,4.256-1.788,6.213-1.277,7.659-.341A35.091,35.091,0,0,1,236.769,244.247Z" fill="#9ca69c" stroke="#9ca69c" stroke-linecap="round" stroke-linejoin="round" stroke-width="0.866" fill-rule="evenodd"/>
    <path id="Path_21108" data-name="Path 21108" d="M244.093,263.566l.255,9.533s3.32.6,4.852,0S249.114,266.46,244.093,263.566Z" fill="#fff" stroke="#fff" stroke-linecap="round" stroke-linejoin="round" stroke-width="0.866" fill-rule="evenodd"/>
    <path id="Path_21109" data-name="Path 21109" d="M268.175,264.755s-6.128-14.808-21.787-18.553-13.617-20.425-12.34-21.447c.682-1.447,1.192-3.659,5.7-1.531s25.278,12.6,28.256,13.106S268.431,265.1,268.175,264.755Z" fill="#9ca69c" stroke="#000" stroke-width="0.924" fill-rule="evenodd"/>
    <path id="Path_21110" data-name="Path 21110" d="M253.282,246.118c-.255.171,20.936,12.511,14.553,23.15,6.043-4,4.086-10.978,4.086-10.978s4.936,12.85-7.064,19.148c1.277,1.106,2.128.85,2.128.85l-2.044,2.044s-.936,1.531,7.15-2.384c-2.213,1.788-2.383,3.064-2.383,3.064s.6,1.7,5.872-2.893c-4.256,4.6-5.192,6.979-5.192,6.893,11.489-1.022,36.51-38.383-7.915-49.447,2.384,2.469,2.043,2.128,2.043,2.128l-11.234,8.425Z" fill="#de3108" stroke="#000" stroke-linejoin="round" stroke-width="0.866" fill-rule="evenodd"/>
    <path id="Path_21111" data-name="Path 21111" d="M254.217,242.46c2.894,2.043,3.914,2.723,4.255,3.745a19.317,19.317,0,0,0-5.021-.426s-5.7-5.447-6.724-5.872c-.766,0-5.191-2.809-5.191-2.809-2.212-1.106-4.255-8.766,3.915-6.553,8.424,4,9.616,4.341,9.616,4.341l10.043,3.149L270.9,244.5s-10.3-5.107-11.574-5.193a19.416,19.416,0,0,1,4.425,5.447,70.562,70.562,0,0,0-9.532-2.3Z" fill="#fff" stroke="#000" stroke-linecap="round" stroke-linejoin="round" stroke-width="0.866" fill-rule="evenodd"/>
    <path id="Path_21112" data-name="Path 21112" d="M214.137,196.753s9.872-2.383,11.063-2.044" fill="none" stroke="#fff" stroke-linecap="round" stroke-width="0.866"/>
    <path id="Path_21113" data-name="Path 21113" d="M-120,400.012H600V480H-120Z" fill="#de3908" fill-rule="evenodd"/>
  </g>
</svg>
