<svg xmlns="http://www.w3.org/2000/svg" xmlns:xlink="http://www.w3.org/1999/xlink" width="640.003" height="480" viewBox="0 0 640.003 480">
  <defs>
    <clipPath id="clip-path">
      <path id="Path_21121" data-name="Path 21121" d="M0,0H640V480H0Z" fill="rgba(0,0,0,0.67)"/>
    </clipPath>
  </defs>
  <g id="united" clip-path="url(#clip-path)">
    <g id="Group_7370" data-name="Group 7370">
      <path id="Path_21115" data-name="Path 21115" d="M0,0H912.009V36.923H0ZM0,73.847H912.009V110.77H0Zm0,73.847H912.009v36.923H0Zm0,73.847H912.009v36.923H0Zm0,73.847H912.009v36.923H0Zm0,73.847H912.009v36.923H0Zm0,73.847H912.009V480H0Z" fill="#bd3d44" fill-rule="evenodd"/>
      <path id="Path_21116" data-name="Path 21116" d="M0,36.923H912.009V73.847H0ZM0,110.77H912.009v36.923H0Zm0,73.847H912.009v36.923H0Zm0,73.847H912.009v36.923H0Zm0,73.847H912.009v36.923H0Zm0,73.847H912.009v36.923H0Z" fill="#fff" fill-rule="evenodd"/>
    </g>
    <path id="Path_21117" data-name="Path 21117" d="M0,0H364.8V258.459H0Z" fill="#192f5d" fill-rule="evenodd"/>
    <g id="Group_7373" data-name="Group 7373">
      <path id="Path_21118" data-name="Path 21118" d="M30.4,11.063l3.319,10.215H44.461L35.77,27.592l3.32,10.215L30.4,31.493l-8.689,6.313,3.319-10.215-8.69-6.314H27.081Zm60.8,0,3.32,10.215h10.742l-8.691,6.314,3.32,10.215L91.2,31.493l-8.689,6.313L85.83,27.592l-8.69-6.314H87.881Zm60.8,0,3.319,10.215h10.742l-8.691,6.314,3.32,10.215L152,31.493l-8.69,6.313,3.319-10.215-8.69-6.314h10.742Zm60.8,0,3.319,10.215h10.741l-8.69,6.314,3.319,10.215L212.8,31.493l-8.691,6.313,3.32-10.215-8.691-6.314h10.742Zm60.8,0,3.319,10.215h10.742l-8.691,6.314,3.32,10.215L273.6,31.493l-8.689,6.313,3.319-10.215-8.69-6.314h10.741Zm60.8,0,3.319,10.215h10.742l-8.691,6.314,3.32,10.215-8.69-6.313-8.691,6.313,3.321-10.215-8.691-6.314h10.742ZM60.8,36.909,64.12,47.124H74.862l-8.691,6.313,3.321,10.216L60.8,57.34l-8.69,6.313,3.319-10.216-8.69-6.313H57.483Zm60.8,0,3.319,10.215H135.66l-8.69,6.313,3.319,10.216L121.6,57.34l-8.691,6.313,3.32-10.216-8.691-6.313h10.742Zm60.8,0,3.319,10.215h10.742l-8.691,6.313,3.32,10.216L182.4,57.34l-8.689,6.313,3.319-10.216-8.69-6.313h10.741Zm60.8,0,3.319,10.215h10.742l-8.691,6.313,3.32,10.216L243.2,57.34l-8.691,6.313,3.322-10.216-8.691-6.313h10.742Zm60.8,0,3.319,10.215h10.741l-8.69,6.313,3.319,10.216L304,57.34l-8.691,6.313,3.32-10.216-8.691-6.313h10.742ZM30.4,62.755,33.719,72.97H44.461L35.77,79.284,39.09,89.5,30.4,83.186,21.711,89.5l3.319-10.215L16.34,72.97H27.081Zm60.8,0L94.52,72.97h10.742l-8.691,6.314L99.891,89.5,91.2,83.186,82.511,89.5,85.83,79.284,77.14,72.97H87.881Zm60.8,0,3.319,10.215h10.742l-8.691,6.314,3.32,10.215L152,83.186l-8.69,6.313,3.319-10.215-8.69-6.314h10.742Zm60.8,0L216.12,72.97h10.741l-8.69,6.314L221.49,89.5,212.8,83.186,204.111,89.5l3.32-10.215L198.74,72.97h10.742Zm60.8,0,3.319,10.215h10.742l-8.691,6.314,3.32,10.215L273.6,83.186,264.913,89.5l3.319-10.215-8.69-6.314h10.741Zm60.8,0,3.319,10.215h10.742l-8.691,6.314,3.32,10.215-8.69-6.313L325.714,89.5l3.321-10.215-8.691-6.314h10.742ZM60.8,88.6,64.12,98.817H74.862l-8.691,6.313,3.321,10.216L60.8,109.033l-8.69,6.313,3.319-10.216-8.69-6.313H57.483Zm60.8,0,3.319,10.216H135.66l-8.69,6.313,3.319,10.216-8.689-6.313-8.691,6.313,3.32-10.216-8.691-6.313h10.742Zm60.8,0,3.319,10.216h10.742l-8.691,6.313,3.32,10.216-8.691-6.313-8.689,6.313,3.319-10.216-8.69-6.313h10.741Zm60.8,0,3.319,10.216h10.742l-8.691,6.313,3.32,10.216-8.69-6.313-8.691,6.313,3.321-10.216-8.691-6.313h10.742Zm60.8,0,3.319,10.216h10.741l-8.69,6.313,3.319,10.216L304,109.033l-8.691,6.313,3.32-10.216-8.691-6.313h10.742ZM30.4,114.448l3.319,10.215H44.461l-8.691,6.314,3.32,10.215L30.4,134.879l-8.689,6.313,3.319-10.215-8.69-6.314H27.081Zm60.8,0,3.32,10.215h10.742l-8.691,6.314,3.32,10.215L91.2,134.879l-8.689,6.313,3.319-10.215-8.69-6.314H87.881Zm60.8,0,3.319,10.215h10.742l-8.691,6.314,3.32,10.215L152,134.879l-8.69,6.313,3.319-10.215-8.69-6.314h10.742Zm60.8,0,3.319,10.215h10.741l-8.69,6.314,3.319,10.215-8.689-6.313-8.691,6.313,3.32-10.215-8.691-6.314h10.742Zm60.8,0,3.319,10.215h10.742l-8.691,6.314,3.32,10.215-8.691-6.313-8.689,6.313,3.319-10.215-8.69-6.314h10.741Zm60.8,0,3.319,10.215h10.742l-8.691,6.314,3.32,10.215-8.69-6.313-8.691,6.313,3.321-10.215-8.691-6.314h10.742ZM60.8,140.294,64.12,150.51H74.862l-8.691,6.313,3.321,10.216L60.8,160.726l-8.69,6.313,3.319-10.216-8.69-6.313H57.483Zm60.8,0,3.319,10.216H135.66l-8.69,6.313,3.319,10.216-8.689-6.313-8.691,6.313,3.32-10.216-8.691-6.313h10.742Zm60.8,0,3.319,10.216h10.742l-8.691,6.313,3.32,10.216-8.691-6.313-8.689,6.313,3.319-10.216-8.69-6.313h10.741Zm60.8,0,3.319,10.216h10.742l-8.691,6.313,3.32,10.216-8.69-6.313-8.691,6.313,3.321-10.216-8.691-6.313h10.742Zm60.8,0,3.319,10.216h10.741l-8.69,6.313,3.319,10.216L304,160.726l-8.691,6.313,3.32-10.216-8.691-6.313h10.742Z" fill="#fff" fill-rule="evenodd"/>
      <g id="Group_7371" data-name="Group 7371">
        <path id="Path_21119" data-name="Path 21119" d="M30.4,166.141l3.319,10.215H44.461L35.77,182.67l3.32,10.215L30.4,186.572l-8.689,6.313,3.319-10.215-8.69-6.314H27.081Zm60.8,0,3.32,10.215h10.742l-8.691,6.314,3.32,10.215L91.2,186.572l-8.689,6.313L85.83,182.67l-8.69-6.314H87.881Zm60.8,0,3.319,10.215h10.742l-8.691,6.314,3.32,10.215L152,186.572l-8.69,6.313,3.319-10.215-8.69-6.314h10.742Zm60.8,0,3.319,10.215h10.741l-8.69,6.314,3.319,10.215-8.689-6.313-8.691,6.313,3.32-10.215-8.691-6.314h10.742Zm60.8,0,3.319,10.215h10.742l-8.691,6.314,3.32,10.215-8.691-6.313-8.689,6.313,3.319-10.215-8.69-6.314h10.741Zm60.8,0,3.319,10.215h10.742l-8.691,6.314,3.32,10.215-8.69-6.313-8.691,6.313,3.321-10.215-8.691-6.314h10.742ZM60.8,191.987,64.12,202.2H74.862l-8.691,6.313,3.321,10.216L60.8,212.419l-8.69,6.313,3.319-10.216-8.69-6.313H57.483Zm60.8,0,3.319,10.216H135.66l-8.69,6.313,3.319,10.216-8.689-6.313-8.691,6.313,3.32-10.216-8.691-6.313h10.742Zm60.8,0,3.319,10.216h10.742l-8.691,6.313,3.32,10.216-8.691-6.313-8.689,6.313,3.319-10.216-8.69-6.313h10.741Zm60.8,0,3.319,10.216h10.742l-8.691,6.313,3.32,10.216-8.69-6.313-8.691,6.313,3.321-10.216-8.691-6.313h10.742Zm60.8,0,3.319,10.216h10.741l-8.69,6.313,3.319,10.216L304,212.419l-8.691,6.313,3.32-10.216-8.691-6.313h10.742Z" fill="#fff" fill-rule="evenodd"/>
      </g>
      <g id="Group_7372" data-name="Group 7372">
        <path id="Path_21120" data-name="Path 21120" d="M30.4,217.834l3.319,10.215H44.461l-8.691,6.314,3.32,10.215L30.4,238.265l-8.689,6.313,3.319-10.215-8.69-6.314H27.081Zm60.8,0,3.32,10.215h10.742l-8.691,6.314,3.32,10.215L91.2,238.265l-8.689,6.313,3.319-10.215-8.69-6.314H87.881Zm60.8,0,3.319,10.215h10.742l-8.691,6.314,3.32,10.215L152,238.265l-8.69,6.313,3.319-10.215-8.69-6.314h10.742Zm60.8,0,3.319,10.215h10.741l-8.69,6.314,3.319,10.215-8.689-6.313-8.691,6.313,3.32-10.215-8.691-6.314h10.742Zm60.8,0,3.319,10.215h10.742l-8.691,6.314,3.32,10.215-8.691-6.313-8.689,6.313,3.319-10.215-8.69-6.314h10.741Zm60.8,0,3.319,10.215h10.742l-8.691,6.314,3.32,10.215-8.69-6.313-8.691,6.313,3.321-10.215-8.691-6.314h10.742Z" fill="#fff" fill-rule="evenodd"/>
      </g>
    </g>
  </g>
</svg>
