<svg xmlns="http://www.w3.org/2000/svg" xmlns:xlink="http://www.w3.org/1999/xlink" width="640.003" height="480" viewBox="0 0 640.003 480">
  <defs>
    <clipPath id="clip-path">
      <path id="Path_21138" data-name="Path 21138" d="M-160,0H480V480H-160Z" fill="rgba(0,0,0,0.67)"/>
    </clipPath>
  </defs>
  <g id="zambia" transform="translate(160.003)" clip-path="url(#clip-path)">
    <path id="Path_21122" data-name="Path 21122" d="M-240,0H480V480H-240Z" fill="#198a00" fill-rule="evenodd"/>
    <path id="Path_21123" data-name="Path 21123" d="M395.5,172.444H480V479.972H395.5Z" fill="#ef7d00" fill-rule="evenodd"/>
    <path id="Path_21124" data-name="Path 21124" d="M311.109,172.294h84.4V479.888h-84.4Z" fill-rule="evenodd"/>
    <path id="Path_21125" data-name="Path 21125" d="M224.953,172.481h86.189V480H224.953Z" fill="#de2010" fill-rule="evenodd"/>
    <g id="Group_7374" data-name="Group 7374">
      <path id="Path_21126" data-name="Path 21126" d="M423.384,61.491S455.182,47.9,458.263,45.1c1.4,1.681-12.747,18.77-40.2,25.073,24.933-5.884,46.224-24.373,50.566-23.812,1.261.28.981,18.069-56.169,33.478,39.5-10.367,62.472-29.416,62.193-27.315.279.42-3.922,14.987-38.52,26.334,9.666-2.243,35.859-18.21,35.578-15.128.841,1.261-25.353,34.878-72.694,23.953,37.819,9.8,62.332-13.868,65.833-13.448.7.141-7,20.731-54.628,21.991,22.833-2.381,16.248-.141,16.248-.141s-13.447,10.506-29.7,3.363c12.747,3.5,14.147,3.642,14.428,4.762-.841,1.4-11.347,3.5-21.431-1.961,8.123,3.361,15.408,3.923,15.547,5.183-.14.42-5.322,3.362-9.944,1.261s-47.2-28.295-47.2-28.295l72.555-19.891,2.662.981Zm-85.3,70.855c-6.381,0-6.557,5.677-6.557,5.677s-.526.41-.175,3.162a15.675,15.675,0,0,1,1.581-2.46c.7.118,3.629,1,8.254-2.633-4.215,4.389-1.7,6.029-1.7,6.029s-1,3.454,2.224,4.157a2.714,2.714,0,0,1-.41-2.634s4.508-.469,4.215-5.971c.175,4.975,2.869,6.2,2.869,6.2a3.025,3.025,0,0,0,2.926,2.986,4.226,4.226,0,0,1-1.229-3.572s3.805-2.751.585-7.434c1.931-1.112,3.513-4.214,3.513-4.214a23.689,23.689,0,0,1-3.862-2.048c-.587-1.23-.059-7.961-.059-7.961l-1.581-8.722-4.508,13.582c.175-1.931.293,5.854-6.087,5.854Z" fill="#ef7d00" stroke="#000" stroke-linejoin="round" stroke-width="0.931" fill-rule="evenodd"/>
      <path id="Path_21127" data-name="Path 21127" d="M369.6,112.754c.14.141,4.762,5.324,9.244,5.044,1.681-1.4-3.5-4.483-3.5-5.183,1.822,1.681,9.525,8.264,14.428,5.883,1.96-2.8-3.5-2.381-9.525-9.945,4.2,2.8,14.707,8.964,19.61,6.584,2.1-2.242-10.926-9.246-15.268-14.708l-11.2-5.742-15.268,12.466,11.486,5.6Z" fill="#ef7d00" stroke="#000" stroke-linejoin="round" stroke-width="0.931" fill-rule="evenodd"/>
      <path id="Path_21128" data-name="Path 21128" d="M352.366,70.175s5.183-3.082,25.913-1.541c2.241.28,14.147-4.062,17.93-5.322,6.023-1.121,25.212-5.323,30.4-9.245,3.642-.421-.982,6.723-5.6,8.4-4.9,2.242-22.692,8.4-29,7.565,7.566.141,3.363,6.3-9.244,3.362,6.023,3.362,3.782,3.922,3.782,3.922S375.9,77.879,373.1,75.5c7.144,2.662,4.2,3.642,4.2,3.642s-7.283.7-10.645-.841c5.183,1.541,2.522,2.522,2.522,2.522a17.661,17.661,0,0,1-7.7-.561c-3.5-1.261-8.825-10.085-9.105-10.085Z" fill="#ef7d00" stroke="#000" stroke-linecap="round" stroke-linejoin="round" stroke-width="0.931" fill-rule="evenodd"/>
      <path id="Path_21129" data-name="Path 21129" d="M360.678,115.659l.761,13.7a9.333,9.333,0,0,1-.761,1.112c-.352.41-9.717-1.463-8.43,5.678,0,2.927.059,3.687,2.049,5.327a9.167,9.167,0,0,1-.351-3.278s2.633,1.581,5.21-2.751c-1.756,4.273-.528,5.795-.118,5.912.411.761-.7,4.215,2.811,4.156a3.191,3.191,0,0,1-.7-3.161s3.689-.584,2.4-7.258c1.347-1.346,1.874-.058,1.874-.058s.41,3.98,3.629,3.16c1.464.819-.234,2.986-.234,2.986a3.232,3.232,0,0,0,3.044-1.932c.7-1.99,1.522-5.561-2.342-7.025-.468-1.4,1.522-1.522,1.522-1.522s2.459.819,3.161,2.048.469-3.219-2.575-3.688c-3.747-.117-3.981-.878-3.981-1.053s-.644-9.952-.937-12.761l-6.029.409Z" fill="#ef7d00" stroke="#000" stroke-linejoin="round" stroke-width="0.931" fill-rule="evenodd"/>
      <path id="Path_21130" data-name="Path 21130" d="M373.711,127.331c.047-.628-6.391-9.3-4.758-10.416,1.632.336,4.31,4.278,6.478,3-.657-1.537-2.6-.671-4.8-4.605-2.2-4.447-2.52-11.122-10.224-18.405,4.988,7.706,16.3,12.223,16.781,9.977s-9.963-10.744-9.428-12.792c2.077,4.206,12.561,13.576,20.286,12.8.53-1.8-6.326-5.445-8.091-8.844-4.934-3.315-18.141-14.7-18.4-17.338-4.806-7.008-7.806-9.128-9.2-9.937a3.778,3.778,0,0,1-.781-1.63c-2.983-7.032.968-9.316,3.281-9.653,1.9-.212,2.455.073,3.825-.591-1.622-.634-3.244-1.227-4.864-1.862,2.114,1.551,7.514.186,6.343,4.653,2.368-.9,7.406-6.894-5.709-8.247-4.268-4.9-21.817-7.711-26.21,13.659a16.936,16.936,0,0,0,1.65,1.38c-5.545-2.68-20.492-4.751-25.877-5.622-14.556-4.2-29.67-14.317-31.123-13.073-1.943.862,8.794,10.852,8.235,11.072A248.283,248.283,0,0,0,255.4,48.081c-5.568-2.081-11.143-6.925-11.758-6-2.049,4.244,8.925,14.914,10.967,16.168,2.041,1.2,18.1,8.648,17.859,8.741C248.285,56.01,244.23,54.021,243.017,52.755c-2.132-.481-7.324-7.491-8.77-7.04-.792.778.8,11.855,12.336,16.827,1.881,1.371,24.735,9.569,24.511,10.212-.056.16-26.176-10.781-27.191-11.172-5.035-1.975-11.214-8.9-12.37-8.119-1.1.707,2.849,8.2,7.938,10.549,2.667,1.177,12.9,6.244,22.116,9.47.589.213-16.568-6.506-24.818-9.953-3.741-2.076-5.5-4.663-6.071-4.106-.843.556,1.361,11.624,27.87,17.869.7.3,9.331-2.046,8.9-1.734-.107.078-8.573,1.921-9.4,1.857a22.853,22.853,0,0,0-5.455.789c-.28.749,1.681,4.712,15.367,3.886,1.75-.106,11.245-3.458,10.448-2.737-.4.361-12.93,4.433-13.884,4.513-.829.117-5.231.577-5.394,1.046-.2.638,3.259,3.459,10.609,3.91,6.508.347,18.875-3.976,18.626-3.7s-11.92,4.28-12.227,4.523c-.422.239-4.7.471-4.847.8-.348.816,6.166,6.908,25.432.407-1.936,2.615-11.274,4.4-11.26,4.873-.044.341,2.057,2.372,5.322,3.1a17.124,17.124,0,0,0,5.909-.034c3.666-.734,7.531-2.184,12.441-6.722.587,1.424-12.265,7.927-11.663,8.548,2.788,2.584,12.045-.334,12.652-.672s17.827-10.05,17.767-11.173c.268,1.44-22.2,13.648-21.957,14.15,1.442,2.3,9.117-.122,9.484-.333s9.8-5.3,10.054-5.455-11.081,6.637-10.072,7.67c-.488,4.407,17.709-3.041,19.134-3.969.714-.463-8.741,4.158-8.766,6.353,3.044,5.148,12.793,3.516,14.3,2.383.752-.567-.885,3.824-.357,3.425a16.956,16.956,0,0,0,2.865-4.03c-.238,1.438-1.307,3.7-1.93,6.3s-.8,5.533-1.659,8.649c-.2,1.369,6.007-2.676,5.106-12.347.531,5.031-1.959,14.437-1.308,14.925,1.3.978,4.907-4.685,5.271-8.513,1.071,1.933,3.316,5.97,5.248,6.9-.211-2.927.037-2.793-.833-5.668.5-3.818.572-9.1.694-15.068,5.249,10.057,7.343,14.3,5.876,22,1.561.651,4.055-5.376,3.853-8.477,2.005,8.618,10.658,9.911,10.8,9.66Z" fill="#ef7d00" stroke="#000" stroke-linecap="round" stroke-linejoin="round" stroke-width="0.993" fill-rule="evenodd"/>
      <path id="Path_21131" data-name="Path 21131" d="M286.271,63.488a13.953,13.953,0,0,1-8.019,2.541c1.111,4.446,10.322,1.031,10.322,1.031s-4.447,4.924-7.623,5.718c1.906,1.587,9.925,1.031,11.275.238s3.731-3.891,3.731-3.891-8.258,9.528-9.448,9.447c-.159,1.112,8.655.714,10.481-.952a44.117,44.117,0,0,1,6.431-4.129s-12.068,8.416-12.624,8.416c4.525,1.191,13.578-1.429,19.374-5-8.576,5.717-9.369,6.75-13.736,8.655,3.891.873,5.875,3.493,19.057-2.224a31.989,31.989,0,0,0,11.83-10.084c-4.685,6.272-12.069,11.593-20.247,16.833-.477.953,8.734,4.843,20.484-7.385" fill="#ef7d00" stroke="#000" stroke-linecap="round" stroke-linejoin="round" stroke-width="0.993" fill-rule="evenodd"/>
      <path id="Path_21132" data-name="Path 21132" d="M350.11,90.006a13.65,13.65,0,0,0,3.97,6.591c3.176,2.858,3.414,5.637,3.414,5.637m-8.97-36.524a11.706,11.706,0,0,0,4.367,5.48c3.335,2.143,8.338,8.892,8.735,10.084.384,1.442,2.3,11.831,2.143,12.942M328.277,70.87c.238,1.271-4.686,7.7,2.063,15.246-6.114,7.463-6.112,8.416-6.112,8.416s3.413,1.906,9.528-3.335c10.083,12.387,6.723,18.056,6.723,18.056" fill="#ef7d00" stroke="#000" stroke-linecap="round" stroke-width="0.993" fill-rule="evenodd"/>
      <path id="Path_21133" data-name="Path 21133" d="M339.675,100.51s-.928-1.331.727-6.3c1.491,1.8,3.15,2.181,3.877,2.907s8.34,1.83,8.824,6.919" fill="#ef7d00" stroke="#000" stroke-linecap="round" stroke-linejoin="round" stroke-width="0.993" fill-rule="evenodd"/>
      <path id="Path_21134" data-name="Path 21134" d="M348.622,53.871c0-.374-1.533-3.664-7.252.448C344.436,54.506,347.464,56.263,348.622,53.871Z" fill="#ef7d00" stroke="#000" stroke-width="0.993" fill-rule="evenodd"/>
      <path id="Path_21135" data-name="Path 21135" d="M403.213,68.914c.281.141,17.09,3.782,22.692,1.961-7.144,9.525-21.431,3.082-21.431,3.082,7,2.1,7.284,1.961,9.525,3.922.7,1.822-12.887.981-17.369-1.54,12.467,3.922,12.746,3.641,13.167,5.183.561,2.1-20.451-.561-22.271-3.362,5.6,4.342,8.684,5.183,11.766,7.144-3.782,1.681-10.785,3.362-23.672-5.743,16.948,15.408,32.216,14.428,34.6,17.229C404.334,105.473,381.5,91.606,371,84.6s22.972,16.95,26.054,16.528c-1.541,2.381-12.607.281-13.308-.84" fill="#ef7d00" stroke="#000" stroke-linejoin="round" stroke-width="0.993" fill-rule="evenodd"/>
      <path id="Path_21136" data-name="Path 21136" d="M407.557,85.022a61.76,61.76,0,0,1-8.683.141" fill="#ef7d00" stroke="#000" stroke-linecap="round" stroke-width="0.993" fill-rule="evenodd"/>
      <path id="Path_21137" data-name="Path 21137" d="M281.348,60.946s12.784,6.749,18.183,6.272a9.364,9.364,0,0,1-3.574,1.906,15.946,15.946,0,0,0,10.72,1.271c-1.35,1.35-3.1,2.858-3.1,2.858A13.521,13.521,0,0,0,313.9,72.221a42.538,42.538,0,0,0-2.62,3.572l3.811.239" fill="#ef7d00" stroke="#000" stroke-linecap="round" stroke-linejoin="round" stroke-width="0.993" fill-rule="evenodd"/>
    </g>
  </g>
</svg>
