<?xml version="1.0" encoding="utf-8"?>
<!-- Generator: Adobe Illustrator 25.2.0, SVG Export Plug-In . SVG Version: 6.00 Build 0)  -->
<svg version="1.1" id="Layer_1" xmlns="http://www.w3.org/2000/svg" xmlns:xlink="http://www.w3.org/1999/xlink" x="0px" y="0px"
	 viewBox="0 0 400 400" style="enable-background:new 0 0 400 400;" xml:space="preserve">
<style type="text/css">
	.st0{opacity:0.2;fill:#EA1B24;enable-background:new    ;}
	.st1{opacity:0.4;fill:#EA1B24;enable-background:new    ;}
	.st2{opacity:0.6;fill:#EA1B24;enable-background:new    ;}
	.st3{fill:#FDDEDF;}
	.st4{opacity:0.3;fill:#EA1B24;enable-background:new    ;}
	.st5{fill:#EA1B24;}
	.st6{fill:#F4F4F4;}
	.st7{fill:#007CFF;}
	.st8{fill:#03345F;}
	.st9{fill:none;stroke:#FFFFFF;stroke-miterlimit:10;}
	.st10{fill:#FFFFFF;}
	.st11{opacity:0.1;}
	.st12{fill:none;stroke:#F1F1F1;stroke-miterlimit:10;}
	.st13{fill:#F1F1F1;}
	.st14{fill:#FAFBFF;}
</style>
<g>
	<g id="Group_4513" transform="translate(-45 -100)">
		<circle id="Ellipse_150_1_" class="st0" cx="245.13" cy="293.82" r="143.75"/>
		<circle id="Ellipse_154_1_" class="st1" cx="245.13" cy="293.82" r="113.8"/>
		<ellipse id="Ellipse_155_1_" class="st2" cx="244.53" cy="295.02" rx="84.45" ry="83.85"/>
		<circle id="Ellipse_159_1_" class="st3" cx="245.13" cy="293.82" r="143.75"/>
		<circle id="Ellipse_160_1_" class="st4" cx="245.13" cy="293.82" r="113.8"/>
		<ellipse id="Ellipse_161_1_" class="st1" cx="244.53" cy="295.02" rx="84.45" ry="83.85"/>
		<g id="Group_1094_2_" transform="translate(242.64 265.484)">
			<g id="Group_1093_2_" transform="translate(7.261 9.048)">
				<path id="Path_1033_2_" class="st5" d="M101.5,153.18c9.04-33.34-3.98-68.23-4.11-68.58l-0.45,0.17
					c0.13,0.35,13.09,35.1,4.1,68.28L101.5,153.18z"/>
			</g>
			<path id="Path_1034_2_" class="st5" d="M107.64,103.64c-0.89,0.06-0.62-3.93-0.21-6.14c0.41-2.21,1.08-4.85,2.71-4.89
				c1.63-0.04,1.6,4.8,1.11,6.52C110.77,100.85,109.72,103.51,107.64,103.64z"/>
			<path id="Path_1035_2_" class="st5" d="M108.62,109.73c1.03-0.73-1.54-3.4-3.26-4.89c-1.73-1.48-4.09-3.43-5.87-1.84
				c-1.78,1.59,0.74,4.64,3.73,5.91C105.34,109.82,107.83,110.3,108.62,109.73z"/>
			<path id="Path_1036_2_" class="st5" d="M110.6,120.36c-0.15-2.67,0.67-5.31,2.32-7.42c2.68-3.04,4.99-3.82,6.47-2.76
				c1.48,1.07,1.13,3.9-2.03,7.25C114.19,120.8,111.22,121.8,110.6,120.36z"/>
			<path id="Path_1037_2_" class="st5" d="M111.05,129.32c0.84,0.58,0.48-5.06-3.08-7.43c-3.56-2.37-9.77-2.54-10.78,0.09
				c-0.91,2.36,2.03,3.76,4.25,3.88C104.92,126.03,108.26,127.24,111.05,129.32z"/>
			<path id="Path_1038_2_" class="st5" d="M111.6,143.66c-0.02,1.15-2.72-1.04-4.16-1.51s-6.4-0.39-9-2.46
				c-2.6-2.07-3.58-4.42-2.52-5.94c1.07-1.52,4.46-1.68,7.68-0.04S111.67,139.87,111.6,143.66z"/>
			<path id="Path_1039_2_" class="st5" d="M111.29,149.33c-0.68-1.09,1.33-4.18,3.67-5.62c2.34-1.44,5.74-2.64,7.35-0.1
				s-2.54,4.46-4.77,5.34C115.31,149.82,112.37,151.05,111.29,149.33z"/>
			<path id="Path_1040_2_" class="st5" d="M111.6,131.94c-0.87-1.84,2.87-4.95,5.9-5.84c3.02-0.89,7.28-0.69,7.5,2.58
				C125.21,131.95,113.13,135.16,111.6,131.94z"/>
			<path id="Path_1041_2_" class="st5" d="M105.33,96.8c-1.27,0.5-4.14-3.93-5.33-6.22c-1.19-2.3-2.97-6.73-0.06-7.63
				s4.79,3.14,5.88,6.3C106.91,92.41,106.98,96.15,105.33,96.8z"/>
		</g>
	</g>
	<g id="Shadow--inject-62">
		<ellipse id="path--inject-62" class="st6" cx="198.81" cy="343.84" rx="108.97" ry="6.36"/>
	</g>
	<g>
		<g>
			<g>
				
					<rect x="116.83" y="179.43" transform="matrix(0.698 -0.7161 0.7161 0.698 -131.4271 183.4811)" class="st7" width="70" height="136.28"/>
				<polygon class="st8" points="225.06,270.07 176.19,320.2 78.61,225.07 110.68,192.18 127.48,174.94 130.6,177.98 				"/>
			</g>
			
				<rect x="121.33" y="183.91" transform="matrix(0.698 -0.7161 0.7161 0.698 -131.3695 183.7816)" class="st9" width="61.77" height="127.48"/>
			
				<ellipse transform="matrix(0.698 -0.7161 0.7161 0.698 -131.0834 183.0526)" class="st10" cx="151.5" cy="246.95" rx="12.82" ry="16.08"/>
		</g>
		<polygon class="st11" points="173.47,279.62 155.55,286.91 110.68,192.18 127.48,174.94 130.6,177.98 		"/>
		<g>
			<g>
				
					<rect x="128.6" y="141.65" transform="matrix(0.9206 -0.3906 0.3906 0.9206 -68.9444 80.5624)" class="st7" width="70" height="136.28"/>
				
					<rect x="128.6" y="141.65" transform="matrix(0.9206 -0.3906 0.3906 0.9206 -68.9444 80.5624)" class="st8" width="70" height="136.28"/>
			</g>
			
				<rect x="133.04" y="146.28" transform="matrix(0.9206 -0.3906 0.3906 0.9206 -69.0063 80.7066)" class="st12" width="61.77" height="127.48"/>
			
				<ellipse transform="matrix(0.9206 -0.3906 0.3906 0.9206 -68.6744 80.4784)" class="st13" cx="163.53" cy="209.09" rx="12.82" ry="16.08"/>
		</g>
	</g>
	<g>
		<g>
			<path class="st14" d="M160.08,164.82c-5.42,0-10.28-2.8-13.01-7.48c-2.73-4.7-2.75-10.33-0.05-15.05l43.13-75.23
				c2.71-4.72,7.57-7.55,13.01-7.56c0.02,0,0.03,0,0.05,0c5.42,0,10.28,2.79,13.01,7.48l43.59,74.96c2.73,4.7,2.75,10.33,0.05,15.05
				c-2.71,4.72-7.57,7.55-13.01,7.56l-86.71,0.27C160.12,164.82,160.1,164.82,160.08,164.82z"/>
		</g>
		<g>
			<path class="st5" d="M196.18,143.24c-0.03-3.9,3.04-7.01,7.3-7.04c4.17-0.03,7.19,3.04,7.22,6.94c0.03,3.9-2.94,7.1-7.12,7.13
				C199.32,150.3,196.21,147.14,196.18,143.24z M196.42,86.15l13.43-0.09l-1.97,42.48l-8.99,0.06L196.42,86.15z"/>
		</g>
	</g>
	<g>
		<path class="st5" d="M307.19,230.76l-83.32,103.85c-4.47,5.57-11.06,8.43-17.67,8.35c-2.62-0.81-5.16-2.11-7.45-3.95l-57.12-45.82
			c-9.6-7.71-11.14-21.75-3.44-31.35l83.34-103.86c4.47-5.55,11.04-8.42,17.67-8.33c2.62,0.81,5.16,2.11,7.45,3.95l57.12,45.81
			C313.37,207.11,314.91,221.15,307.19,230.76z"/>
		
			<rect x="173.77" y="189.36" transform="matrix(0.7832 0.6217 -0.6217 0.7832 187.2944 -58.6012)" class="st13" width="7.82" height="99.86"/>
		<polygon class="st13" points="158.46,287.82 152.36,282.93 214.43,204.73 220.54,209.62 		"/>
		<polygon class="st13" points="167.34,294.95 161.24,290.05 223.31,211.85 229.42,216.75 		"/>
		
			<rect x="226.98" y="232.04" transform="matrix(0.7832 0.6217 -0.6217 0.7832 225.3631 -82.4302)" class="st8" width="7.82" height="99.86"/>
		<path class="st13" d="M274.57,219.85l-8.49,10.59l-3.63-2.88c-3.65-2.91-4.26-8.22-1.37-11.88l5.59-7.04l7.31,5.85
			C275.62,215.81,275.88,218.21,274.57,219.85z"/>
		<path class="st13" d="M275.07,213.13l-7.31-5.85l6.17-7.76c2.89-3.66,8.22-4.26,11.88-1.37l3.77,2.99l-9.15,11.41
			C279.11,214.2,276.72,214.46,275.07,213.13z"/>
		<path class="st13" d="M281.29,220.36l7.35,5.89l-5.5,6.93c-2.89,3.66-8.21,4.29-11.87,1.38l-3.83-3.04l8.48-10.57
			C277.24,219.3,279.63,219.04,281.29,220.36z"/>
		<path class="st13" d="M295.98,217.01l-6.26,7.88l-7.35-5.89c-1.64-1.33-1.9-3.72-0.59-5.36l9.15-11.41l3.67,2.91
			C298.27,208.03,298.88,213.35,295.98,217.01z"/>
	</g>
</g>
</svg>
