<svg xmlns="http://www.w3.org/2000/svg" width="136.301" height="167.261" viewBox="0 0 136.301 167.261">
  <g id="sale" transform="translate(-108.471 -155.955)">
    <circle id="Ellipse_178" data-name="Ellipse 178" cx="66.206" cy="66.206" r="66.206" transform="translate(108.471 176.991)" fill="#ffcb05" opacity="0.2"/>
    <circle id="Ellipse_179" data-name="Ellipse 179" cx="57.931" cy="57.931" r="57.931" transform="translate(116.747 185.267)" fill="#ffcb05"/>
    <g id="Group_4589" data-name="Group 4589">
      <path id="Path_4117" data-name="Path 4117" d="M72.36,152.529h69.119c3.84,0,6.982-4.2,6.982-9.332V17.21c0-5.133-3.142-9.333-6.982-9.333H95.051L65.378,36.108V143.2C65.378,148.33,68.52,152.529,72.36,152.529Z" transform="translate(104.956 131.714) rotate(17)" fill="#e0e4e8"/>
      <path id="Path_4119" data-name="Path 4119" d="M180.31,39.385v140.55H96.886l.023-117.306,27.433-23.244Z" transform="translate(80.163 93.162) rotate(17)" fill="#fff"/>
      <path id="Path_4123" data-name="Path 4123" d="M95.59,7.877,65.378,36.108H88.659c3.91,0,7.109-4.2,7.109-9.333Z" transform="translate(102.283 130.897) rotate(17)" fill="#e0e4e8"/>
      <path id="Path_4124" data-name="Path 4124" d="M82.125,31.216H58.817a2.219,2.219,0,0,1-1.793-1.54,2.052,2.052,0,0,1,.717-2.42L88.4.635a1.782,1.782,0,0,1,1.793-.22,2.463,2.463,0,0,1,.9,1.98V20.216C91.089,26.376,87.145,31.216,82.125,31.216Zm-17.75-4.4h17.75c3.048,0,5.379-2.86,5.379-6.6V6.575Z" transform="translate(104.645 139.173) rotate(17)" fill="#03345f"/>
      <rect id="Rectangle_3425" data-name="Rectangle 3425" width="4.666" height="4.666" rx="1" transform="translate(193.305 200.414) rotate(17)" fill="#03345f"/>
      <rect id="Rectangle_3426" data-name="Rectangle 3426" width="4.666" height="4.666" rx="1" transform="translate(206.318 204.392) rotate(17)" fill="#03345f"/>
      <rect id="Rectangle_3428" data-name="Rectangle 3428" width="43.826" height="4.666" rx="2" transform="translate(165.39 205.695) rotate(17)" fill="#03345f"/>
      <path id="Path_4118" data-name="Path 4118" d="M137.973,147.481H66.543c-5.063,0-9.042-5.07-9.042-11.522V30.188a3.182,3.182,0,0,1,.723-1.844L89.147.461A2.218,2.218,0,0,1,90.232,0h47.921c5.063,0,9.042,5.07,9.042,11.522V135.959C147.015,142.411,143.036,147.481,137.973,147.481ZM61.118,31.34V135.959c0,3.918,2.351,6.913,5.425,6.913h71.611c3.074,0,5.425-3,5.425-6.913V11.522c0-3.918-2.351-6.913-5.425-6.913H90.775Z" transform="translate(104.008 139.143) rotate(17)" fill="#03345f"/>
      <g id="Group_4588" data-name="Group 4588" transform="translate(165.478 241.508) rotate(17)">
        <rect id="Rectangle_3424" data-name="Rectangle 3424" width="62.493" height="34.355" transform="translate(71.555 34.554) rotate(162.83)" fill="#ec1b23"/>
        <path id="Path_4120" data-name="Path 4120" d="M11.755,54.513a1.4,1.4,0,0,1-.777-.156,1.592,1.592,0,0,1-.777-.933L.1,20.623A1.578,1.578,0,0,1,1.184,18.6L60.88.1a1.217,1.217,0,0,1,1.244.156,1.512,1.512,0,0,1,.777.933l10.1,32.8a1.578,1.578,0,0,1-1.088,2.021l-59.7,18.5ZM3.671,21.244l9.172,29.848L69.431,33.526,60.258,3.678Z" transform="translate(0 0)" fill="#03345f"/>
        <path id="Path_4121" data-name="Path 4121" d="M3.731,30,0,17.722a4.492,4.492,0,0,0,2.954-5.6L42.129,0a4.492,4.492,0,0,0,5.6,2.954l3.731,12.281a4.492,4.492,0,0,0-2.954,5.6L9.328,32.957A4.553,4.553,0,0,0,3.731,30Z" transform="translate(10.823 10.829)" fill="#fff"/>
        <ellipse id="Ellipse_173" data-name="Ellipse 173" cx="13.835" cy="10.415" rx="13.835" ry="10.415" transform="translate(30.737 43.586) rotate(-107.17)" fill="#ec1b23"/>
        <ellipse id="Ellipse_174" data-name="Ellipse 174" cx="2.487" cy="2.487" rx="2.487" ry="2.487" transform="translate(52.486 19.224)" fill="#ec1b23"/>
        <ellipse id="Ellipse_175" data-name="Ellipse 175" cx="2.487" cy="2.487" rx="2.487" ry="2.487" transform="translate(15.642 30.572)" fill="#ec1b23"/>
      </g>
      <path id="Path_4122" data-name="Path 4122" d="M4.611,9.794,4.3,9.017a5.906,5.906,0,0,1-3.265-.311L1.5,7.462a4.075,4.075,0,0,0,2.332.311L3.367,5.441A8.259,8.259,0,0,1,1.19,5.286,1.778,1.778,0,0,1,.1,4.042,2.6,2.6,0,0,1,.258,2.177,3.1,3.1,0,0,1,1.812.933L1.657.156,2.434,0l.156.622A5.1,5.1,0,0,1,5.232.777L4.921,2.021a3.829,3.829,0,0,0-1.865-.156l.622,2.176h0a4.3,4.3,0,0,1,2.177.311,1.764,1.764,0,0,1,1.088,1.4,2.6,2.6,0,0,1-.156,1.865,2.921,2.921,0,0,1-1.71,1.244l.311.777ZM1.5,2.488a1.164,1.164,0,0,0-.156.777c.156.311.156.466.466.466.156.156.466.156.933.156L2.123,1.866C1.968,2.177,1.657,2.332,1.5,2.488ZM5.543,6.84A1.4,1.4,0,0,0,5.7,6.063c-.156-.311-.156-.466-.466-.622-.156-.155-.622-.155-1.088-.155l.622,2.021A.855.855,0,0,0,5.543,6.84Z" transform="translate(190.563 272.692) rotate(17)" fill="#fff"/>
      <rect id="Rectangle_3431" data-name="Rectangle 3431" width="43.826" height="4.666" rx="2" transform="translate(161.39 217.695) rotate(17)" fill="#03345f"/>
      <rect id="Rectangle_3432" data-name="Rectangle 3432" width="25.826" height="4.666" rx="2" transform="translate(157.997 232.326) rotate(17)" fill="#03345f"/>
    </g>
  </g>
</svg>
