<svg xmlns="http://www.w3.org/2000/svg" xmlns:xlink="http://www.w3.org/1999/xlink" width="240" height="240" viewBox="0 0 240 240"><defs><style>.a,.b,.c,.d,.e{fill:#d1f5eb;}.a{opacity:0.2;}.b{opacity:0.4;}.c{opacity:0.6;}.d{opacity:0.3;}.e{opacity:0.5;}.f{fill:#5cd9b8;}.g{fill:#fff;}.h{fill:#3f3d56;}.i{fill:url(#a);}.j{fill:#ffbda1;}.k{fill:#2f2e41;}.l,.o{fill:#0e1333;}.l,.m{opacity:0.1;}.n{fill:#03345f;}</style><linearGradient id="a" x1="0.505" y1="1.007" x2="0.505" gradientUnits="objectBoundingBox"><stop offset="0" stop-color="gray" stop-opacity="0.251"/><stop offset="0.54" stop-color="gray" stop-opacity="0.122"/><stop offset="1" stop-color="gray" stop-opacity="0.102"/></linearGradient></defs><g transform="translate(-45 -100)"><circle class="a" cx="120" cy="120" r="120" transform="translate(45 100)"/><circle class="b" cx="95" cy="95" r="95" transform="translate(70 125)"/><ellipse class="c" cx="70.5" cy="70" rx="70.5" ry="70" transform="translate(94 151)"/><circle class="a" cx="120" cy="120" r="120" transform="translate(45 100)"/><circle class="d" cx="95" cy="95" r="95" transform="translate(70 125)"/><ellipse class="e" cx="70.5" cy="70" rx="70.5" ry="70" transform="translate(94 151)"/><g transform="translate(184.199 193.471)"><ellipse class="f" cx="18.801" cy="23.49" rx="18.801" ry="23.49" transform="translate(8.405 1.808)"/><path class="g" d="M573.622,436.317a26.706,26.706,0,1,1-26.706-26.707,26.706,26.706,0,0,1,26.706,26.707ZM543.83,450.453l19.81-19.81a1.721,1.721,0,0,0,0-2.437l-2.437-2.42a1.718,1.718,0,0,0-2.434,0l-16.157,16.158-7.544-7.562a1.728,1.728,0,0,0-2.437,0l-2.437,2.452a1.729,1.729,0,0,0,0,2.438l11.2,11.2a1.721,1.721,0,0,0,2.438,0Z" transform="translate(-520.21 -409.61)"/></g><rect class="h" width="1.871" height="9.053" rx="0.936" transform="translate(156.038 151.458)"/><rect class="h" width="2.109" height="15.756" rx="1.054" transform="translate(155.97 168.035)"/><rect class="h" width="2.007" height="15.891" rx="1.004" transform="translate(156.004 189.304)"/><path class="i" d="M377.46,474.88a.346.346,0,0,0,.411.053A1.451,1.451,0,0,1,377.46,474.88Z" transform="translate(-246.328 -243.555)"/><path class="j" d="M383.083,491l-.405,2.207-.313,1.688-.569,3.088-5.513,3.86s-.5-.425-1.317-1.1a96.069,96.069,0,0,0-10.5-7.682,11.744,11.744,0,0,0-2.885-1.329Z" transform="translate(-236.433 -253.604)"/><path class="k" d="M371.649,485.3s6.428,1.1,6.8-1.642-3.309-4.229-6.432-4.414-21.868,1.1-21.868,1.1-3.306,4.41,8.635,5.148Z" transform="translate(-229.043 -246.267)"/><rect class="k" width="33.628" height="39.875" transform="translate(123.035 148.449)"/><rect class="l" width="33.628" height="39.875" transform="translate(123.035 148.63)"/><path class="j" d="M388.183,288.22s1.654,11.576,7.351,14.332-7.351,7.908-7.351,7.908l-17.823-6.62s10.107-3.309,8.085-13.048Z" transform="translate(-241.902 -127.186)"/><path class="j" d="M331.323,473.16l-.4,2.2-.328,1.695-.569,3.088L324.511,484s-.5-.422-1.317-1.092a95.636,95.636,0,0,0-10.5-7.682,11.673,11.673,0,0,0-2.885-1.329Z" transform="translate(-204.153 -242.482)"/><path class="m" d="M410.117,427.637c-4.142,2.452-22.327,1.454-28.243,1.054l-1.612-.117c-.173,0,.026-.1.026-.1l.166-1.668,4.41-11.207,23.611-13.692a20.549,20.549,0,0,0-.6,6.176C407.986,416.2,410.117,427.637,410.117,427.637Z" transform="translate(-248.031 -198.063)"/><path class="m" d="M407.953,406.638c-4.8,1.107-15.368,4.355-19.428,12.2-2.707,5.223-4.986,7.464-6.575,8.4l-1.612-.113a.912.912,0,0,0,.026-.1l1.454-.376,3.122-12.495,23.611-13.688A20.654,20.654,0,0,0,407.953,406.638Z" transform="translate(-248.123 -197.165)"/><path class="m" d="M234.691,427.29,240.2,430.6a5.4,5.4,0,0,0-2.048,1.45c-.46-1.341-3.343-3.212-4.655-4.01C234.212,427.557,234.691,427.29,234.691,427.29Z" transform="translate(-156.581 -213.886)"/><path class="m" d="M377.106,471.743a.328.328,0,0,1-.376-.053A1.307,1.307,0,0,0,377.106,471.743Z" transform="translate(-245.873 -241.566)"/><path class="m" d="M401.727,294.169a35.9,35.9,0,0,1-1.017-4.489l-9.738,2.573a10.676,10.676,0,0,1-.222,5.618,10.473,10.473,0,0,0,10.977-3.7Z" transform="translate(-254.614 -128.096)"/><path class="m" d="M428.67,507.07s6.063,11.945,4.225,15.616" transform="translate(-278.254 -263.623)"/><path class="j" d="M0,3.271A5.833,5.833,0,0,1,2.2,4.7c3.64,3.312,8.853,11.083,8.853,11.083,6.665-7.3-.71-13.06-3.854-15.041C6.435.264,5.921,0,5.921,0Z" transform="matrix(-0.105, -0.995, 0.995, -0.105, 174.247, 163.668)"/><path class="j" d="M230.1,430.583a5.4,5.4,0,0,0-2.048,1.45c-3.389,3.355-8.243,11.23-8.243,11.23-6.206-7.392.661-13.233,3.589-15.24.712-.486,1.19-.753,1.19-.753Z" transform="translate(-146.473 -213.873)"/><path class="k" d="M319.05,468.537s5.769.041,6.116-2.712-3.144-4.229-6.116-4.413-21.031,1.189-21.031,1.189-2.562,5.2,8.8,5.936Z" transform="translate(-196.649 -235.148)"/><path class="n" d="M388.042,511.841c-.252-.124-.5-.252-.753-.376l-.678-.855-8.891-11.275v.2c-.06,1.883-.7,16.8-5.694,18.181-5.328,1.469-11.757,1.838-14.687-8.085s-8.284-31.606-13.783-32.894l8.179-6.707s5.415,6.334,7.622,12.4c-.083-.376-3.822-17.85-.753-20.941h26.833s4.142,11.8,6.982,17.643c2.21,4.538,5.528,15.266,7.664,22.527A8.62,8.62,0,0,1,388.042,511.841Z" transform="translate(-225.192 -235.202)"/><path class="g" d="M409.791,426.186c-4.142,2.452-22.327,1.454-28.243,1.054l-1.612-.113-.267-.023.294-.075,1.453-.376,3.122-12.495,23.611-13.689a20.561,20.561,0,0,0-.6,6.176C407.66,414.757,409.791,426.186,409.791,426.186Z" transform="translate(-247.705 -197.165)"/><path class="f" d="M300.1,277.8a10.926,10.926,0,0,1-8.454-3.125s-14.687,4.229-19.661,13.782-38.787,28.3-38.787,28.3,5.882,3.306,5.328,4.959l22.237-12.864s7.908-5.694,10.1-6.982,14.336-9.188,16.908,12.31,0,18.927,0,18.927,3.675,1.288,9-9,21.864-12.679,21.864-12.679l.919-10.838s3.28-7.185.753-10.167a6.4,6.4,0,0,1-1.472-3.111c-.418-2.753,0-7.339,5.852-11.15,9-5.882,12.495-10.657,12.495-10.657s.184-3.495-5.328-5.148-27.93-10.657-27.93-10.657l-.753,3.125,17.688,12.484s-8.819,7.155-15.816,6.982C305.05,272.29,306.349,277.619,300.1,277.8Z" transform="translate(-156.393 -103.171)"/><circle class="j" cx="10.473" cy="10.473" r="10.473" transform="translate(128.552 148.634)"/><path class="o" d="M366.026,218.739c2.907.332,5.667,1.578,8.53,2.259a4.233,4.233,0,0,0,2.207.083c1.111-.343,2.015-1.506,3.167-1.472a3.51,3.51,0,0,1,1.92.968,23.622,23.622,0,0,1,2.636,2.35c1.973,2.143,3.2,5.027,5,7.358s4.367,5.064,6.924,4a14.781,14.781,0,0,1-13.329,11.441c-2.459.169-4.978-.343-7.358.376a6.375,6.375,0,0,1-1.857.452c-1.371,0-2.474-1.258-3.329-2.482-2-2.877-3.589-6.142-5.844-8.767a4.806,4.806,0,0,0-2.677-1.853,4.958,4.958,0,0,0-2.96.832,13.889,13.889,0,0,0-4.33,3.013,6,6,0,0,0-1.461,5.272,12.3,12.3,0,0,1,.889,2.952c.023,1.672-1.453,2.892-1.743,4.519a16.935,16.935,0,0,0-.072,2.056c-.128,2.228-1.587,4.052-3.106,5.456a3.917,3.917,0,0,0-1.423,1.969c-.117.576,0,1.182-.075,1.766-.222,1.446-1.665,2.18-2.941,2.369a8.484,8.484,0,0,1-4.413-.523,5.089,5.089,0,0,0,2.47-5.4c-.569-2.983-3.566-5.125-3.309-8.16a9.455,9.455,0,0,1,.829-2.685,24.6,24.6,0,0,0,1.416-5.087,8.572,8.572,0,0,0-.087-4.056,12.607,12.607,0,0,0-1.83-3.084,17.537,17.537,0,0,1-2.12-4.342,3.054,3.054,0,0,1-.2-1.439,2.967,2.967,0,0,1,.923-1.488c1.638-1.722,3.389-3.51,5.585-4a12.572,12.572,0,0,1,3.171-.121,37.423,37.423,0,0,0,5.509-.234c1.506-.177,4.052-.154,5.328-1.13,1.19-.912,1.86-2.056,3.325-2.636a9.791,9.791,0,0,1,4.647-.531Z" transform="translate(-221.433 -83.82)"/><g transform="translate(242.64 265.484)"><g transform="translate(7.261 9.048)"><path class="f" d="M-480.513,451.489c7.544-27.829-3.323-56.954-3.434-57.246l-.374.144c.11.29,10.931,29.3,3.422,57Z" transform="translate(484.321 -394.243)"/></g><path class="f" d="M-483.578,402.8c-.746.047-.514-3.28-.173-5.127s.9-4.047,2.264-4.079,1.332,4.008.923,5.443S-481.848,402.69-483.578,402.8Z" transform="translate(493.718 -385.418)"/><path class="f" d="M-474.279,405.8c.857-.612-1.284-2.839-2.725-4.078s-3.414-2.864-4.9-1.534.615,3.877,3.116,4.934C-477.015,405.873-474.941,406.273-474.279,405.8Z" transform="translate(485.233 -383.332)"/><path class="f" d="M-489.454,413.113a9.192,9.192,0,0,1,1.934-6.19c2.24-2.535,4.168-3.19,5.4-2.3s.945,3.255-1.695,6.055S-488.941,414.313-489.454,413.113Z" transform="translate(502.062 -381.775)"/><path class="f" d="M-472.285,418.4c.7.487.4-4.222-2.57-6.2s-8.157-2.12-9,.071c-.758,1.97,1.692,3.14,3.552,3.237A14.592,14.592,0,0,1-472.285,418.4Z" transform="translate(485.267 -379.579)"/><path class="f" d="M-470.663,427.717c-.02.963-2.273-.87-3.47-1.259s-5.342-.322-7.516-2.054-2.99-3.693-2.1-4.961,3.72-1.4,6.409-.035S-470.6,424.55-470.663,427.717Z" transform="translate(484.102 -376.924)"/><path class="f" d="M-490.876,430.407c-.57-.909,1.112-3.488,3.062-4.694s4.793-2.2,6.138-.086-2.124,3.726-3.984,4.458S-489.971,431.848-490.876,430.407Z" transform="translate(504.056 -374.888)"/><path class="f" d="M-492.33,419.4c-.73-1.536,2.4-4.134,4.922-4.876s6.077-.572,6.26,2.156S-491.055,422.087-492.33,419.4Z" transform="translate(505.771 -378.39)"/><path class="f" d="M-475.183,399.174c-1.061.419-3.457-3.277-4.45-5.193s-2.481-5.616-.048-6.373,4,2.625,4.909,5.263S-473.8,398.628-475.183,399.174Z" transform="translate(483.389 -387.5)"/></g><path class="g" d="M32.075,8.618c17.715,0,32.075-3.666,32.075-5.649,0-1.261-11.292-1.258-15.579-1.24S38.523,0,32.075,0C25.025,0,17.356.454,11.39.423S0,2.289,0,3.483C0,5.467,14.361,8.618,32.075,8.618Z" transform="translate(122.719 298.207)"/></g></svg>