<svg id="adress" xmlns="http://www.w3.org/2000/svg" width="26" height="26.001" viewBox="0 0 26 26.001">
  <g id="Vector_Smart_Object_copy_36" data-name="Vector Smart Object copy 36" transform="translate(0 0)">
    <g id="Group_100" data-name="Group 100" transform="translate(0 0)">
      <g id="Group_97" data-name="Group 97" transform="translate(3.642)">
        <path id="Path_107" data-name="Path 107" d="M890.7,458.143a.937.937,0,0,1-.607-.221c-.226-.191-5.561-4.746-7.785-9.715a.928.928,0,0,1,.473-1.229.938.938,0,0,1,1.236.472c1.628,3.635,5.219,7.166,6.667,8.5,2.554-2.466,7.5-7.978,7.5-11.551a7.488,7.488,0,1,0-14.973,0,.936.936,0,0,1-1.872,0,9.36,9.36,0,1,1,18.716,0c0,5.5-8.37,13.179-8.727,13.5A.935.935,0,0,1,890.7,458.143Z" transform="translate(-881.343 -434.874)" fill="#ec1b23"/>
      </g>
      <g id="Group_98" data-name="Group 98" transform="translate(9.358 5.615)">
        <path id="Path_108" data-name="Path 108" d="M895.487,452.659a3.642,3.642,0,1,1,3.642-3.642A3.646,3.646,0,0,1,895.487,452.659Zm0-5.463a1.821,1.821,0,1,0,1.821,1.821A1.823,1.823,0,0,0,895.487,447.2Z" transform="translate(-891.845 -445.374)" fill="#ec1b23"/>
      </g>
      <g id="Group_99" data-name="Group 99" transform="translate(0 17.804)">
        <path id="Path_109" data-name="Path 109" d="M899.416,476.319H875.273a.934.934,0,0,1-.8-.453.9.9,0,0,1,0-.909l3.714-6.374a.936.936,0,0,1,1.267-.339.9.9,0,0,1,.345,1.242l-2.919,5.012h20.942l-2.92-5.012a.9.9,0,0,1,.346-1.242.936.936,0,0,1,1.267.339l3.714,6.374a.9.9,0,0,1,0,.909A.934.934,0,0,1,899.416,476.319Z" transform="translate(-874.344 -468.122)" fill="#ec1b23"/>
      </g>
    </g>
  </g>
  <path id="Color_Overlay" data-name="Color Overlay" d="M.929,26a.928.928,0,0,1-.806-1.389l3.714-6.5a.928.928,0,1,1,1.612.921L2.529,24.143H23.471l-2.92-5.111a.929.929,0,0,1,1.613-.921l3.714,6.5A.928.928,0,0,1,25.072,26ZM12.4,22.993C12.174,22.8,6.88,18.258,4.673,13.3a.928.928,0,1,1,1.7-.755c1.615,3.626,5.179,7.149,6.617,8.478,2.534-2.461,7.444-7.96,7.444-11.524A7.547,7.547,0,0,0,13,1.857,7.547,7.547,0,0,0,5.571,9.5a.929.929,0,1,1-1.857,0A9.406,9.406,0,0,1,13,0a9.406,9.406,0,0,1,9.286,9.5c0,5.491-8.306,13.149-8.66,13.472a.931.931,0,0,1-1.229.022ZM9.286,9.286A3.714,3.714,0,1,1,13,13,3.718,3.718,0,0,1,9.286,9.286Zm1.857,0A1.857,1.857,0,1,0,13,7.43,1.86,1.86,0,0,0,11.143,9.286Z" transform="translate(0 0)" fill="#ec1b23"/>
</svg>
