<svg xmlns="http://www.w3.org/2000/svg" width="24.686" height="24.67" viewBox="0 0 24.686 24.67">
  <path id="call" d="M6.226,18.519l-.031-.032A26.068,26.068,0,0,1,1.377,12.2a.881.881,0,1,1,1.566-.809,24.244,24.244,0,0,0,4.437,5.79A.2.2,0,0,1,7.4,17.2c4,4,7.738,5.966,10.822,5.678A5.786,5.786,0,0,0,22.279,20.7a.814.814,0,0,1,.106-.13,1.719,1.719,0,0,0,0-2.431l-2.451-2.455a1.72,1.72,0,0,0-2.429,0l-2.144,2.146a.882.882,0,0,1-1.247,0l-3.673-3.678-.024-.024-3.61-3.615a.883.883,0,0,1,0-1.249L8.951,7.12a1.723,1.723,0,0,0,0-2.431L6.5,2.236a1.757,1.757,0,0,0-2.43,0,.9.9,0,0,1-.128.106A5.9,5.9,0,0,0,1.788,7.81.882.882,0,1,1,.036,8,7.686,7.686,0,0,1,2.88.936,3.559,3.559,0,0,1,7.746.989L10.2,3.443a3.492,3.492,0,0,1,0,4.927L8.675,9.89l3.053,3.056a.288.288,0,0,1,.024.025l2.987,2.99L16.26,14.44a3.477,3.477,0,0,1,4.92,0l2.45,2.455a3.485,3.485,0,0,1,.054,4.872,7.588,7.588,0,0,1-5.295,2.868c-.262.025-.529.036-.8.036C14.146,24.67,10.327,22.6,6.226,18.519Z" transform="translate(0.035 0)" fill="#ec1b23"/>
</svg>
