<svg xmlns="http://www.w3.org/2000/svg" width="158.318" height="180.129" viewBox="0 0 158.318 180.129">
  <g id="costeffective" transform="translate(-1114.789 -2907.316)">
    <g id="Group_5195" data-name="Group 5195" transform="translate(7.789 -3.684)">
      <path id="Path_4301" data-name="Path 4301" d="M1200,165.8l78.521,108.33,69.8-108.33h-26.174V104h-94.516v61.8Z" transform="translate(-88 2812)" fill="none" stroke="#ec1b23" stroke-linecap="round" stroke-linejoin="round" stroke-width="10"/>
      <g id="Group_5194" data-name="Group 5194" transform="translate(1166.023 2949.857)">
        <g id="Group_5188" data-name="Group 5188">
          <path id="Path_4294" data-name="Path 4294" d="M222.267,114.238h-7.535a6.026,6.026,0,0,1,0-12.052H229.8a5.276,5.276,0,1,0,0-10.551h-6.026V85.61a5.276,5.276,0,1,0-10.551,0v6.1a16.575,16.575,0,0,0,1.509,33.082h7.535a6.026,6.026,0,0,1,0,12.051H207.2a5.276,5.276,0,1,0,0,10.551h6.026v6.026a5.276,5.276,0,0,0,10.551,0v-6.1a16.575,16.575,0,0,0-1.507-33.082Z" transform="translate(-198.155 -80.334)" fill="#ec1b23"/>
        </g>
      </g>
    </g>
  </g>
</svg>
