<svg id="date" xmlns="http://www.w3.org/2000/svg" width="20.411" height="20.408" viewBox="0 0 20.411 20.408">
  <g id="Capa_1" data-name="Capa 1" transform="translate(0 0)">
    <path id="Path_2049" data-name="Path 2049" d="M19.612,14.014a.8.8,0,0,0,.8-.8V4.766a3.2,3.2,0,0,0-3.19-3.19H16.18v-.8a.8.8,0,1,0-1.592,0h0v.8H10.962v-.8a.8.8,0,0,0-1.592,0v.8H5.779v-.8a.8.8,0,1,0-1.6,0h0v.8H3.19A3.192,3.192,0,0,0,0,4.766V17.2a3.2,3.2,0,0,0,3.19,3.19h14.03a3.2,3.2,0,0,0,3.19-3.19.8.8,0,1,0-1.592,0h0a1.6,1.6,0,0,1-1.6,1.6H3.19a1.6,1.6,0,0,1-1.6-1.6V4.766a1.6,1.6,0,0,1,1.6-1.6h.993v.8a.8.8,0,1,0,1.592,0V3.174H9.364v.8a.8.8,0,0,0,1.592,0v-.8h3.626v.8a.8.8,0,1,0,1.592,0h0v-.8H17.21a1.6,1.6,0,0,1,1.6,1.6v8.449A.808.808,0,0,0,19.612,14.014Z" transform="translate(0 0.017)" fill="#555"/>
    <ellipse id="Ellipse_18" data-name="Ellipse 18" cx="0.803" cy="0.803" rx="0.803" ry="0.803" transform="translate(4.074 9.081) rotate(-84.345)" fill="#555"/>
    <ellipse id="Ellipse_19" data-name="Ellipse 19" cx="0.803" cy="0.803" rx="0.803" ry="0.803" transform="translate(11.125 7.558)" fill="#555"/>
    <ellipse id="Ellipse_20" data-name="Ellipse 20" cx="0.803" cy="0.803" rx="0.803" ry="0.803" transform="translate(14.612 7.558)" fill="#555"/>
    <ellipse id="Ellipse_21" data-name="Ellipse 21" cx="0.803" cy="0.803" rx="0.803" ry="0.803" transform="translate(4.15 11.044)" fill="#555"/>
    <ellipse id="Ellipse_22" data-name="Ellipse 22" cx="0.803" cy="0.803" rx="0.803" ry="0.803" transform="translate(4.15 14.534)" fill="#555"/>
    <ellipse id="Ellipse_23" data-name="Ellipse 23" cx="0.803" cy="0.803" rx="0.803" ry="0.803" transform="translate(7.636 7.558)" fill="#555"/>
    <ellipse id="Ellipse_24" data-name="Ellipse 24" cx="0.803" cy="0.803" rx="0.803" ry="0.803" transform="translate(7.636 11.044)" fill="#555"/>
    <ellipse id="Ellipse_25" data-name="Ellipse 25" cx="0.803" cy="0.803" rx="0.803" ry="0.803" transform="translate(7.636 14.534)" fill="#555"/>
    <ellipse id="Ellipse_26" data-name="Ellipse 26" cx="0.803" cy="0.803" rx="0.803" ry="0.803" transform="translate(11.125 11.044)" fill="#555"/>
    <ellipse id="Ellipse_27" data-name="Ellipse 27" cx="0.803" cy="0.803" rx="0.803" ry="0.803" transform="translate(14.612 11.044)" fill="#555"/>
    <ellipse id="Ellipse_28" data-name="Ellipse 28" cx="0.803" cy="0.803" rx="0.803" ry="0.803" transform="translate(11.125 14.534)" fill="#555"/>
  </g>
</svg>
