<svg xmlns="http://www.w3.org/2000/svg" width="58.357" height="70.67" viewBox="0 0 58.357 70.67">
  <path id="discount" d="M43.117,64.408A7.693,7.693,0,0,1,33.6,69.317L5.24,59.744a7.692,7.692,0,0,1-4.833-9.75L11.613,16.8a7.638,7.638,0,0,1,3.041-3.956L28.13,1.623A7.653,7.653,0,0,1,35.3.4L45.428,3.8a7.69,7.69,0,0,1,5.1,5.854l3.913,17.1a7.7,7.7,0,0,1-.138,4.46L52.52,36.505a36.475,36.475,0,0,0,3.744,1.04,1.361,1.361,0,0,1-.587,2.657,39.793,39.793,0,0,1-4.027-1.116ZM20.729,47.564a1.3,1.3,0,0,0-.924-1.292l-7.083-2.384a1.362,1.362,0,1,0-.865,2.582l7.043,2.37a1.356,1.356,0,0,0,.468.083A1.412,1.412,0,0,0,20.729,47.564Zm9.2,2.117a1.4,1.4,0,0,0-1.744,1.309,1.28,1.28,0,0,0,.874,1.271l.09.031,6.99,2.352a1.362,1.362,0,1,0,.865-2.582Zm-5.506-1.749a1.36,1.36,0,1,0,1.36,1.36A1.361,1.361,0,0,0,24.427,47.933Zm9.549-30.964a1.361,1.361,0,0,1,2.721.053,16.5,16.5,0,0,0,.549,4.131l.122-.058a4.573,4.573,0,1,0-3.5.235,4.634,4.634,0,0,0,.674.172A19.018,19.018,0,0,1,33.976,16.969Zm4.11,6.789c1.563,3.924,4.876,8.689,11.891,11.766l1.744-5.183a4.915,4.915,0,0,0,.261-1.426,4.994,4.994,0,0,0-.176-1.454l-3.934-17.2a5,5,0,0,0-1.145-2.426,4.943,4.943,0,0,0-2.165-1.454l-10.131-3.4a5,5,0,0,0-2.41-.193,10.241,10.241,0,0,0-2.2.959L16.2,15.093a4.974,4.974,0,0,0-2,2.576L2.988,50.859a4.974,4.974,0,0,0,3.115,6.3l28.128,9.5a4.974,4.974,0,0,0,6.3-3.114L49.1,38.119C40.847,34.588,37.093,28.89,35.388,24.3a7.3,7.3,0,1,1,3.186-.759Q38.335,23.657,38.087,23.758ZM16.835,31.729,41.12,39.9a1.362,1.362,0,1,0,.864-2.582L17.7,29.147a1.362,1.362,0,0,0-.865,2.582ZM14.346,39.1l24.285,8.174a1.361,1.361,0,1,0,.864-2.582L15.211,36.518a1.361,1.361,0,0,0-.865,2.582Zm0,0" transform="translate(0.522 0.504)" fill="#ec1b23" stroke="#ec1b23" stroke-width="1" fill-rule="evenodd"/>
</svg>
