<svg xmlns="http://www.w3.org/2000/svg" width="27.909" height="22.13" viewBox="0 0 27.909 22.13">
  <path id="email" d="M.984,22.13a1,1,0,0,1-1-1.007V5.029a1,1,0,1,1,1.994,0V20.117H25.9V2.012H.984A1.006,1.006,0,0,1,.984,0H26.891a1,1,0,0,1,1,1.005V21.123a1,1,0,0,1-1,1.007Zm20.222-4.318L18.214,14.79a1.013,1.013,0,0,1,0-1.423.987.987,0,0,1,1.408,0l2.992,3.02a1.009,1.009,0,0,1,0,1.423.991.991,0,0,1-1.408,0Zm-15.945,0a1.012,1.012,0,0,1,0-1.423L8.25,13.373a.987.987,0,0,1,1.408,0,1.012,1.012,0,0,1,0,1.423L6.671,17.812a.994.994,0,0,1-1.41,0Zm7.97-4.025L5.26,5.741a1.012,1.012,0,0,1,0-1.423.987.987,0,0,1,1.409,0l7.267,7.337,7.269-7.337a.987.987,0,0,1,1.408,0,1.013,1.013,0,0,1,0,1.423l-7.972,8.046a.99.99,0,0,1-1.41,0Z" transform="translate(0.022)" fill="#ec1b23"/>
</svg>
