<svg id="livetickets" xmlns="http://www.w3.org/2000/svg" width="134.812" height="180" viewBox="0 0 134.812 180">
  <g id="Group_5189" data-name="Group 5189" transform="translate(47.438 28.636)">
    <g id="Group_5188" data-name="Group 5188">
      <path id="Path_4294" data-name="Path 4294" d="M221.821,113.611h-7.4a5.915,5.915,0,0,1,0-11.829h14.79a5.178,5.178,0,1,0,0-10.356H223.3V85.512a5.178,5.178,0,1,0-10.356,0V91.5a16.269,16.269,0,0,0,1.481,32.471h7.4a5.914,5.914,0,1,1,0,11.829H207.03a5.178,5.178,0,1,0,0,10.356h5.914v5.914a5.178,5.178,0,1,0,10.356,0v-5.985a16.269,16.269,0,0,0-1.48-32.471Z" transform="translate(-198.155 -80.334)" fill="#ec1b23"/>
    </g>
  </g>
  <g id="Group_5191" data-name="Group 5191" transform="translate(34.497 124.405)">
    <g id="Group_5190" data-name="Group 5190">
      <path id="Path_4295" data-name="Path 4295" d="M221.307,353.467H165.845a5.178,5.178,0,1,0,0,10.356h55.462a5.178,5.178,0,0,0,0-10.356Z" transform="translate(-160.667 -353.467)" fill="#ec1b23"/>
    </g>
  </g>
  <g id="Group_5193" data-name="Group 5193" transform="translate(0)">
    <g id="Group_5192" data-name="Group 5192">
      <path id="Path_4296" data-name="Path 4296" d="M193.806,0H69.54a5.274,5.274,0,0,0-5.273,5.273V159.193a5.275,5.275,0,0,0,1.545,3.729l15.533,15.533a5.273,5.273,0,0,0,7.458,0l11.8-11.8,11.8,11.8a5.273,5.273,0,0,0,7.458,0l11.8-11.8,11.8,11.8a5.273,5.273,0,0,0,7.458,0l11.8-11.8,11.8,11.8a5.273,5.273,0,0,0,7.458,0l15.533-15.533a5.274,5.274,0,0,0,1.545-3.729V5.273A5.274,5.274,0,0,0,193.806,0ZM178.272,167.269l-11.8-11.8a5.273,5.273,0,0,0-7.458,0l-11.8,11.8-11.8-11.8a5.273,5.273,0,0,0-7.458,0l-11.8,11.8-11.8-11.8a5.273,5.273,0,0,0-7.458,0l-11.8,11.8-10.26-10.26V10.547H188.532V157.009h0Z" transform="translate(-64.267)" fill="#ec1b23"/>
    </g>
  </g>
</svg>
