<svg id="location" xmlns="http://www.w3.org/2000/svg" width="19.781" height="19.782" viewBox="0 0 19.781 19.782">
  <g id="Vector_Smart_Object_copy_36" data-name="Vector Smart Object copy 36" transform="translate(0 0)">
    <g id="Group_100" data-name="Group 100" transform="translate(0 0)">
      <g id="Group_97" data-name="Group 97" transform="translate(2.826)">
        <path id="Path_107" data-name="Path 107" d="M888.408,452.536a.705.705,0,0,1-.458-.168c-.171-.145-4.2-3.6-5.878-7.374a.706.706,0,1,1,1.29-.575,22.816,22.816,0,0,0,5.034,6.451c1.928-1.872,5.664-6.056,5.664-8.768a5.654,5.654,0,1,0-11.3,0,.707.707,0,1,1-1.413,0,7.067,7.067,0,1,1,14.13,0c0,4.177-6.319,10-6.588,10.249A.7.7,0,0,1,888.408,452.536Z" transform="translate(-881.343 -434.874)" fill="#f33"/>
      </g>
      <g id="Group_98" data-name="Group 98" transform="translate(7.065 4.239)">
        <path id="Path_108" data-name="Path 108" d="M894.67,451.026A2.826,2.826,0,1,1,897.5,448.2,2.829,2.829,0,0,1,894.67,451.026Zm0-4.239a1.413,1.413,0,1,0,1.413,1.413A1.415,1.415,0,0,0,894.67,446.787Z" transform="translate(-891.845 -445.374)" fill="#f33"/>
      </g>
      <g id="Group_99" data-name="Group 99" transform="translate(0 13.422)">
        <path id="Path_109" data-name="Path 109" d="M893.419,474.481H875.051a.706.706,0,0,1-.613-1.057l2.826-4.945a.706.706,0,0,1,1.226.7l-2.221,3.888H892.2l-2.222-3.888a.707.707,0,0,1,1.227-.7l2.826,4.945a.706.706,0,0,1-.613,1.057Z" transform="translate(-874.344 -468.122)" fill="#f33"/>
      </g>
    </g>
  </g>
  <path id="Color_Overlay" data-name="Color Overlay" d="M.706,19.782a.706.706,0,0,1-.613-1.057L2.919,13.78a.706.706,0,1,1,1.226.7L1.924,18.369H17.857L15.635,14.48a.707.707,0,0,1,1.227-.7l2.826,4.945a.706.706,0,0,1-.613,1.057Zm8.726-2.288c-.17-.145-4.2-3.6-5.877-7.375a.706.706,0,1,1,1.29-.574A22.815,22.815,0,0,0,9.879,16c1.928-1.872,5.664-6.056,5.664-8.768A5.742,5.742,0,0,0,9.891,1.413,5.742,5.742,0,0,0,4.239,7.227a.707.707,0,1,1-1.413,0A7.156,7.156,0,0,1,9.891,0a7.156,7.156,0,0,1,7.065,7.227c0,4.177-6.319,10-6.589,10.25a.708.708,0,0,1-.935.017ZM7.065,7.065A2.826,2.826,0,1,1,9.891,9.891,2.829,2.829,0,0,1,7.065,7.065Zm1.413,0A1.413,1.413,0,1,0,9.891,5.652,1.415,1.415,0,0,0,8.478,7.065Z" transform="translate(0 0)" fill="#f33"/>
</svg>
