<svg xmlns="http://www.w3.org/2000/svg" width="15.773" height="20.423" viewBox="0 0 15.773 20.423">
  <g id="loc" transform="translate(1154.374 261)">
    <g id="Group_1105" data-name="Group 1105" transform="translate(-1154.374 -261)">
      <path id="Path_1953" data-name="Path 1953" d="M-1147.019-261h1.077c.261.039.523.073.783.117a7.855,7.855,0,0,1,6.458,8.959,7.686,7.686,0,0,1-4.879,6.127.59.59,0,0,0-.315.275q-1.3,2.386-2.61,4.767a1.8,1.8,0,0,0-.075.179h-.04a.985.985,0,0,0-.043-.107q-1.313-2.46-2.633-4.916a.612.612,0,0,0-.276-.254,7.888,7.888,0,0,1-4.752-8.123,7.86,7.86,0,0,1,6.111-6.825C-1147.821-260.892-1147.418-260.935-1147.019-261Zm4.681,7.882a4.158,4.158,0,0,0-4.146-4.148,4.17,4.17,0,0,0-4.161,4.138,4.178,4.178,0,0,0,4.131,4.171A4.164,4.164,0,0,0-1142.338-253.118Z" transform="translate(1154.373 261)" fill="#ec1b23"/>
    </g>
  </g>
</svg>
