<svg xmlns="http://www.w3.org/2000/svg" width="16.197" height="16.206" viewBox="0 0 16.197 16.206">
  <g id="time" transform="translate(-307.975 348.307)">
    <g id="Group_1106" data-name="Group 1106" transform="translate(307.975 -348.307)">
      <path id="Path_1954" data-name="Path 1954" d="M307.975-339.815v-.775c.005-.032.012-.064.016-.1.047-.369.071-.742.143-1.106a7.862,7.862,0,0,1,2.189-4.11,7.958,7.958,0,0,1,5.444-2.4,7.677,7.677,0,0,1,2.118.2,7.951,7.951,0,0,1,4.745,3.141,7.931,7.931,0,0,1,1.529,5.233,7.7,7.7,0,0,1-.518,2.427,8.007,8.007,0,0,1-4.1,4.423,7.919,7.919,0,0,1-4.194.746,7.69,7.69,0,0,1-2.21-.512,8.061,8.061,0,0,1-4.294-3.891,7.69,7.69,0,0,1-.823-2.779Q308-339.565,307.975-339.815Zm7.453-2.107h0c0,.772,0,1.543,0,2.315a.5.5,0,0,0,.186.419,5.213,5.213,0,0,0,.52.384c.718.442,1.442.875,2.163,1.312.252.152.5.309.756.454a.554.554,0,0,0,.607-.011.606.606,0,0,0,.3-.566.733.733,0,0,0-.4-.611q-1.355-.786-2.712-1.569a.127.127,0,0,1-.074-.127c0-.517,0-1.033,0-1.55,0-.937,0-1.874,0-2.811a.664.664,0,0,0-.9-.6.666.666,0,0,0-.439.675Q315.427-343.067,315.428-341.922Z" transform="translate(-307.975 348.307)" fill="#ec1b23"/>
    </g>
  </g>
</svg>
