<svg xmlns="http://www.w3.org/2000/svg" width="20.002" height="15.201" viewBox="0 0 20.002 15.201">
  <g id="refund" transform="translate(0 -52.198)">
    <g id="Group_3995" data-name="Group 3995" transform="translate(0 54.349)">
      <g id="Group_3994" data-name="Group 3994" transform="translate(0 0.35)">
        <path id="Path_2219" data-name="Path 2219" d="M14.876,128H1.091a1.069,1.069,0,0,0-1.071.8A1.017,1.017,0,0,0,1.05,130H14.876a.171.171,0,0,0,.175-.167v-1.667A.171.171,0,0,0,14.876,128Z" transform="translate(0 -128.004)" fill="#555"/>
      </g>
    </g>
    <g id="Group_3997" data-name="Group 3997" transform="translate(15.752 52.198)">
      <g id="Group_3996" data-name="Group 3996" transform="translate(0 0)">
        <path id="Path_2220" data-name="Path 2220" d="M388.151,54.382l-3.683-3.117a.283.283,0,0,0-.466.216v6.233a.283.283,0,0,0,.466.216l3.683-3.117a.284.284,0,0,0,0-.433Z" transform="translate(-384.001 -51.198)" fill="#555"/>
      </g>
    </g>
    <g id="Group_3999" data-name="Group 3999" transform="translate(0 59.599)">
      <g id="Group_3998" data-name="Group 3998" transform="translate(0 1)">
        <path id="Path_2221" data-name="Path 2221" d="M4.087,256.033a.284.284,0,0,0-.3.041L.1,259.191a.283.283,0,0,0,0,.433l3.683,3.117a.284.284,0,0,0,.183.067.283.283,0,0,0,.283-.283V256.29A.283.283,0,0,0,4.087,256.033Z" transform="translate(-0.001 -256.007)" fill="#555"/>
      </g>
    </g>
    <g id="Group_4001" data-name="Group 4001" transform="translate(4.951 62.998)">
      <g id="Group_4000" data-name="Group 4000">
        <path id="Path_2222" data-name="Path 2222" d="M160.1,333.6a1.069,1.069,0,0,0-1.071-.8H145.242a.171.171,0,0,0-.175.167v1.667a.171.171,0,0,0,.175.167h13.826A1.017,1.017,0,0,0,160.1,333.6Z" transform="translate(-145.067 -332.804)" fill="#555"/>
      </g>
    </g>
  </g>
</svg>
