<svg xmlns="http://www.w3.org/2000/svg" width="81.015" height="70.08" viewBox="0 0 81.015 70.08">
    <g id="Group_1192" data-name="Group 1192" transform="translate(-917 -4982.031)">
        <path id="Path_2000" data-name="Path 2000"
              d="M123.328,32.85,109.439,18.96a2.228,2.228,0,0,0-1.628-.687,2.521,2.521,0,0,0-.9.181,2.163,2.163,0,0,0-1.411,2.134v6.945H99.708a59.1,59.1,0,0,0-7.107.4,38.339,38.339,0,0,0-5.769,1.1,23.481,23.481,0,0,0-4.5,1.754,19.262,19.262,0,0,0-3.418,2.225,14.1,14.1,0,0,0-2.478,2.677,16.61,16.61,0,0,0-1.7,2.948,17.034,17.034,0,0,0-1.013,3.183,24.949,24.949,0,0,0-.507,3.255q-.127,1.519-.127,3.291a17.316,17.316,0,0,0,.633,4.414A28.792,28.792,0,0,0,75.112,56.9q.759,1.735,1.791,3.6t1.429,2.477q.4.614.76,1.121a1.132,1.132,0,0,0,.94.47,1.962,1.962,0,0,0,.434-.072,1.115,1.115,0,0,0,.723-1.23Q79.561,51.116,83.865,46.16q4.16-4.738,15.843-4.739H105.5v6.945a2.163,2.163,0,0,0,1.411,2.135,2.513,2.513,0,0,0,.9.18,2.152,2.152,0,0,0,1.628-.687L123.328,36.1a2.27,2.27,0,0,0,0-3.255Z"
              transform="translate(872 4966.885)" fill="none" stroke="#fff" stroke-width="4"/>
        <path id="Path_2004" data-name="Path 2004"
              d="M79.1,107.865a1.99,1.99,0,0,0-1.9,2.072v8.756a5.975,5.975,0,0,1-5.686,6.216H9.477a5.975,5.975,0,0,1-5.686-6.216V69.332a5.975,5.975,0,0,1,5.686-6.216H22.586a2.08,2.08,0,0,0,0-4.144H9.477C4.245,58.979.006,63.613,0,69.332v49.361c.006,5.719,4.245,10.353,9.477,10.359H71.523c5.232-.006,9.471-4.641,9.477-10.359v-8.756A1.989,1.989,0,0,0,79.1,107.865Zm0,0"
              transform="translate(917 4923.058)" fill="#fff"/>
    </g>
</svg>
