<svg id="time" xmlns="http://www.w3.org/2000/svg" width="20.013" height="20.014" viewBox="0 0 20.013 20.014">
  <g id="Vector_Smart_Object1_copy_4" data-name="Vector Smart Object1 copy 4" transform="translate(0 0)">
    <g id="Group_107" data-name="Group 107">
      <g id="Group_105" data-name="Group 105">
        <path id="Path_113" data-name="Path 113" d="M391.008,313.92a10.009,10.009,0,0,1-8.9-14.585.715.715,0,1,1,1.271.654,8.589,8.589,0,1,0,1.564-2.141.715.715,0,1,1-1.01-1.011,10.006,10.006,0,1,1,7.074,17.083Z" transform="translate(-380.995 -293.906)" fill="#f33"/>
      </g>
      <g id="Group_106" data-name="Group 106" transform="translate(9.299 3.574)">
        <path id="Path_114" data-name="Path 114" d="M406.191,311.948a.713.713,0,0,1-.446-.156l-3.573-2.859a.712.712,0,0,1-.268-.558v-5.718a.714.714,0,1,1,1.429,0v5.375l3.3,2.644a.715.715,0,0,1-.446,1.273Z" transform="translate(-401.904 -301.942)" fill="#f33"/>
      </g>
    </g>
  </g>
  <path id="Color_Overlay" data-name="Color Overlay" d="M2.939,17.083A9.978,9.978,0,0,1,1.114,5.429a.714.714,0,1,1,1.271.653A8.59,8.59,0,1,0,3.95,3.942a.715.715,0,0,1-1.011-1.01A10.006,10.006,0,0,1,17.088,17.083a10,10,0,0,1-14.148,0Zm10.2-3.659-3.573-2.86a.71.71,0,0,1-.268-.558V4.289a.714.714,0,1,1,1.429,0V9.663l3.3,2.644a.715.715,0,1,1-.892,1.117Z" transform="translate(0 0)" fill="#f33"/>
</svg>
