<svg xmlns="http://www.w3.org/2000/svg" width="47.979" height="56.933" viewBox="0 0 47.979 56.933"><defs><style>.a{fill:#009ee3;}.a,.b,.c{fill-rule:evenodd;}.b{fill:#113984;}.c{fill:#172c70;}</style></defs><g transform="translate(-7376 -1223.43)"><path class="a" d="M180.2,386.87h16.058c8.622,0,11.867,4.365,11.366,10.777-.829,10.587-7.229,16.443-15.718,16.443h-4.286c-1.165,0-1.948.771-2.263,2.86L183.54,429.1c-.12.788-.535,1.243-1.156,1.306H172.295c-.949,0-1.285-.725-1.036-2.3l6.151-38.935A2.448,2.448,0,0,1,180.2,386.87Z" transform="translate(7216.302 849.961)"/><path class="b" d="M153.943,354.54h16.075c4.526,0,9.9.145,13.488,3.316a10.9,10.9,0,0,1,3.37,9.119c-.987,12.274-8.327,19.15-18.176,19.15h-7.925c-1.351,0-2.243.9-2.624,3.316l-2.213,14.093c-.145.912-.539,1.451-1.244,1.517h-9.919c-1.1,0-1.488-.829-1.2-2.661l7.13-45.173C150.988,355.4,151.987,354.54,153.943,354.54Z" transform="translate(7232.518 868.89)"/><path class="c" d="M179.43,406.935l2.806-17.77a2.456,2.456,0,0,1,2.8-2.3h16.058a15.663,15.663,0,0,1,6.491,1.181c-1.612,10.926-8.68,16.995-17.932,16.995h-7.913A2.338,2.338,0,0,0,179.43,406.935Z" transform="translate(7211.471 849.967)"/></g></svg>