<svg xmlns="http://www.w3.org/2000/svg" width="49.747" height="43.529" viewBox="0 0 49.747 43.529">
  <g id="Group_4536" data-name="Group 4536" transform="translate(-59 -289)">
    <path id="wallet" d="M44.811,41.328H7.773a1.555,1.555,0,0,1,0-3.109h37.31a1.554,1.554,0,0,0,1.555-1.555A4.664,4.664,0,0,0,41.974,32H6.218A6.218,6.218,0,0,0,0,38.218V69.31a6.218,6.218,0,0,0,6.218,6.218H44.811a4.81,4.81,0,0,0,4.936-4.664V45.991A4.81,4.81,0,0,0,44.811,41.328Zm-7.5,17.1c-1.717,0,0,1.717,0,0s-1.717,0,0,0,0-1.717,0,0S39.027,58.428,37.31,58.428Z" transform="translate(59 257)" fill="#ec1b23"/>
    <g id="Group_4532" data-name="Group 4532" transform="translate(79.927 304.695)">
      <path id="Path_4047" data-name="Path 4047" d="M49.9,131a2.767,2.767,0,0,0,3.678,1.341l-.313,1.222s-1.267.151-1.3,1.019a1.153,1.153,0,0,0,.725,1.135l-.37,1.224a4.083,4.083,0,0,1-2.945-2A3.672,3.672,0,0,1,49.9,131Z" transform="translate(-47.643 -124.836)" fill="#fff"/>
      <path id="Path_4048" data-name="Path 4048" d="M31.842,26.658a1.794,1.794,0,0,1,.656-2.67l.258-1.03a7.917,7.917,0,0,0-1.953-.231l.04.008-.076.406-.08-.015.075-.4a6.6,6.6,0,0,0-2.394.44,5.772,5.772,0,0,0-1.544.967c-.053.049-.105.1-.157.151a9.865,9.865,0,0,0-.676.754,5.417,5.417,0,0,0-.911,2,8.469,8.469,0,0,0,.947,5.3,4.425,4.425,0,0,1,.876-3.781,4.013,4.013,0,0,1,4.656-.882l.261-.989-.035-.017Zm-5.794-.918a5.408,5.408,0,0,0-.43.825,5.117,5.117,0,0,0-.274.891c-.039.151-.057.306-.082.461-.014.077-.017.155-.025.233l-.022.234a5.375,5.375,0,0,1,.342-1.842,4.969,4.969,0,0,1,.429-.839,5.282,5.282,0,0,1,.581-.746,5.378,5.378,0,0,1,.708-.626,6.134,6.134,0,0,1,.8-.5,6.467,6.467,0,0,1,1.765-.636,6.422,6.422,0,0,0-.891.293,7.148,7.148,0,0,0-.844.4,6.047,6.047,0,0,0-1.476,1.131,5.269,5.269,0,0,0-.578.728ZM28.542,26.9a3.963,3.963,0,0,0-.73.3,3.7,3.7,0,0,0-1.2,1,4.119,4.119,0,0,0-.421.665,4.94,4.94,0,0,0-.29.734,6.831,6.831,0,0,0-.273,1.56l.014-.4c.013-.132.023-.265.038-.4a5.855,5.855,0,0,1,.161-.783c.019-.064.036-.129.057-.192l.068-.188c.022-.064.049-.125.076-.186s.052-.124.083-.183a4.19,4.19,0,0,1,.423-.683,3.662,3.662,0,0,1,1.235-1.009,3.739,3.739,0,0,1,1.537-.4A3.717,3.717,0,0,0,28.542,26.9Zm2.069-3.366.08.015-.076.406-.08-.016Zm-.153.812.08.015-.076.406-.08-.015Zm-.153.813.08.015-.076.406-.08-.015Zm-.153.812.08.015-.076.406-.08-.015Zm-.228,1.219.075-.4.08.015L30,27.205Z" transform="translate(-24.941 -22.727)" fill="#fff"/>
    </g>
    <g id="Group_4533" data-name="Group 4533" transform="translate(68.417 319.301)">
      <path id="Path_4037" data-name="Path 4037" d="M164.026,86.825a1.052,1.052,0,0,1-.712-.207.662.662,0,0,1-.235-.517,1.515,1.515,0,0,1,.017-.229,2.029,2.029,0,0,1,.051-.235l.45-1.68h-.443l.242-.9h.443l.256-.947h1.051l-.256.947h.871l-.242.9h-.871l-.414,1.551a.459.459,0,0,0-.021.086.518.518,0,0,0-.007.079q0,.221.283.221a1.317,1.317,0,0,0,.266-.029,1.621,1.621,0,0,0,.274-.081l-.242.892A1.778,1.778,0,0,1,164.026,86.825Z" transform="translate(-163.078 -81.715)" fill="#fff"/>
      <path id="Path_4038" data-name="Path 4038" d="M207.676,75.741h1.051l-1,3.707H206.68Zm.339-1.341h1.107l-.256.933h-1.106Z" transform="translate(-204.446 -74.4)" fill="#fff"/>
      <path id="Path_4039" data-name="Path 4039" d="M249,103.1a1.954,1.954,0,0,1-.7-.121,1.6,1.6,0,0,1-.546-.339,1.537,1.537,0,0,1-.359-.526,1.78,1.78,0,0,1-.128-.688,2.079,2.079,0,0,1,.176-.854,2.227,2.227,0,0,1,1.169-1.158A2.2,2.2,0,0,1,250,99.3a1.664,1.664,0,0,1,.425.176,1.4,1.4,0,0,1,.318.259,1.87,1.87,0,0,1,.232.315l-.8.567a1.363,1.363,0,0,0-.315-.349.785.785,0,0,0-.488-.135.839.839,0,0,0-.4.1,1.13,1.13,0,0,0-.339.281,1.468,1.468,0,0,0-.235.413,1.37,1.37,0,0,0-.09.492.788.788,0,0,0,.207.573.7.7,0,0,0,.519.212.986.986,0,0,0,.435-.094,1.841,1.841,0,0,0,.4-.273l.539.682a2.59,2.59,0,0,1-.615.415A1.828,1.828,0,0,1,249,103.1Z" transform="translate(-242.954 -97.967)" fill="#fff"/>
      <path id="Path_4040" data-name="Path 4040" d="M312.776,74.4h1.051l-.7,2.613,1.5-1.273h1.369L314.2,77.186l.809,2.261h-1.178l-.521-1.568-.532.428-.3,1.141H311.42Z" transform="translate(-303.82 -74.4)" fill="#fff"/>
      <path id="Path_4041" data-name="Path 4041" d="M392.721,101.515a.807.807,0,0,0,.228.529.849.849,0,0,0,.615.2,1.184,1.184,0,0,0,.4-.069,1.836,1.836,0,0,0,.422-.228l.485.652a2.251,2.251,0,0,1-.6.349,2.2,2.2,0,0,1-.826.141,2.138,2.138,0,0,1-.72-.114,1.524,1.524,0,0,1-.542-.326,1.392,1.392,0,0,1-.341-.512,1.9,1.9,0,0,1-.118-.692,2.181,2.181,0,0,1,.154-.8,2.258,2.258,0,0,1,1.141-1.225,2.072,2.072,0,0,1,.9-.193,1.759,1.759,0,0,1,.643.111,1.366,1.366,0,0,1,.477.3,1.293,1.293,0,0,1,.294.456,1.607,1.607,0,0,1,.1.574,1.913,1.913,0,0,1-.048.415,2.552,2.552,0,0,1-.138.428Zm1.688-.657a.854.854,0,0,0,.034-.242.561.561,0,0,0-.142-.387.6.6,0,0,0-.467-.159.985.985,0,0,0-.633.22,1.281,1.281,0,0,0-.4.57Z" transform="translate(-380.01 -97.953)" fill="#fff"/>
      <path id="Path_4042" data-name="Path 4042" d="M471.106,86.825a1.051,1.051,0,0,1-.712-.207.662.662,0,0,1-.235-.517,1.511,1.511,0,0,1,.017-.229,2.035,2.035,0,0,1,.051-.235l.449-1.68h-.443l.242-.9h.443l.256-.947h1.051l-.256.947h.871l-.242.9h-.871l-.415,1.551a.5.5,0,0,0-.021.086.514.514,0,0,0-.007.079q0,.221.283.221a1.323,1.323,0,0,0,.266-.029,1.628,1.628,0,0,0,.273-.081l-.242.892A1.778,1.778,0,0,1,471.106,86.825Z" transform="translate(-454.425 -81.715)" fill="#fff"/>
      <path id="Path_4043" data-name="Path 4043" d="M515.115,74.4h1.051l-1.356,5.048H513.76Z" transform="translate(-495.795 -74.4)" fill="#fff"/>
      <path id="Path_4044" data-name="Path 4044" d="M550.732,103.594a1.268,1.268,0,0,1-.439-.072.98.98,0,0,1-.339-.207.957.957,0,0,1-.3-.717,1.229,1.229,0,0,1,.461-.989,1.457,1.457,0,0,1,.505-.26,2.2,2.2,0,0,1,.629-.086,3.2,3.2,0,0,1,.556.045,3.7,3.7,0,0,1,.488.121l.014-.049c.009-.041.018-.084.028-.129a.737.737,0,0,0,.014-.15.391.391,0,0,0-.154-.319.9.9,0,0,0-.546-.122,2.4,2.4,0,0,0-.529.059,2.894,2.894,0,0,0-.461.142l-.165-.825a3.8,3.8,0,0,1,.636-.189,3.656,3.656,0,0,1,.745-.07,1.791,1.791,0,0,1,1.127.3,1.014,1.014,0,0,1,.374.844,1.621,1.621,0,0,1-.025.283q-.024.138-.058.277l-.547,2.049h-1.017l.111-.428a1.563,1.563,0,0,1-.5.37A1.434,1.434,0,0,1,550.732,103.594Zm.45-.717a.843.843,0,0,0,.315-.059.993.993,0,0,0,.273-.162,1.116,1.116,0,0,0,.215-.239.986.986,0,0,0,.131-.287l.028-.1a1.916,1.916,0,0,0-.32-.093,1.783,1.783,0,0,0-.373-.038.894.894,0,0,0-.543.154.5.5,0,0,0-.211.425.355.355,0,0,0,.131.284.531.531,0,0,0,.355.111Z" transform="translate(-529.848 -98.477)" fill="#fff"/>
      <path id="Path_4045" data-name="Path 4045" d="M623.626,74.4h1.051l-.705,2.613,1.5-1.273h1.369l-1.793,1.446.809,2.261h-1.178l-.521-1.568-.532.428-.3,1.141H622.27Z" transform="translate(-598.746 -74.4)" fill="#fff"/>
      <path id="Path_4046" data-name="Path 4046" d="M703.58,101.515a.808.808,0,0,0,.228.529.849.849,0,0,0,.615.2,1.184,1.184,0,0,0,.4-.069,1.846,1.846,0,0,0,.422-.228l.485.652a2.251,2.251,0,0,1-.6.349,2.2,2.2,0,0,1-.826.141,2.136,2.136,0,0,1-.72-.114,1.519,1.519,0,0,1-.542-.326,1.392,1.392,0,0,1-.341-.512,1.9,1.9,0,0,1-.118-.692,2.181,2.181,0,0,1,.154-.8,2.257,2.257,0,0,1,1.143-1.225,2.068,2.068,0,0,1,.9-.193,1.757,1.757,0,0,1,.643.111,1.367,1.367,0,0,1,.477.3,1.3,1.3,0,0,1,.294.456,1.61,1.61,0,0,1,.1.574,1.9,1.9,0,0,1-.048.415,2.614,2.614,0,0,1-.138.428Zm1.691-.657a.845.845,0,0,0,.034-.242.563.563,0,0,0-.141-.387.6.6,0,0,0-.467-.159.983.983,0,0,0-.635.22,1.281,1.281,0,0,0-.4.57Z" transform="translate(-674.945 -97.953)" fill="#fff"/>
    </g>
  </g>
</svg>
