<svg xmlns="http://www.w3.org/2000/svg" width="80.003" height="64.676" viewBox="0 0 80.003 64.676"><defs><style>.a{fill:#fff;}.b{fill:#146aa8;}.c{fill:#126099;}.d{fill:#4398d1;}.e{fill:#3e8cc7;}.f{fill:#fdb62f;}.g{fill:#fd7b2f;}.h{fill:#de4c3c;}.i{fill:#87ced9;}</style></defs><g transform="translate(-943 -815.806)"><rect class="a" width="70" height="6" transform="translate(949 874)"/><path class="b" d="M93.525,96.161l4.688-30.3A5.633,5.633,0,0,0,93.6,59.4h0L30.344,49.117a5.579,5.579,0,0,0-6.382,4.674L21.714,67.962V95.985Z" transform="translate(924.719 766.761)"/><path class="c" d="M133.427,98.967l-17.941-2.918c-12.05,18.691-31.529,31.637-46.467,39.526l64.337.158,4.681-30.3a5.632,5.632,0,0,0-4.61-6.463Z" transform="translate(884.894 727.189)"/><path class="d" d="M5.569,159.771H69.616a5.605,5.605,0,0,1,5.569,5.64v36.658a5.605,5.605,0,0,1-5.569,5.64H5.569A5.605,5.605,0,0,1,0,202.069V165.411A5.605,5.605,0,0,1,5.569,159.771Z" transform="translate(943 672.773)"/><path class="e" d="M155.727,159.771H154.6c-13.31,23.629-38.179,39.838-53.362,47.938h54.49a5.64,5.64,0,0,0,5.64-5.64V165.411A5.64,5.64,0,0,0,155.727,159.771Z" transform="translate(856.819 672.773)"/><rect class="f" width="14.099" height="11.279" transform="translate(950.05 840.014)"/><g transform="translate(950.05 844.239)"><rect class="g" width="4.23" height="2.82" transform="translate(0 0)"/><rect class="g" width="4.23" height="2.82" transform="translate(9.87 0)"/></g><circle class="f" cx="7.05" cy="7.05" r="7.05" transform="translate(997.036 859.332)"/><circle class="h" cx="7.05" cy="7.05" r="7.05" transform="translate(988.866 859.332)"/><g transform="translate(948.64 839.593)"><rect class="i" width="8.46" height="2.82" transform="translate(0 21.149)"/><rect class="i" width="8.46" height="2.82" transform="translate(13.855 21.149)"/><rect class="i" width="8.46" height="2.82" transform="translate(27.711 21.149)"/><rect class="i" width="36.658" height="2.82" transform="translate(0 29.609)"/><rect class="i" width="2.82" height="5.64" transform="translate(43.022)"/><rect class="i" width="2.82" height="5.64" transform="translate(48.573)"/><rect class="i" width="2.82" height="5.64" transform="translate(54.036)"/><rect class="i" width="2.82" height="5.64" transform="translate(59.676)"/></g></g></svg>