<svg xmlns="http://www.w3.org/2000/svg" width="20" height="20" viewBox="0 0 20 20">
  <g id="Share" transform="translate(-2 -2)">
    <path id="Path_5614" data-name="Path 5614" d="M6,15a3,3,0,1,0-3-3A3,3,0,0,0,6,15Z" fill="none" stroke="#ec1b23" stroke-linecap="round" stroke-linejoin="round" stroke-width="2"/>
    <path id="Path_5615" data-name="Path 5615" d="M18,9a3,3,0,1,0-3-3A3,3,0,0,0,18,9Z" fill="none" stroke="#ec1b23" stroke-linecap="round" stroke-linejoin="round" stroke-width="2"/>
    <path id="Path_5616" data-name="Path 5616" d="M18,21a3,3,0,1,0-3-3A3,3,0,0,0,18,21Z" fill="none" stroke="#ec1b23" stroke-linecap="round" stroke-linejoin="round" stroke-width="2"/>
    <path id="Path_5617" data-name="Path 5617" d="M8.7,10.7,12,9l.825-.425" fill="none" stroke="#ec1b23" stroke-linecap="round" stroke-linejoin="round" stroke-width="2"/>
    <path id="Path_5618" data-name="Path 5618" d="M15.3,16.7,12,15l-.825-.425" fill="none" stroke="#ec1b23" stroke-linecap="round" stroke-linejoin="round" stroke-width="2"/>
  </g>
</svg>
