<svg xmlns="http://www.w3.org/2000/svg" width="74.286" height="65" viewBox="0 0 74.286 65"><defs><style>.a{fill:#ec1b23;}.b{fill:#fff;}</style></defs><g transform="translate(0 0)"><path class="a" d="M66.915,45.929H11.607a2.321,2.321,0,0,1,0-4.643H67.321a2.321,2.321,0,0,0,2.321-2.321A6.964,6.964,0,0,0,62.679,32H9.286A9.285,9.285,0,0,0,0,41.286V87.714A9.285,9.285,0,0,0,9.286,97H66.915a7.183,7.183,0,0,0,7.371-6.964V52.893A7.183,7.183,0,0,0,66.915,45.929Zm-11.2,25.536c-2.564,0,0,2.564,0,0s-2.564,0,0,0,0-2.564,0,0S58.278,71.464,55.714,71.464Z" transform="translate(0 -32)"/><g transform="translate(31.25 23.437)"><path class="b" d="M50.344,131a4.132,4.132,0,0,0,5.492,2l-.467,1.825s-1.891.226-1.942,1.522a1.721,1.721,0,0,0,1.083,1.7l-.553,1.828a6.1,6.1,0,0,1-4.4-2.982A5.484,5.484,0,0,1,50.344,131Z" transform="translate(-46.968 -121.796)"/><path class="b" d="M35.245,28.6c-1.651-2.165.616-3.752.98-3.987l.385-1.539a11.822,11.822,0,0,0-2.917-.344l.06.012-.114.606-.12-.022.112-.6a9.854,9.854,0,0,0-3.575.657,8.619,8.619,0,0,0-2.305,1.443c-.079.073-.157.147-.235.225a14.731,14.731,0,0,0-1.01,1.126,8.089,8.089,0,0,0-1.36,2.983c-.893,3.83,1.415,7.911,1.415,7.911a6.608,6.608,0,0,1,1.307-5.645,5.993,5.993,0,0,1,6.953-1.318l.389-1.477-.053-.025Zm-8.652-1.37a8.076,8.076,0,0,0-.643,1.232,7.641,7.641,0,0,0-.409,1.331c-.058.226-.085.457-.122.688-.021.115-.026.232-.037.348l-.033.349a8.026,8.026,0,0,1,.51-2.751A7.42,7.42,0,0,1,26.5,27.17a7.887,7.887,0,0,1,.868-1.114,8.031,8.031,0,0,1,1.057-.935,9.159,9.159,0,0,1,1.19-.752,9.657,9.657,0,0,1,2.635-.95,9.59,9.59,0,0,0-1.331.437,10.674,10.674,0,0,0-1.26.6,9.03,9.03,0,0,0-2.2,1.689A7.867,7.867,0,0,0,26.593,27.226Zm3.724,1.729a5.919,5.919,0,0,0-1.09.45,5.52,5.52,0,0,0-1.791,1.5,6.151,6.151,0,0,0-.628.993,7.376,7.376,0,0,0-.433,1.1,10.2,10.2,0,0,0-.408,2.329l.021-.6c.019-.2.034-.4.057-.6a8.742,8.742,0,0,1,.24-1.169c.028-.1.054-.192.085-.286l.1-.281c.032-.1.073-.186.114-.277s.078-.184.123-.273a6.256,6.256,0,0,1,.632-1.02,5.468,5.468,0,0,1,1.845-1.506,5.583,5.583,0,0,1,2.3-.6A5.55,5.55,0,0,0,30.317,28.955Zm3.089-5.026.12.022-.114.607-.12-.024Zm-.229,1.213.12.023-.114.606-.12-.022Zm-.228,1.214.12.022-.114.607-.12-.023Zm-.229,1.213.12.023-.114.606-.12-.022Zm-.34,1.82.112-.6.12.022-.114.607Z" transform="translate(-24.942 -22.727)"/></g><g transform="translate(14.062 45.246)"><path class="b" d="M164.493,89.151a1.571,1.571,0,0,1-1.063-.31.989.989,0,0,1-.351-.773,2.263,2.263,0,0,1,.026-.341,3.036,3.036,0,0,1,.076-.351l.672-2.509h-.661l.361-1.343h.661l.382-1.415h1.569l-.382,1.415h1.3l-.361,1.343h-1.3l-.619,2.316a.684.684,0,0,0-.031.129.771.771,0,0,0-.01.118q0,.33.423.33a1.966,1.966,0,0,0,.4-.044,2.422,2.422,0,0,0,.409-.122l-.362,1.332A2.656,2.656,0,0,1,164.493,89.151Z" transform="translate(-163.078 -81.519)"/><path class="b" d="M208.167,76.4h1.569l-1.486,5.535h-1.57Zm.506-2h1.652l-.383,1.394h-1.652Z" transform="translate(-203.344 -74.4)"/><path class="b" d="M249.851,105a2.917,2.917,0,0,1-1.043-.181,2.394,2.394,0,0,1-.815-.506,2.294,2.294,0,0,1-.536-.785,2.658,2.658,0,0,1-.19-1.027,3.1,3.1,0,0,1,.263-1.275,3.325,3.325,0,0,1,1.745-1.73,3.279,3.279,0,0,1,2.07-.16,2.486,2.486,0,0,1,.635.263,2.1,2.1,0,0,1,.475.387,2.793,2.793,0,0,1,.347.47l-1.195.847a2.035,2.035,0,0,0-.47-.521,1.173,1.173,0,0,0-.728-.2,1.253,1.253,0,0,0-.6.153,1.688,1.688,0,0,0-.506.42,2.193,2.193,0,0,0-.351.617,2.046,2.046,0,0,0-.135.735,1.177,1.177,0,0,0,.31.855,1.042,1.042,0,0,0,.775.316,1.472,1.472,0,0,0,.65-.14,2.75,2.75,0,0,0,.6-.408l.806,1.019a3.869,3.869,0,0,1-.918.62A2.73,2.73,0,0,1,249.851,105Z" transform="translate(-240.826 -97.339)"/><path class="b" d="M313.444,74.4h1.569l-1.053,3.9,2.241-1.9h2.044l-2.678,2.159,1.209,3.376h-1.759l-.778-2.342-.795.64-.454,1.7h-1.57Z" transform="translate(-300.071 -74.4)"/><path class="b" d="M393.212,102.644a1.205,1.205,0,0,0,.34.79,1.268,1.268,0,0,0,.918.295,1.768,1.768,0,0,0,.6-.1,2.742,2.742,0,0,0,.63-.341l.724.973a3.361,3.361,0,0,1-.893.522,3.278,3.278,0,0,1-1.234.211,3.193,3.193,0,0,1-1.076-.17,2.275,2.275,0,0,1-.809-.487,2.078,2.078,0,0,1-.51-.765,2.833,2.833,0,0,1-.177-1.033,3.256,3.256,0,0,1,.23-1.193,3.372,3.372,0,0,1,1.7-1.829,3.094,3.094,0,0,1,1.348-.288,2.627,2.627,0,0,1,.96.165,2.04,2.04,0,0,1,.712.454,1.931,1.931,0,0,1,.439.682,2.4,2.4,0,0,1,.153.858,2.856,2.856,0,0,1-.072.62,3.816,3.816,0,0,1-.207.64Zm2.52-.981a1.276,1.276,0,0,0,.051-.361.837.837,0,0,0-.212-.578.891.891,0,0,0-.7-.238,1.47,1.47,0,0,0-.945.329,1.913,1.913,0,0,0-.6.851Z" transform="translate(-374.232 -97.325)"/><path class="b" d="M471.573,89.151a1.57,1.57,0,0,1-1.064-.31.989.989,0,0,1-.351-.773,2.256,2.256,0,0,1,.025-.341,3.04,3.04,0,0,1,.077-.351l.671-2.509h-.661l.362-1.343h.662l.383-1.415h1.57l-.383,1.415h1.3l-.362,1.343h-1.3l-.62,2.316a.75.75,0,0,0-.031.129.773.773,0,0,0-.01.118q0,.33.423.33a1.975,1.975,0,0,0,.4-.044,2.43,2.43,0,0,0,.408-.122l-.361,1.332A2.655,2.655,0,0,1,471.573,89.151Z" transform="translate(-446.665 -81.519)"/><path class="b" d="M515.783,74.4h1.57l-2.024,7.538H513.76Z" transform="translate(-486.934 -74.4)"/><path class="b" d="M551.264,105.477a1.894,1.894,0,0,1-.656-.108,1.464,1.464,0,0,1-.506-.31,1.429,1.429,0,0,1-.449-1.071,1.836,1.836,0,0,1,.688-1.476,2.177,2.177,0,0,1,.754-.388,3.29,3.29,0,0,1,.94-.129,4.783,4.783,0,0,1,.831.067,5.523,5.523,0,0,1,.728.181l.021-.073c.014-.062.028-.125.041-.192a1.093,1.093,0,0,0,.021-.223.584.584,0,0,0-.23-.476,1.35,1.35,0,0,0-.815-.183,3.592,3.592,0,0,0-.791.088,4.322,4.322,0,0,0-.688.212l-.247-1.232a5.674,5.674,0,0,1,.949-.282,5.461,5.461,0,0,1,1.113-.1,2.674,2.674,0,0,1,1.683.444,1.514,1.514,0,0,1,.558,1.26,2.415,2.415,0,0,1-.037.423q-.035.207-.087.413l-.816,3.06h-1.519l.165-.64a2.335,2.335,0,0,1-.744.552A2.141,2.141,0,0,1,551.264,105.477Zm.672-1.071a1.259,1.259,0,0,0,.47-.088,1.482,1.482,0,0,0,.408-.243,1.668,1.668,0,0,0,.321-.357,1.469,1.469,0,0,0,.2-.428l.041-.145a2.863,2.863,0,0,0-.478-.138,2.663,2.663,0,0,0-.558-.057,1.335,1.335,0,0,0-.811.23.747.747,0,0,0-.315.635.53.53,0,0,0,.2.424.793.793,0,0,0,.53.165Z" transform="translate(-520.079 -97.834)"/><path class="b" d="M624.294,74.4h1.57l-1.053,3.9,2.241-1.9H629.1l-2.678,2.159,1.208,3.376h-1.76l-.778-2.342-.795.64-.454,1.7h-1.57Z" transform="translate(-587.143 -74.4)"/><path class="b" d="M704.07,102.644a1.206,1.206,0,0,0,.341.79,1.267,1.267,0,0,0,.918.295,1.768,1.768,0,0,0,.6-.1,2.757,2.757,0,0,0,.63-.341l.724.973a3.362,3.362,0,0,1-.893.522,3.279,3.279,0,0,1-1.234.211,3.189,3.189,0,0,1-1.075-.17,2.268,2.268,0,0,1-.81-.487,2.077,2.077,0,0,1-.51-.765,2.828,2.828,0,0,1-.176-1.033,3.258,3.258,0,0,1,.229-1.193,3.37,3.37,0,0,1,1.707-1.829,3.089,3.089,0,0,1,1.347-.288,2.624,2.624,0,0,1,.96.165,2.042,2.042,0,0,1,.713.454,1.94,1.94,0,0,1,.439.682,2.407,2.407,0,0,1,.153.858,2.831,2.831,0,0,1-.072.62,3.89,3.89,0,0,1-.206.64Zm2.524-.981a1.262,1.262,0,0,0,.051-.361.84.84,0,0,0-.211-.578.892.892,0,0,0-.7-.238,1.469,1.469,0,0,0-.948.329,1.913,1.913,0,0,0-.6.851Z" transform="translate(-661.312 -97.325)"/></g></g></svg>