<svg xmlns="http://www.w3.org/2000/svg" width="40" height="40" viewBox="0 0 40 40"><defs><style>.a{fill:#ec1b23;}.b{fill:#fff;}</style></defs><g transform="translate(-0.015 -0.077)"><g transform="translate(0.015 0.077)"><circle class="a" cx="20" cy="20" r="20"/></g><g transform="translate(8.883 9.359)"><path class="b" d="M11.773.805l2.86,6.769,7.322.629a.577.577,0,0,1,.329,1.011L16.73,14.026l1.664,7.158a.577.577,0,0,1-.86.624l-6.292-3.795L4.95,21.808a.577.577,0,0,1-.86-.624l1.664-7.158L.2,9.213A.577.577,0,0,1,.529,8.2L7.85,7.573,10.71.805a.576.576,0,0,1,1.063,0Z" transform="translate(0 -0.452)"/></g></g></svg>