<svg xmlns="http://www.w3.org/2000/svg" width="55.996" height="55.996" viewBox="0 0 55.996 55.996">
  <g id="instagram" transform="translate(-1502 -4271)">
    <g id="Group_3626" data-name="Group 3626" transform="translate(1502 4271)">
      <rect id="Rectangle_690" data-name="Rectangle 690" width="55.996" height="55.996" rx="6" fill="#494949"/>
    </g>
    <g id="Group_5172" data-name="Group 5172" transform="translate(14943.969 20084.969)">
      <g id="instagram-sketched" transform="translate(-13425.969 -15797.969)">
        <path id="Path_4289" data-name="Path 4289" d="M215.438,213.219A2.219,2.219,0,1,1,213.219,211,2.219,2.219,0,0,1,215.438,213.219Zm0,0" transform="translate(-201.219 -201.219)" fill="#fff"/>
        <path id="Path_4290" data-name="Path 4290" d="M138.706,120H125.294A5.3,5.3,0,0,0,120,125.294v13.412A5.3,5.3,0,0,0,125.294,144h13.412A5.3,5.3,0,0,0,144,138.706V125.294A5.3,5.3,0,0,0,138.706,120ZM132,138.618A6.618,6.618,0,1,1,138.618,132,6.625,6.625,0,0,1,132,138.618Zm7.588-12.882a1.324,1.324,0,1,1,1.323-1.324A1.323,1.323,0,0,1,139.588,125.735Zm0,0" transform="translate(-120 -120)" fill="#fff"/>
      </g>
    </g>
  </g>
</svg>
