<svg xmlns="http://www.w3.org/2000/svg" width="55.996" height="55.996" viewBox="0 0 55.996 55.996">
  <g id="whatsapp" transform="translate(-1782 -4270.836)">
    <g id="Group_5169" data-name="Group 5169" transform="translate(1782 4270.836)">
      <rect id="Rectangle_690" data-name="Rectangle 690" width="55.996" height="55.996" rx="6" fill="#494949"/>
    </g>
    <g id="whatsapp-2" data-name="whatsapp" transform="translate(1797 4285.8)">
      <g id="Group_5168" data-name="Group 5168" transform="translate(0)">
        <path id="Path_4288" data-name="Path 4288" d="M13,0H13A12.992,12.992,0,0,0,2.475,20.62l-1.62,4.83,5-1.6A13,13,0,1,0,13,0Zm7.564,18.358a3.668,3.668,0,0,1-2.551,1.835c-.679.145-1.566.26-4.553-.978-3.82-1.583-6.281-5.465-6.472-5.717A7.425,7.425,0,0,1,5.447,9.576,4.15,4.15,0,0,1,6.776,6.412a1.889,1.889,0,0,1,1.329-.466c.161,0,.305.008.435.015.382.016.574.039.825.642.314.756,1.077,2.621,1.168,2.813a.774.774,0,0,1,.055.7,2.247,2.247,0,0,1-.421.6c-.192.221-.374.39-.565.627-.175.206-.374.427-.153.809a11.539,11.539,0,0,0,2.109,2.621,9.557,9.557,0,0,0,3.049,1.88.822.822,0,0,0,.916-.145,15.73,15.73,0,0,0,1.016-1.345.726.726,0,0,1,.933-.283c.351.122,2.208,1.04,2.59,1.23s.634.283.726.444A3.238,3.238,0,0,1,20.568,18.358Z" fill="#fff"/>
      </g>
    </g>
  </g>
</svg>
