<svg xmlns="http://www.w3.org/2000/svg" width="55.996" height="55.996" viewBox="0 0 55.996 55.996">
  <g id="Youtube" transform="translate(-1712 -4270.836)">
    <g id="Group_5167" data-name="Group 5167" transform="translate(1712 4270.836)">
      <rect id="Rectangle_690" data-name="Rectangle 690" width="55.996" height="55.996" rx="6" fill="#ec1b23"/>
    </g>
    <path id="youtube-2" data-name="youtube" d="M31.341-2.576A4.009,4.009,0,0,0,28.52-5.4C26.016-6.082,16-6.082,16-6.082s-10.016,0-12.52.659A4.09,4.09,0,0,0,.659-2.576,42.242,42.242,0,0,0,0,5.121a42.087,42.087,0,0,0,.659,7.7,4.01,4.01,0,0,0,2.821,2.821c2.53.685,12.521.685,12.521.685s10.016,0,12.52-.659a4.009,4.009,0,0,0,2.821-2.82A42.256,42.256,0,0,0,32,5.147,40.1,40.1,0,0,0,31.341-2.576ZM12.811,9.918V.323l8.329,4.8Zm0,0" transform="translate(1724 4293.683)" fill="#fff"/>
  </g>
</svg>
